<?xml version="1.0" encoding="utf-8"?>
<!-- Generator: Adobe Illustrator 23.0.6, SVG Export Plug-In . SVG Version: 6.00 Build 0)  -->
<svg version="1.1" id="Layer_1" xmlns="http://www.w3.org/2000/svg" xmlns:xlink="http://www.w3.org/1999/xlink" x="0px" y="0px"
	 viewBox="0 0 278.1 203.1" style="enable-background:new 0 0 278.1 203.1;" xml:space="preserve">
<style type="text/css">
	.st0{fill:#434143;}
	.st1{fill:none;stroke:#F5EB09;stroke-width:0.5;stroke-miterlimit:10;}
	.st2{fill:#F7EC00;}
	.st3{fill:#F5EB09;}
	.st4{fill:none;stroke:#F4EA0A;stroke-miterlimit:10;}
	.st5{fill:#FFFFFF;}
	.st6{fill:none;stroke:#F3EA07;stroke-miterlimit:10;}
	.st7{fill:#F7F7F7;}
	.st8{fill:#F3EA07;}
	.st9{fill:none;}
	.st10{font-family:'OpenSans-Semibold';}
	.st11{font-size:18px;}
</style>
<polygon class="st0" points="114.9,154.9 122.2,141.9 107.7,141.9 "/>
<polygon class="st0" points="53.9,80.8 72.3,69.8 53.9,58.8 "/>
<polygon class="st0" points="176.3,80.5 157.8,69.5 176.3,58.4 "/>
<polygon class="st0" points="63.3,135 85.7,104.7 89.1,100.1 111.5,100.1 111.5,121.3 98.8,121.3 82.9,142.9 "/>
<polyline class="st1" points="103.7,113.2 94.9,113.2 79.3,134.4 "/>
<polygon class="st0" points="167,135 144.7,104.7 141.2,100.1 118.9,100.1 118.9,121.3 131.6,121.3 147.5,142.9 "/>
<polyline class="st1" points="151.1,134.4 135.5,113.2 126.7,113.2 "/>
<polygon class="st0" points="49.4,129.5 82,85.3 106.1,85.3 115.1,91.6 124.1,85.3 148.2,85.3 180.8,129.5 194.8,123.9 155.3,70.4 
	115.1,70.4 74.9,70.4 35.4,123.9 "/>
<polyline class="st1" points="108.3,78 78.5,78 46.4,121.5 "/>
<polyline class="st1" points="183.8,121.5 151.7,78 121.9,78 "/>
<path class="st2" d="M107.8,113.2c0,1.6-1.3,3-2.9,3s-2.9-1.3-2.9-3c0-1.6,1.3-3,2.9-3C106.6,110.2,107.8,111.6,107.8,113.2"/>
<path class="st2" d="M128.6,113.2c0,1.6-1.3,3-2.9,3s-2.9-1.3-2.9-3c0-1.6,1.3-3,2.9-3S128.6,111.6,128.6,113.2"/>
<path class="st0" d="M260.5,53.4c2.2-9.2,0.7-19.4,0.7-19.4s-4.7,4.3-10.2,8.5L260.5,53.4z"/>
<path class="st0" d="M216.5,59.5c-2.3,0.9-4.8,2-7.3,3.4L230,95c3.5-3.9,7.1-7.4,10.6-10.8L216.5,59.5z"/>
<path class="st0" d="M187.3,84.7C183.2,91,181,96,181,96l13.8,19.1c0,0,6-0.2,13.2-2.7L187.3,84.7z"/>
<path class="st0" d="M242.6,50.5c-0.2,0.1-0.4,0.2-0.6,0.4c-4.8,2.8-9.3,4.1-14,5.3l19.9,20.3c3-3.4,5.7-6.9,7.9-10.9L242.6,50.5z"
	/>
<path class="st0" d="M201.9,68c-3.2,2.6-6.1,5.6-8.6,8.6l23.6,31.5c2.8-1.8,5.4-4,7.7-6.8L201.9,68z"/>
<path class="st3" d="M106.9,78c0,0.8,0.7,1.5,1.5,1.5s1.5-0.7,1.5-1.5s-0.7-1.5-1.5-1.5C107.5,76.5,106.9,77.2,106.9,78"/>
<path class="st3" d="M45,121.5c0,0.8,0.7,1.5,1.5,1.5s1.5-0.7,1.5-1.5s-0.7-1.5-1.5-1.5C45.6,120,45,120.7,45,121.5"/>
<path class="st3" d="M77.8,134.4c0,0.8,0.7,1.5,1.5,1.5c0.8,0,1.5-0.7,1.5-1.5s-0.7-1.5-1.5-1.5C78.5,132.9,77.8,133.6,77.8,134.4"
	/>
<path class="st3" d="M149.7,134.4c0,0.8,0.7,1.5,1.5,1.5s1.5-0.7,1.5-1.5s-0.7-1.5-1.5-1.5C150.3,132.9,149.7,133.6,149.7,134.4"/>
<path class="st3" d="M120.4,78c0,0.8,0.7,1.5,1.5,1.5s1.5-0.7,1.5-1.5s-0.7-1.5-1.5-1.5C121.1,76.5,120.4,77.2,120.4,78"/>
<path class="st3" d="M182.2,122.2c0,0.9,0.7,1.7,1.6,1.7c0.9,0,1.6-0.8,1.6-1.7c0-0.9-0.7-1.7-1.6-1.7
	C182.9,120.6,182.2,121.3,182.2,122.2"/>
<polygon class="st0" points="115.8,23.5 100.2,50.4 131.3,50.4 "/>
<polyline class="st4" points="114.3,46.7 106.7,46.7 115.8,30.9 124.9,46.7 117.3,46.7 "/>
<polygon class="st5" points="113.1,43 115.8,38.3 118.4,43 "/>
<path class="st0" d="M142.4,50.4c7.4,0,13.5-6,13.5-13.5c0-7.4-6-13.5-13.5-13.5H135v26.9L142.4,50.4z"/>
<path class="st6" d="M138.7,35.4v-8.2h3.7c5.4,0,9.8,4.4,9.8,9.8s-4.4,9.8-9.7,9.8h-3.7V38"/>
<path class="st0" d="M99.3,29.9c-2.4-3.8-6.6-6.4-11.5-6.4c-7.4,0-13.5,6-13.5,13.5c0,7.4,6,13.5,13.5,13.5c4.8,0,9.1-2.6,11.5-6.4
	l0,0L93,40.2l0,0c-1.1,1.7-3,2.8-5.1,2.8c-3.3,0-6-2.7-6-6s2.7-6,6-6c2.2,0,4.1,1.1,5.1,2.8l0,0L99.3,29.9L99.3,29.9z"/>
<path class="st6" d="M87.8,27.2c-5.4,0-9.8,4.4-9.8,9.8s4.4,9.8,9.8,9.8c2.1,0,4.1-0.7,5.7-1.9l0,0c-1.6,1.2-3.6,1.8-5.7,1.8
	c-5.4,0-9.7-4.4-9.7-9.7C78.1,31.6,82.5,27.2,87.8,27.2c2.1,0,4.1,0.7,5.7,1.9l0,0C91.9,27.9,89.9,27.2,87.8,27.2z"/>
<path class="st7" d="M142.4,43c3.3,0,6-2.7,6-6s-2.7-6-6-6V43z"/>
<path class="st8" d="M92.8,29.5c0,0.6,0.5,1,1,1c0.6,0,1-0.5,1-1c0-0.6-0.5-1-1-1S92.8,29,92.8,29.5"/>
<path class="st5" d="M93,44.8c0,0.4,0.3,0.7,0.7,0.7c0.4,0,0.7-0.3,0.7-0.7s-0.3-0.7-0.7-0.7C93.3,44.1,93,44.4,93,44.8"/>
<path class="st8" d="M113.5,46.7c0,0.4,0.3,0.7,0.7,0.7c0.4,0,0.7-0.3,0.7-0.7s-0.3-0.7-0.7-0.7C113.8,46,113.5,46.3,113.5,46.7"/>
<path class="st8" d="M116.6,46.7c0,0.4,0.3,0.7,0.7,0.7c0.4,0,0.7-0.3,0.7-0.7s-0.3-0.7-0.7-0.7C116.9,46,116.6,46.3,116.6,46.7"/>
<path class="st8" d="M138,35.1c0,0.4,0.3,0.7,0.7,0.7s0.7-0.3,0.7-0.7s-0.3-0.7-0.7-0.7C138.3,34.4,138,34.7,138,35.1"/>
<path class="st8" d="M138,38.1c0,0.4,0.3,0.7,0.7,0.7s0.7-0.3,0.7-0.7s-0.3-0.7-0.7-0.7C138.3,37.4,138,37.7,138,38.1"/>
<path class="st8" d="M93,44.8c0,0.6,0.5,1,1,1c0.6,0,1-0.5,1-1c0-0.6-0.5-1-1-1C93.4,43.7,93,44.2,93,44.8"/>
<rect x="46.1" y="153.9" class="st9" width="186.5" height="76.3"/>
<rect x="9.3" y="167.4" class="st9" width="259.1" height="35.7"/>
<text transform="matrix(1 0 0 1 15.3895 181.1192)" class="st0 st10 st11">Centro de Autonomía Digital</text>
</svg>
