<?xml version="1.0" encoding="UTF-8" standalone="no"?>
<!-- Created with Inkscape (http://www.inkscape.org/) -->

<svg
   xmlns:dc="http://purl.org/dc/elements/1.1/"
   xmlns:cc="http://creativecommons.org/ns#"
   xmlns:rdf="http://www.w3.org/1999/02/22-rdf-syntax-ns#"
   xmlns:svg="http://www.w3.org/2000/svg"
   xmlns="http://www.w3.org/2000/svg"
   xmlns:sodipodi="http://sodipodi.sourceforge.net/DTD/sodipodi-0.dtd"
   xmlns:inkscape="http://www.inkscape.org/namespaces/inkscape"
   id="svg2"
   version="1.1"
   inkscape:version="0.91 r13725"
   xml:space="preserve"
   width="1092.1918"
   height="338.50351"
   viewBox="0 0 1092.1918 338.50351"
   sodipodi:docname="camba.svg"><metadata
     id="metadata8"><rdf:RDF><cc:Work
         rdf:about=""><dc:format>image/svg+xml</dc:format><dc:type
           rdf:resource="http://purl.org/dc/dcmitype/StillImage" /><dc:title></dc:title></cc:Work></rdf:RDF></metadata><defs
     id="defs6"><linearGradient
       x1="0"
       y1="0"
       x2="1"
       y2="0"
       gradientUnits="userSpaceOnUse"
       gradientTransform="matrix(254.90283,-92.777046,-92.777046,-254.90283,78.844933,550.03168)"
       spreadMethod="pad"
       id="linearGradient24"><stop
         style="stop-opacity:1;stop-color:#48c09b"
         offset="0"
         id="stop26" /><stop
         style="stop-opacity:1;stop-color:#5ac36b"
         offset="1"
         id="stop28" /></linearGradient><clipPath
       clipPathUnits="userSpaceOnUse"
       id="clipPath36"><path
         d="m 0,1000 1000,0 L 1000,0 0,0 0,1000 Z"
         id="path38"
         inkscape:connector-curvature="0" /></clipPath></defs><sodipodi:namedview
     pagecolor="#ffffff"
     bordercolor="#666666"
     borderopacity="1"
     objecttolerance="10"
     gridtolerance="10"
     guidetolerance="10"
     inkscape:pageopacity="0"
     inkscape:pageshadow="2"
     inkscape:window-width="862"
     inkscape:window-height="625"
     id="namedview4"
     showgrid="false"
     fit-margin-top="0"
     fit-margin-left="0"
     fit-margin-right="0"
     fit-margin-bottom="0"
     inkscape:zoom="0.1888"
     inkscape:cx="546.01792"
     inkscape:cy="169.25225"
     inkscape:window-x="0"
     inkscape:window-y="0"
     inkscape:window-maximized="0"
     inkscape:current-layer="g10" /><g
     id="g10"
     inkscape:groupmode="layer"
     inkscape:label="camba marca_final_diferentes_usos"
     transform="matrix(1.25,0,0,-1.25,-78.982077,794.25125)"><g
       id="g12"><g
         id="g14"><g
           id="g20"><g
             id="g22"><path
               d="m 187.764,603.39 c -3.021,-9.927 -2.526,-20.358 1.3,-29.87 l 0,0 -0.033,0.041 c 0,0 2.71,-9.014 -5.833,-16.412 l 0,0 c -3.369,-2.916 -10.223,-4.515 -16.46,-1.798 l 0,0 c -0.996,0.56 -1.967,1.153 -2.996,1.666 l 0,0 c -3.425,1.707 -7.044,3.156 -10.824,4.304 l 0,0 c -17.755,5.4 -36.553,3.563 -52.926,-5.174 l 0,0 C 83.616,547.411 71.627,532.819 66.227,515.059 l 0,0 c -5.403,-17.76 -3.564,-36.556 5.173,-52.927 l 0,0 c 8.738,-16.377 23.338,-28.371 41.086,-33.766 l 0,0 c 12.055,-3.667 24.857,-3.985 37.033,-0.927 l 0,0 c 19.154,4.81 35.306,17.642 44.474,34.716 l 0,0 0.027,-0.018 c 0,0 6.654,11.707 15.324,10.002 l 0,0 c 5.866,-1.153 8.014,-3.421 9.36,-12.127 l 0,0 0.053,0.105 c 0.837,-5.835 2.575,-11.544 5.202,-16.98 l 0,0 -0.065,-0.018 c 0,0 3.371,-7.407 -1.738,-13.326 l 0,0 c -3.589,-4.16 -5.955,-3.656 -9.05,-2.4 l 0,0 0.012,-0.037 c -1.31,0.596 -2.655,1.134 -4.055,1.559 l 0,0 c -17.338,5.267 -35.731,-4.552 -41.007,-21.887 l 0,0 c -5.27,-17.334 4.512,-35.705 21.887,-41.01 l 0,0 c 5.703,-1.732 11.76,-1.883 17.52,-0.433 l 0,0 c 11.153,2.798 20.151,11.352 23.486,22.319 l 0,0 c 2.553,8.389 1.679,17.277 -2.461,25.032 l 0,0 c 0,0 -2.314,3.931 0.867,8.282 l 0,0 c 3.029,4.142 7.02,4.263 12.856,0.036 l 0,0 -0.047,0.112 c 5.128,-3.701 10.848,-6.616 17.067,-8.507 l 0,0 c 10.054,-3.057 20.736,-3.322 30.892,-0.772 l 0,0 c 19.67,4.94 35.543,20.023 41.424,39.364 l 0,0 c 4.505,14.807 2.972,30.485 -4.316,44.147 l 0,0 c -5.729,10.738 -14.473,19.215 -25.153,24.54 l 0,0 c -2.904,1.447 -5.951,2.663 -9.12,3.626 l 0,0 c -14.806,4.503 -30.483,2.97 -44.151,-4.317 l 0,0 C 237.064,513.181 228.049,503.29 222.883,491.23 l 0,0 -0.008,0.056 c 0,0 -3.627,-7.072 -11.571,-6.549 l 0,0 c -7.114,0.468 -9.128,2.8 -9.148,12.378 l 0,0 -0.058,-0.113 c -0.391,12.186 -3.994,23.915 -10.229,34.1 l 0,0 c -1.29,2.565 -4.21,9.714 -0.202,15.567 l 0,0 c 3.881,5.666 7.84,8.181 16.523,4.598 l 0,0 -0.121,0.124 c 3.044,-1.787 6.289,-3.269 9.748,-4.321 l 0,0 c 7.825,-2.377 16.145,-2.585 24.062,-0.605 l 0,0 0.002,0.005 c 15.313,3.845 27.67,15.594 32.259,30.659 l 0,0 c 6.492,21.355 -3.686,43.876 -23.031,53.523 l 0,0 c -2.221,1.107 -4.571,2.047 -7.029,2.796 l 0,0 c -4.355,1.323 -8.762,1.953 -13.095,1.953 l 0,0 c -19.357,0.001 -37.302,-12.56 -43.221,-32.011 m 37.004,-33.479 c -1.152,0.351 -2.258,0.794 -3.309,1.318 l 0,0 c -9.11,4.542 -13.912,15.156 -10.859,25.209 l 0,0 c 2.2,7.198 7.893,12.61 15.245,14.446 l 0,0 c 3.708,0.937 7.609,0.836 11.294,-0.284 l 0,0 c 5.373,-1.638 9.871,-5.308 12.549,-10.339 l 0,0 c 2.683,-5.019 3.254,-10.775 1.602,-16.194 l 0,0 c -2.789,-9.159 -11.248,-15.073 -20.361,-15.074 l 0,0 c -2.04,0 -4.111,0.296 -6.161,0.918 M 120.146,453.549 c -2.36,0.718 -4.626,1.623 -6.787,2.7 l 0,0 c -7.949,3.963 -14.469,10.279 -18.735,18.273 l 0,0 c -5.426,10.174 -6.568,21.852 -3.216,32.88 l 0,0 c 3.357,11.029 10.807,20.093 20.976,25.519 l 0,0 c 3.154,1.683 6.478,2.968 9.883,3.821 l 0,0 0.005,0.002 c 7.522,1.889 15.47,1.679 22.987,-0.606 l 0,0 c 22.802,-6.952 35.663,-31.087 28.74,-53.85 l 0,0 c -5.662,-18.601 -22.818,-30.61 -41.32,-30.611 l 0,0 c -4.149,0 -8.363,0.603 -12.533,1.872 m 146.745,-15.506 c -1.728,0.527 -3.388,1.189 -4.975,1.98 l 0,0 c -5.826,2.905 -10.601,7.533 -13.731,13.394 l 0,0 c -3.978,7.459 -4.816,16.019 -2.359,24.101 l 0,0 c 2.458,8.084 7.917,14.726 15.376,18.707 l 0,0 c 2.31,1.233 4.748,2.176 7.245,2.801 l 0,0 0.004,0 c 5.513,1.385 11.337,1.231 16.845,-0.444 l 0,0 c 8.091,-2.467 14.728,-7.925 18.71,-15.375 l 0,0 c 3.979,-7.455 4.815,-16.013 2.357,-24.095 l 0,0 c -4.148,-13.636 -16.725,-22.439 -30.288,-22.44 l 0,0 c -3.04,0 -6.128,0.442 -9.184,1.371 m -70.677,-51.396 c -0.614,0.187 -1.208,0.426 -1.768,0.706 l 0,0 c -2.084,1.038 -3.788,2.693 -4.907,4.794 l 0,0 c -1.427,2.669 -1.733,5.729 -0.854,8.61 l 0,0 c 1.162,3.83 4.193,6.698 8.099,7.682 l 0,0 c 1.972,0.498 4.047,0.444 6.008,-0.151 l 0,0 c 6.012,-1.856 9.35,-8.152 7.538,-14.107 l 0,0 c -1.486,-4.876 -5.983,-8.024 -10.833,-8.024 l 0,0 c -1.087,0 -2.191,0.158 -3.283,0.49"
               style="fill:url(#linearGradient24);stroke:none"
               id="path30"
               inkscape:connector-curvature="0" /></g></g></g></g><g
       id="g40"
       transform="translate(709.001,492.9561)"><path
         d="m 0,0 c -1.236,12.839 -6.848,23.197 -19.376,28.407 -11.189,4.653 -22.876,5.108 -34.649,2.787 -8.621,-1.7 -15.538,-6.19 -20.349,-14.207 -3.349,5.64 -7.6,9.751 -13.373,12.027 -12.288,4.846 -24.775,4.458 -37.201,0.807 -11.768,-3.457 -19.507,-11.324 -22.588,-23.183 -1.353,-5.203 -1.995,-10.718 -2.067,-16.104 -0.244,-18.54 -0.103,-37.086 -0.079,-55.629 0.002,-1.546 0.212,-3.093 0.356,-4.637 0.315,-3.39 2.307,-5.333 5.567,-5.575 3.413,-0.253 6.876,-0.242 10.289,0.016 3.493,0.263 5.289,2.547 5.576,5.965 0.149,1.766 0.15,3.55 0.151,5.325 0.01,17.654 -0.022,33.344 0.032,50.999 0.009,3.101 0.175,6.225 0.584,9.296 0.934,7.011 4.88,12.911 11.733,14.6 4.698,1.158 12.626,1.257 18.126,-0.016 6.761,-1.565 10.489,-6.692 11.389,-13.681 0.396,-3.071 0.614,-6.186 0.624,-9.283 0.058,-17.877 0.022,-34.564 0.038,-52.441 0.002,-1.774 0.016,-3.562 0.239,-5.316 0.399,-3.121 2.199,-5.123 5.372,-5.434 2.75,-0.271 5.543,-0.364 8.302,-0.23 4.987,0.241 6.9,2.212 7.313,7.242 0.127,1.546 0.082,3.108 0.084,4.661 0.027,19.21 -0.064,37.231 0.116,56.439 0.097,10.334 4.449,17.139 13.907,18.447 6.285,0.869 12.182,0.77 16.874,-0.446 6.959,-1.803 10.112,-6.536 11.107,-13.622 0.43,-3.065 0.601,-6.189 0.611,-9.286 0.056,-17.544 0.026,-33.899 0.028,-51.443 0,-10.972 1.234,-12.186 12.246,-12.081 7.714,0.074 9.672,1.954 9.703,9.678 0.055,13.88 0.087,27.761 -0.006,41.64 C 0.624,-16.182 0.773,-8.041 0,0"
         style="fill:#28292a;fill-opacity:1;fill-rule:nonzero;stroke:none"
         id="path42"
         inkscape:connector-curvature="0" /></g><g
       id="g44"
       transform="translate(709.001,492.9561)"><path
         d="m 0,0 c -1.236,12.839 -6.848,23.197 -19.376,28.407 -11.189,4.653 -22.876,5.108 -34.649,2.787 -8.621,-1.7 -15.538,-6.19 -20.349,-14.207 -3.349,5.64 -7.6,9.751 -13.373,12.027 -12.288,4.846 -24.775,4.458 -37.201,0.807 -11.768,-3.457 -19.507,-11.324 -22.588,-23.183 -1.353,-5.203 -1.995,-10.718 -2.067,-16.104 -0.244,-18.54 -0.103,-37.086 -0.079,-55.629 0.002,-1.546 0.212,-3.093 0.356,-4.637 0.315,-3.39 2.307,-5.333 5.567,-5.575 3.413,-0.253 6.876,-0.242 10.289,0.016 3.493,0.263 5.289,2.547 5.576,5.965 0.149,1.766 0.15,3.55 0.151,5.325 0.01,17.654 -0.022,33.344 0.032,50.999 0.009,3.101 0.175,6.225 0.584,9.296 0.934,7.011 4.88,12.911 11.733,14.6 4.698,1.158 12.626,1.257 18.126,-0.016 6.761,-1.565 10.489,-6.692 11.389,-13.681 0.396,-3.071 0.614,-6.186 0.624,-9.283 0.058,-17.877 0.022,-34.564 0.038,-52.441 0.002,-1.774 0.016,-3.562 0.239,-5.316 0.399,-3.121 2.199,-5.123 5.372,-5.434 2.75,-0.271 5.543,-0.364 8.302,-0.23 4.987,0.241 6.9,2.212 7.313,7.242 0.127,1.546 0.082,3.108 0.084,4.661 0.027,19.21 -0.064,37.231 0.116,56.439 0.097,10.334 4.449,17.139 13.907,18.447 6.285,0.869 12.182,0.77 16.874,-0.446 6.959,-1.803 10.112,-6.536 11.107,-13.622 0.43,-3.065 0.601,-6.189 0.611,-9.286 0.056,-17.544 0.026,-33.899 0.028,-51.443 0,-10.972 1.234,-12.186 12.246,-12.081 7.714,0.074 9.672,1.954 9.703,9.678 0.055,13.88 0.087,27.761 -0.006,41.64 C 0.624,-16.182 0.773,-8.041 0,0 Z"
         style="fill:none;stroke:#171717;stroke-width:0.25;stroke-linecap:butt;stroke-linejoin:miter;stroke-miterlimit:10;stroke-dasharray:none;stroke-opacity:1"
         id="path46"
         inkscape:connector-curvature="0" /></g><g
       id="g48"
       transform="translate(427.9888,523.2456)"><path
         d="m 0,0 c -11.067,2.913 -22.229,2.938 -33.31,0.491 -16.182,-3.572 -28.631,-12.854 -32.287,-29.461 -1.723,-7.824 -1.634,-16.048 -2.132,-21.512 0.425,-9.185 0.345,-15.766 1.106,-22.248 1.841,-15.677 9.698,-26.959 25.145,-31.959 13.623,-4.41 27.603,-4.581 41.507,-1.311 7.805,1.834 10.759,5.705 10.097,11.698 -0.742,6.727 -5.727,9.19 -11.18,8.474 -6.759,-0.887 -11.788,-1.415 -18.005,-1.415 -17.74,0 -24.938,6.742 -25.84,19.383 -0.779,10.91 -0.378,21.965 0.343,32.902 0.514,7.798 6.427,12.955 14.117,15.011 2.451,0.655 4.988,1.101 7.514,1.341 7.707,0.729 15.528,-0.245 21.812,-1.613 4.788,-1.043 10.496,0.792 11.4,7.585 C 11.187,-5.875 6.638,-1.747 0,0"
         style="fill:#28292a;fill-opacity:1;fill-rule:nonzero;stroke:none"
         id="path50"
         inkscape:connector-curvature="0" /></g><g
       id="g52"
       transform="translate(427.9888,523.2456)"><path
         d="m 0,0 c -11.067,2.913 -22.229,2.938 -33.31,0.491 -16.182,-3.572 -28.631,-12.854 -32.287,-29.461 -1.723,-7.824 -1.634,-16.048 -2.132,-21.512 0.425,-9.185 0.345,-15.766 1.106,-22.248 1.841,-15.677 9.698,-26.959 25.145,-31.959 13.623,-4.41 27.603,-4.581 41.507,-1.311 7.805,1.834 10.759,5.705 10.097,11.698 -0.742,6.727 -5.727,9.19 -11.18,8.474 -6.759,-0.887 -11.788,-1.415 -18.005,-1.415 -17.74,0 -24.938,6.742 -25.84,19.383 -0.779,10.91 -0.378,21.965 0.343,32.902 0.514,7.798 6.427,12.955 14.117,15.011 2.451,0.655 4.988,1.101 7.514,1.341 7.707,0.729 15.528,-0.245 21.812,-1.613 4.788,-1.043 10.496,0.792 11.4,7.585 C 11.187,-5.875 6.638,-1.747 0,0 Z"
         style="fill:none;stroke:#171717;stroke-width:0.25;stroke-linecap:butt;stroke-linejoin:miter;stroke-miterlimit:10;stroke-dasharray:none;stroke-opacity:1"
         id="path54"
         inkscape:connector-curvature="0" /></g><g
       id="g56"
       transform="translate(808.2842,456.2812)"><path
         d="m 0,0 c 0,-11.234 -4.809,-18.256 -14.867,-19.481 -6.95,-0.846 -16.329,-0.866 -23.281,0 -9.299,1.158 -14.497,7.822 -14.497,19.481 l 0,26.996 c 0,10.058 2.969,18.386 15.729,20.18 6.804,0.957 15.035,1.073 21.834,0 C -5.793,45.71 0.039,38.981 0.039,26.996 0.039,20.199 0,7.616 0,0 m 7.619,60.583 c -10.348,7.941 -20.829,8.33 -33.239,8.33 -12.104,0 -20.762,-1.963 -27.651,-7.901 0,2.053 -0.026,25.283 -0.026,38.608 0,0.336 -0.019,0.656 -0.039,0.976 0.03,0.331 0.051,0.664 0.051,1.003 0,6.028 -3.259,9.864 -10.916,9.864 -7.143,0 -10.916,-3.836 -10.916,-9.864 0,-0.426 0.031,-0.844 0.078,-1.257 -0.043,-0.526 -0.071,-1.068 -0.071,-1.639 0,-30.093 -0.025,-61.237 0.023,-91.33 0.007,-4.101 0.204,-8.216 0.582,-12.3 1.586,-17.138 10.639,-29.17 27.116,-34 13.853,-4.061 28.942,-3.395 42.775,0.641 13.645,3.981 22.497,13.15 25.162,27.032 3.179,16.566 2.925,33.382 0.041,50.005 -1.516,8.733 -5.753,16.294 -12.97,21.832"
         style="fill:#28292a;fill-opacity:1;fill-rule:nonzero;stroke:none"
         id="path58"
         inkscape:connector-curvature="0" /></g><g
       id="g60"
       transform="translate(808.2842,456.2812)"><path
         d="m 0,0 c 0,-11.234 -4.809,-18.256 -14.867,-19.481 -6.95,-0.846 -16.329,-0.866 -23.281,0 -9.299,1.158 -14.497,7.822 -14.497,19.481 l 0,26.996 c 0,10.058 2.969,18.386 15.729,20.18 6.804,0.957 15.035,1.073 21.834,0 C -5.793,45.71 0.039,38.981 0.039,26.996 0.039,20.199 0,7.616 0,0 Z m 7.619,60.583 c -10.348,7.941 -20.829,8.33 -33.239,8.33 -12.104,0 -20.762,-1.963 -27.651,-7.901 0,2.053 -0.026,25.283 -0.026,38.608 0,0.336 -0.019,0.656 -0.039,0.976 0.03,0.331 0.051,0.664 0.051,1.003 0,6.028 -3.259,9.864 -10.916,9.864 -7.143,0 -10.916,-3.836 -10.916,-9.864 0,-0.426 0.031,-0.844 0.078,-1.257 -0.043,-0.526 -0.071,-1.068 -0.071,-1.639 0,-30.093 -0.025,-61.237 0.023,-91.33 0.007,-4.101 0.204,-8.216 0.582,-12.3 1.586,-17.138 10.639,-29.17 27.116,-34 13.853,-4.061 28.942,-3.395 42.775,0.641 13.645,3.981 22.497,13.15 25.162,27.032 3.179,16.566 2.925,33.382 0.041,50.005 -1.516,8.733 -5.753,16.294 -12.97,21.832 z"
         style="fill:none;stroke:#171717;stroke-width:0.25;stroke-linecap:butt;stroke-linejoin:miter;stroke-miterlimit:10;stroke-dasharray:none;stroke-opacity:1"
         id="path62"
         inkscape:connector-curvature="0" /></g><g
       id="g64"
       transform="translate(914.75,447.6426)"><path
         d="m 0,0 c -0.419,-6.998 -4.392,-11.859 -11.369,-12.767 -6.751,-0.877 -13.714,-1.22 -20.48,-0.621 -8.887,0.788 -12.976,5.928 -12.894,14.316 0.079,8.131 4.474,12.102 12.957,13.993 10.343,2.305 21.979,1.518 31.846,0.899 C 0.06,9.933 0.303,5.07 0,0 m 21.531,47.16 c -0.51,13.995 -8.447,23.002 -21.684,27.145 -8.416,2.633 -16.948,3.635 -25.524,3.635 -12.679,0 -21.97,-2.482 -26.533,-4.052 -4.067,-1.4 -7.259,-5.413 -5.84,-11.082 1.561,-6.229 7.47,-7.541 10.466,-6.758 6.797,1.777 13.694,3 22.761,3 3.298,0 6.6,-0.265 9.909,-0.694 8.992,-1.166 14.11,-5.347 14.844,-12.668 0.425,-4.264 0.077,-8.051 0.077,-12.758 -7.89,0.563 -24.028,2.435 -39.118,-1.058 -9.683,-2.242 -19.294,-6.506 -24.25,-15.954 -9.896,-18.866 -0.656,-40.642 19.832,-46.09 13.755,-3.658 27.74,-3.428 41.516,-0.048 15.277,3.749 22.938,12.378 23.618,28.116 0.711,16.393 0.525,32.861 -0.074,49.266"
         style="fill:#28292a;fill-opacity:1;fill-rule:nonzero;stroke:none"
         id="path66"
         inkscape:connector-curvature="0" /></g><g
       id="g68"
       transform="translate(914.75,447.6426)"><path
         d="m 0,0 c -0.419,-6.998 -4.392,-11.859 -11.369,-12.767 -6.751,-0.877 -13.714,-1.22 -20.48,-0.621 -8.887,0.788 -12.976,5.928 -12.894,14.316 0.079,8.131 4.474,12.102 12.957,13.993 10.343,2.305 21.979,1.518 31.846,0.899 C 0.06,9.933 0.303,5.07 0,0 Z m 21.531,47.16 c -0.51,13.995 -8.447,23.002 -21.684,27.145 -8.416,2.633 -16.948,3.635 -25.524,3.635 -12.679,0 -21.97,-2.482 -26.533,-4.052 -4.067,-1.4 -7.259,-5.413 -5.84,-11.082 1.561,-6.229 7.47,-7.541 10.466,-6.758 6.797,1.777 13.694,3 22.761,3 3.298,0 6.6,-0.265 9.909,-0.694 8.992,-1.166 14.11,-5.347 14.844,-12.668 0.425,-4.264 0.077,-8.051 0.077,-12.758 -7.89,0.563 -24.028,2.435 -39.118,-1.058 -9.683,-2.242 -19.294,-6.506 -24.25,-15.954 -9.896,-18.866 -0.656,-40.642 19.832,-46.09 13.755,-3.658 27.74,-3.428 41.516,-0.048 15.277,3.749 22.938,12.378 23.618,28.116 0.711,16.393 0.525,32.861 -0.074,49.266 z"
         style="fill:none;stroke:#171717;stroke-width:0.25;stroke-linecap:butt;stroke-linejoin:miter;stroke-miterlimit:10;stroke-dasharray:none;stroke-opacity:1"
         id="path70"
         inkscape:connector-curvature="0" /></g><g
       id="g72"
       transform="translate(516.7598,447.6426)"><path
         d="m 0,0 c -0.419,-6.998 -4.392,-11.859 -11.369,-12.767 -6.751,-0.877 -13.714,-1.22 -20.479,-0.621 -8.889,0.788 -12.977,5.928 -12.895,14.316 0.079,8.131 4.474,12.102 12.957,13.993 10.343,2.305 21.98,1.518 31.846,0.899 C 0.06,9.933 0.303,5.07 0,0 m 21.531,47.16 c -0.51,13.995 -8.447,23.002 -21.685,27.145 -8.415,2.633 -16.947,3.635 -25.523,3.635 -12.68,0 -21.97,-2.482 -26.532,-4.052 -4.068,-1.4 -7.26,-5.413 -5.84,-11.082 1.559,-6.229 7.468,-7.541 10.465,-6.758 6.796,1.777 13.694,3 22.761,3 3.298,0 6.6,-0.265 9.909,-0.694 8.992,-1.166 14.11,-5.347 14.844,-12.668 0.425,-4.264 0.077,-8.051 0.077,-12.758 -7.89,0.563 -24.028,2.435 -39.118,-1.058 -9.682,-2.242 -19.294,-6.506 -24.25,-15.954 -9.896,-18.866 -0.655,-40.642 19.831,-46.09 13.756,-3.658 27.741,-3.428 41.516,-0.048 15.279,3.749 22.939,12.378 23.62,28.116 0.71,16.393 0.524,32.861 -0.075,49.266"
         style="fill:#28292a;fill-opacity:1;fill-rule:nonzero;stroke:none"
         id="path74"
         inkscape:connector-curvature="0" /></g><g
       id="g76"
       transform="translate(516.7598,447.6426)"><path
         d="m 0,0 c -0.419,-6.998 -4.392,-11.859 -11.369,-12.767 -6.751,-0.877 -13.714,-1.22 -20.479,-0.621 -8.889,0.788 -12.977,5.928 -12.895,14.316 0.079,8.131 4.474,12.102 12.957,13.993 10.343,2.305 21.98,1.518 31.846,0.899 C 0.06,9.933 0.303,5.07 0,0 Z m 21.531,47.16 c -0.51,13.995 -8.447,23.002 -21.685,27.145 -8.415,2.633 -16.947,3.635 -25.523,3.635 -12.68,0 -21.97,-2.482 -26.532,-4.052 -4.068,-1.4 -7.26,-5.413 -5.84,-11.082 1.559,-6.229 7.468,-7.541 10.465,-6.758 6.796,1.777 13.694,3 22.761,3 3.298,0 6.6,-0.265 9.909,-0.694 8.992,-1.166 14.11,-5.347 14.844,-12.668 0.425,-4.264 0.077,-8.051 0.077,-12.758 -7.89,0.563 -24.028,2.435 -39.118,-1.058 -9.682,-2.242 -19.294,-6.506 -24.25,-15.954 -9.896,-18.866 -0.655,-40.642 19.831,-46.09 13.756,-3.658 27.741,-3.428 41.516,-0.048 15.279,3.749 22.939,12.378 23.62,28.116 0.71,16.393 0.524,32.861 -0.075,49.266 z"
         style="fill:none;stroke:#171717;stroke-width:0.25;stroke-linecap:butt;stroke-linejoin:miter;stroke-miterlimit:10;stroke-dasharray:none;stroke-opacity:1"
         id="path78"
         inkscape:connector-curvature="0" /></g><g
       id="g80"
       transform="translate(874.0605,546.3232)"><path
         d="m 0,0 0,0 c -1.791,4.677 0.645,8.047 4.749,10.228 l 25.01,10.279 c 4.678,1.791 9.555,-0.86 11.347,-5.537 C 42.897,10.292 41.464,4.69 36.787,2.899 L 9.979,-4.894 C 5.307,-6.032 1.792,-4.677 0,0"
         style="fill:#28292a;fill-opacity:1;fill-rule:nonzero;stroke:none"
         id="path82"
         inkscape:connector-curvature="0" /></g><g
       id="g84"
       transform="translate(874.0605,546.3232)"><path
         d="m 0,0 0,0 c -1.791,4.677 0.645,8.047 4.749,10.228 l 25.01,10.279 c 4.678,1.791 9.555,-0.86 11.347,-5.537 C 42.897,10.292 41.464,4.69 36.787,2.899 L 9.979,-4.894 C 5.307,-6.032 1.792,-4.677 0,0 Z"
         style="fill:none;stroke:#171717;stroke-width:0.25;stroke-linecap:butt;stroke-linejoin:miter;stroke-miterlimit:10;stroke-dasharray:none;stroke-opacity:1"
         id="path86"
         inkscape:connector-curvature="0" /></g></g></svg>