<?xml version="1.0" encoding="utf-8"?>
<!-- Generator: Adobe Illustrator 21.0.0, SVG Export Plug-In . SVG Version: 6.00 Build 0)  -->
<svg version="1.1" id="Capa_1" xmlns="http://www.w3.org/2000/svg" xmlns:xlink="http://www.w3.org/1999/xlink" x="0px" y="0px"
	 viewBox="0 0 708.7 708.7" style="enable-background:new 0 0 708.7 708.7;" xml:space="preserve">
<style type="text/css">
	.st0{fill:#12235F;}
	.st1{fill:#40BAB3;}
	.st2{fill:#808083;}
</style>
<g>
	<g>
		<path class="st0" d="M491.6,282.4c0-12.4-14.7-23.1-42.4-31.1c-10.6-3.1-22.6-5.6-35.6-7.4l-8.8-31.7c-0.3-1.1-1.1-1.9-2.1-2.3
			c-14.3-5.7-32.3-8.8-50.8-8.8c-18.4,0-36.5,3.1-50.8,8.8c-1,0.4-1.8,1.3-2.1,2.3l-8.8,31.7c-13.1,1.9-25.2,4.4-35.8,7.5
			c-27.6,8-42.2,18.8-42.2,31.1c0,12.9,16.7,24.4,47,32.4c-1.5,6.7-15.3,75.3,49.1,103.9c0,0-0.4-5.8,0.4-12.1c0,0,7,13.5,22.6,22
			c0,0-1.6-6.8-0.3-9c0,0,12.7,12.8,20.8,12.8c8.1,0,20.8-12.8,20.8-12.8c1.3,2.2-0.3,9-0.3,9c15.6-8.6,22.6-22,22.6-22
			c0.9,6.3,0.4,12.1,0.4,12.1c64.4-28.6,50.6-97.2,49.1-103.9C474.9,306.8,491.6,295.3,491.6,282.4z M305.4,215.6
			c13.2-5,29.7-7.7,46.6-7.7l0,0c16.9,0,33.3,2.7,46.6,7.7l7.5,27.2c-16.9-2.1-35.2-3.2-54.1-3.2h-0.5c-18.7,0-36.8,1.1-53.6,3.2
			L305.4,215.6z M418.7,333.2c0,0-9.9-22.6-39.3-22.2c0,0-19.5,0.2-19.5,19.5c0,0-0.7,14.3,19.7,22.4c0,0,14.1,5.5,11.2,22.6
			c0,0-1.6,11-11.9,13.9c0,0-0.2-6.5-5.4-11c0,0-3.6,13.2-10.5,19.3c0,0-3,2.8-10.6,3v0c-0.2,0-0.3,0-0.5,0c-0.2,0-0.3,0-0.5,0v0
			c-7.6-0.2-10.6-3-10.6-3c-6.9-6.1-10.5-19.3-10.5-19.3c-5.2,4.5-5.4,11-5.4,11c-10.3-2.9-11.9-13.9-11.9-13.9
			c-2.9-17.1,11.2-22.6,11.2-22.6c20.4-8.1,19.7-22.4,19.7-22.4c0-19.3-19.5-19.5-19.5-19.5c-29.4-0.4-39.3,22.2-39.3,22.2
			c-9.9-22.6,8.2-33,8.2-33s3.8-3.6,18.4-5.5c0,0,1-0.1,2.8-0.1c3,0,8.2,0.2,14.5,1.9c0,0,6,2,10.3,4.3c0,0,6.1,4.3,12.4,4.2
			c6.3,0,12.4-4.2,12.4-4.2c4.3-2.3,10.3-4.3,10.3-4.3c10.2-2.6,17.3-1.7,17.3-1.7c14.6,1.9,18.4,5.5,18.4,5.5
			S428.7,310.6,418.7,333.2z M385.7,330.7c0,4-2.8,7.2-6.2,7.2c-3.4,0-6.2-3.2-6.2-7.2c0-4,2.8-7.2,6.2-7.2
			C382.9,323.6,385.7,326.8,385.7,330.7z M318.3,330.7c0-4,2.8-7.2,6.2-7.2c3.4,0,6.2,3.2,6.2,7.2c0,4-2.8,7.2-6.2,7.2
			C321.1,337.9,318.3,334.7,318.3,330.7z M445.9,307.3c-0.1-0.4-0.3-0.9-0.5-1.3c7.3-6.3,15.5-18.9-0.6-34.6
			c-13.7-9.9-20.1,0.6-22.7,7.5c-9.7-2.1-30.5-5-70.1-5c-38.7,0-59.4,2.8-69.4,4.9c-2.6-6.9-9-17.2-22.6-7.3
			c-15.7,15.2-8.4,27.6-1.2,34c-0.2,0.6-0.4,1.2-0.6,1.8c-7.5-2.1-14-4.5-19.6-7c-1.1-3.1-4-6.1-4-6.1c-3.1-3.4,0.2-7.6,0.2-7.6
			c5.5-9.9-0.8-14.9-5.4-17.1c9.2-5.9,24.4-11.5,44.2-15.6c2.4,1.7,5.7,4.3,9.6,8.3c6.3,6.5,18.5,3.2,23.2,0
			c4-2.7,13.6-2.4,17.1-0.9c3.6,1.5,12.1,1.4,16-7.8c1.4-3.3,2.1-5.4,2.4-6.9c3.2-0.1,6.4-0.1,9.7-0.1c0,0,0,0,0,0h0.5
			c9.2,0,18,0.3,26.5,0.8c-0.1,5.5,1.8,15.7,17.6,13.2c9.6-1.5,12.8,5.6,18.2,6.4c5,0.7,18.4,0.4,21.9-11.8
			c9.8,2.3,18.3,4.9,25.3,7.7c-2.1,3.7-4.5,10.1,0,13.7c6.7,5.3,11,2.5,10.1,10.2c-0.5,4.2,2.1,6.4,4.6,7.6
			C469.4,299.1,459,303.6,445.9,307.3z"/>
		<path class="st0" d="M352,356.1c0,0-10.3-0.1-14.2,2.7c-5.6,4.1,2.6,14.5,12.4,15.6v9.9l-0.2,0.1c0,0-3.4,2.4-10.6-0.7
			c0,0,3.4,7.7,12.7,3.7c9.3,4,12.7-3.7,12.7-3.7c-7.3,3-10.6,0.7-10.6,0.7l-0.2-0.1v-9.9c9.8-1.2,18-11.5,12.4-15.6
			C362.3,355.9,352,356.1,352,356.1z"/>
	</g>
	<g id="text1490-4_6_" transform="matrix(1.0280607,0,0,1.0280607,-554.98894,-50.622858)">
		<path id="path898-9_6_" class="st0" d="M774,520.4v6.9h-27.6v-43.6h7.9v36.7H774z"/>
		<path id="path900-0_6_" class="st0" d="M809.4,510.8c0,2.6-0.4,5-1.1,7.1c-0.8,2.1-1.8,4-3.2,5.5s-3.1,2.7-5,3.5
			c-1.9,0.8-4.1,1.3-6.4,1.3c-2.3,0-4.5-0.4-6.4-1.3s-3.6-2-5-3.5c-1.4-1.5-2.5-3.3-3.3-5.5c-0.8-2.1-1.1-4.5-1.1-7.1
			c0-2.6,0.4-4.9,1.1-7c0.8-2.1,1.9-4,3.3-5.5c1.4-1.5,3.1-2.7,5-3.5c1.9-0.8,4-1.3,6.4-1.3c2.3,0,4.4,0.4,6.4,1.3
			c2,0.8,3.6,2,5,3.5c1.4,1.5,2.5,3.3,3.2,5.5C809,505.8,809.4,508.2,809.4,510.8L809.4,510.8z M801.6,510.8c0-3.3-0.7-5.9-2.1-7.7
			c-1.4-1.9-3.3-2.9-5.9-2.9s-4.5,1-5.9,2.9c-1.4,1.9-2.1,4.5-2.1,7.7c0,3.3,0.7,5.9,2.1,7.9c1.4,1.9,3.4,2.9,5.9,2.9s4.5-1,5.9-2.9
			C800.9,516.7,801.6,514.1,801.6,510.8z"/>
		<path id="path902-5_6_" sodipodi:nodetypes="ccccccccccccscccccc" class="st0" d="M828.2,505.1l7-10.8h8l-10.8,15.5
			c2.3,2.9,4.4,5.9,6.5,8.9c2.1,3,13.1,18.6,14.4,21.3H845c-6.9-9.4-8.9-13.5-14.9-22.1c-0.8-1.1-1.5-2.1-2.2-3.1
			c-1.5,1.9-2.9,4-4.3,6.3c-1.4,2.3-2.5,4.3-3.5,6h-7.8c0.6-1.3,1.4-2.6,2.3-4c0.9-1.4,1.8-2.9,2.8-4.3c1-1.5,2-3,3.1-4.5
			c1.1-1.5,2.2-2.9,3.2-4.3l-10.9-15.8h8.4L828.2,505.1z"/>
		<path id="path904-7_6_" class="st0" d="M861.2,521.9c2.3,0,4.1-0.1,5.3-0.4v-8.4c-0.4-0.1-1-0.3-1.8-0.4c-0.8-0.1-1.7-0.2-2.6-0.2
			c-0.8,0-1.7,0.1-2.6,0.2c-0.8,0.1-1.6,0.4-2.3,0.7c-0.7,0.3-1.2,0.8-1.6,1.4c-0.4,0.6-0.6,1.3-0.6,2.3c0,1.8,0.6,3.1,1.7,3.8
			C857.8,521.6,859.3,521.9,861.2,521.9L861.2,521.9z M860.6,493.6c2.5,0,4.6,0.3,6.4,0.9c1.7,0.6,3.1,1.5,4.1,2.6
			c1,1.1,1.8,2.5,2.2,4.2c0.5,1.6,0.7,3.4,0.7,5.3v19.9c-1.2,0.3-3,0.5-5.3,0.9c-2.3,0.4-5,0.6-8,0.6c-2,0-3.8-0.2-5.4-0.6
			c-1.6-0.4-3-1-4.2-1.8c-1.1-0.8-2-1.9-2.7-3.3c-0.6-1.3-0.9-3-0.9-5c0-1.9,0.4-3.5,1.1-4.8c0.8-1.3,1.8-2.3,3-3.1
			c1.3-0.8,2.7-1.4,4.3-1.8c1.7-0.4,3.4-0.6,5.2-0.6c0.8,0,1.7,0.1,2.6,0.2c0.9,0.1,1.9,0.3,3,0.5v-1.3c0-0.9-0.1-1.7-0.3-2.5
			c-0.2-0.8-0.6-1.5-1.1-2.1c-0.5-0.6-1.2-1.1-2.1-1.4c-0.8-0.3-1.9-0.5-3.2-0.5c-1.8,0-3.4,0.1-4.8,0.4c-1.5,0.3-2.7,0.5-3.6,0.9
			l-0.9-6.2c1-0.3,2.4-0.7,4.2-1C856.5,493.7,858.5,493.6,860.6,493.6L860.6,493.6z"/>
		<path id="path906-1_6_" class="st1" d="M909.9,520.4v6.9h-27.6v-43.6h7.9v36.7H909.9z"/>
		<path id="path908-5_6_" class="st1" d="M923.3,527.3h-7.6v-32.9h7.6V527.3z M924.1,484.7c0,1.4-0.5,2.6-1.4,3.4s-2,1.3-3.3,1.3
			c-1.3,0-2.4-0.4-3.3-1.3s-1.4-2-1.4-3.4c0-1.5,0.5-2.6,1.4-3.5s2-1.3,3.3-1.3c1.3,0,2.3,0.4,3.3,1.3S924.1,483.3,924.1,484.7z"/>
		<path id="path910-9_6_" class="st1" d="M951.6,510.7c0-3.2-0.7-5.8-2-7.7c-1.3-1.9-3.3-2.8-6-2.8c-1.3,0-2.5,0.2-3.6,0.6
			c-1.1,0.4-2,0.8-2.6,1.3V521c0.5,0.1,1.2,0.3,2.1,0.4c0.9,0.1,1.9,0.1,3.1,0.1c2.8,0,5-0.9,6.6-2.8
			C950.8,516.7,951.6,514.1,951.6,510.7L951.6,510.7z M959.4,510.9c0,2.6-0.4,5-1.2,7.2c-0.8,2.1-1.9,3.9-3.3,5.4
			c-1.4,1.5-3.2,2.7-5.2,3.5c-2.1,0.8-4.4,1.2-7,1.2c-2.5,0-4.9-0.2-7.2-0.6c-2.3-0.4-4.2-0.8-5.7-1.3v-46.6l7.6-1.3v17
			c0.9-0.5,2-0.9,3.2-1.3c1.3-0.4,2.7-0.6,4.3-0.6c2.3,0,4.4,0.4,6.2,1.3c1.8,0.8,3.4,2,4.6,3.5c1.2,1.5,2.1,3.3,2.8,5.5
			C959.1,506,959.4,508.3,959.4,510.9L959.4,510.9z"/>
		<path id="path912-5_6_" class="st1" d="M983.5,501.2c-0.6-0.2-1.5-0.4-2.6-0.6c-1.1-0.3-2.4-0.4-3.8-0.4c-0.8,0-1.7,0.1-2.7,0.3
			c-0.9,0.2-1.6,0.3-2,0.4v26.4h-7.6v-31.3c1.5-0.5,3.3-1,5.5-1.5c2.2-0.5,4.7-0.8,7.4-0.8c0.5,0,1.1,0,1.8,0.1c0.7,0,1.3,0.1,2,0.3
			c0.7,0.1,1.3,0.2,2,0.4c0.6,0.1,1.1,0.3,1.5,0.4L983.5,501.2z"/>
		<path id="path914-6_6_" class="st1" d="M988.3,511c0-2.9,0.4-5.4,1.3-7.6c0.9-2.2,2-4,3.5-5.4c1.4-1.5,3.1-2.6,4.9-3.3
			c1.8-0.8,3.7-1.1,5.7-1.1c4.5,0,8.1,1.4,10.6,4.2c2.6,2.8,3.8,7,3.8,12.6c0,0.4,0,0.9-0.1,1.4c0,0.5,0,1-0.1,1.4h-21.7
			c0.2,2.6,1.1,4.7,2.8,6.2c1.7,1.4,4.1,2.1,7.2,2.1c1.8,0,3.5-0.2,5-0.5c1.6-0.3,2.8-0.7,3.6-1.1l1,6.2c-0.4,0.2-1,0.4-1.8,0.7
			c-0.7,0.2-1.6,0.4-2.5,0.6c-0.9,0.2-1.9,0.4-3,0.5s-2.2,0.2-3.3,0.2c-2.9,0-5.4-0.4-7.5-1.3c-2.1-0.9-3.9-2.1-5.3-3.6
			c-1.4-1.6-2.4-3.4-3.1-5.4C988.7,515.7,988.3,513.5,988.3,511L988.3,511z M1010.4,507.6c0-1-0.1-2-0.4-3c-0.3-1-0.7-1.8-1.3-2.5
			c-0.5-0.7-1.2-1.3-2.1-1.6c-0.8-0.4-1.8-0.6-2.9-0.6c-1.2,0-2.2,0.2-3.1,0.7c-0.9,0.4-1.6,1-2.3,1.7c-0.6,0.7-1,1.5-1.4,2.5
			c-0.3,0.9-0.6,1.9-0.7,2.8H1010.4z"/>
	</g>
	<g>
		<path class="st2" d="M327.2,504.6c-0.5,0-0.9-0.1-1.3-0.2c-0.4-0.2-0.7-0.4-1-0.7s-0.5-0.6-0.6-1.1s-0.2-0.9-0.2-1.5
			c0-0.5,0.1-1,0.3-1.5c0.2-0.4,0.4-0.8,0.7-1.1c0.3-0.3,0.6-0.5,1-0.7s0.8-0.2,1.3-0.2c0.3,0,0.5,0,0.7,0.1s0.4,0.1,0.6,0.1
			c0.2,0,0.3,0.1,0.4,0.2c0.1,0.1,0.2,0.1,0.2,0.1l-0.3,1c-0.2-0.1-0.4-0.2-0.6-0.3c-0.3-0.1-0.6-0.1-0.9-0.1c-0.3,0-0.5,0-0.8,0.1
			c-0.2,0.1-0.5,0.2-0.6,0.4c-0.2,0.2-0.3,0.4-0.4,0.7s-0.2,0.6-0.2,1c0,0.3,0,0.7,0.1,1c0.1,0.3,0.2,0.5,0.4,0.7
			c0.2,0.2,0.4,0.4,0.6,0.5s0.6,0.2,0.9,0.2c0.4,0,0.8,0,1-0.1c0.3-0.1,0.5-0.2,0.6-0.2l0.3,1c-0.1,0-0.2,0.1-0.3,0.2
			c-0.1,0.1-0.3,0.1-0.5,0.1c-0.2,0-0.4,0.1-0.6,0.1S327.5,504.6,327.2,504.6z"/>
		<path class="st2" d="M336.6,501.2c0,0.6-0.1,1.1-0.2,1.5c-0.2,0.4-0.4,0.8-0.7,1.1c-0.3,0.3-0.6,0.5-1,0.6
			c-0.4,0.1-0.8,0.2-1.2,0.2s-0.8-0.1-1.2-0.2s-0.7-0.4-1-0.6c-0.3-0.3-0.5-0.6-0.7-1.1c-0.2-0.4-0.3-0.9-0.3-1.5
			c0-0.6,0.1-1.1,0.3-1.5c0.2-0.4,0.4-0.8,0.7-1.1c0.3-0.3,0.6-0.5,1-0.7c0.4-0.1,0.8-0.2,1.2-0.2c0.4,0,0.8,0.1,1.2,0.2
			s0.7,0.4,1,0.7c0.3,0.3,0.5,0.6,0.7,1.1S336.6,500.6,336.6,501.2z M331.5,501.2c0,0.4,0,0.7,0.1,1c0.1,0.3,0.2,0.5,0.4,0.7
			c0.2,0.2,0.4,0.4,0.6,0.5c0.2,0.1,0.5,0.2,0.8,0.2c0.3,0,0.6-0.1,0.8-0.2c0.2-0.1,0.4-0.3,0.6-0.5s0.3-0.5,0.4-0.7s0.1-0.6,0.1-1
			c0-0.4,0-0.7-0.1-1s-0.2-0.5-0.4-0.7c-0.2-0.2-0.4-0.4-0.6-0.5c-0.2-0.1-0.5-0.2-0.8-0.2c-0.3,0-0.6,0.1-0.8,0.2
			c-0.2,0.1-0.4,0.3-0.6,0.5c-0.2,0.2-0.3,0.5-0.4,0.7C331.5,500.5,331.5,500.8,331.5,501.2z"/>
		<path class="st2" d="M339.6,497.9c0.1,0.2,0.3,0.5,0.5,0.9c0.2,0.3,0.3,0.7,0.5,1.1c0.2,0.4,0.4,0.8,0.5,1.2
			c0.2,0.4,0.3,0.8,0.5,1.1c0.1-0.3,0.3-0.7,0.5-1.1s0.3-0.8,0.5-1.2c0.2-0.4,0.3-0.7,0.5-1.1c0.2-0.3,0.3-0.6,0.5-0.9h1.1
			c0.1,0.5,0.1,1,0.2,1.5c0.1,0.5,0.1,1.1,0.1,1.6s0.1,1.1,0.1,1.7s0.1,1.1,0.1,1.7H344c0-0.8-0.1-1.5-0.1-2.3s-0.1-1.6-0.2-2.3
			c-0.1,0.1-0.2,0.3-0.2,0.5c-0.1,0.2-0.2,0.4-0.3,0.7c-0.1,0.2-0.2,0.5-0.3,0.7c-0.1,0.3-0.2,0.5-0.3,0.7c-0.1,0.2-0.2,0.5-0.3,0.7
			c-0.1,0.2-0.2,0.4-0.2,0.5h-0.9c-0.1-0.1-0.1-0.3-0.2-0.5c-0.1-0.2-0.2-0.4-0.3-0.7s-0.2-0.5-0.3-0.7c-0.1-0.3-0.2-0.5-0.3-0.7
			s-0.2-0.5-0.3-0.7c-0.1-0.2-0.2-0.4-0.2-0.5c-0.1,0.8-0.1,1.5-0.2,2.3s-0.1,1.6-0.1,2.3H338c0-0.5,0.1-1.1,0.1-1.7
			c0-0.6,0.1-1.2,0.1-1.7c0-0.6,0.1-1.1,0.1-1.7c0.1-0.5,0.1-1,0.2-1.5H339.6z"/>
		<path class="st2" d="M349.3,504.6c-0.4,0-0.8-0.1-1.1-0.2c-0.3-0.1-0.6-0.3-0.8-0.5c-0.2-0.2-0.4-0.5-0.5-0.8
			c-0.1-0.3-0.2-0.7-0.2-1v-4.1h1.2v4c0,0.3,0,0.5,0.1,0.8c0.1,0.2,0.2,0.4,0.3,0.5s0.3,0.2,0.4,0.3c0.2,0.1,0.4,0.1,0.6,0.1
			s0.4,0,0.6-0.1c0.2-0.1,0.3-0.2,0.4-0.3c0.1-0.1,0.2-0.3,0.3-0.5c0.1-0.2,0.1-0.5,0.1-0.8v-4h1.2v4.1c0,0.4-0.1,0.7-0.2,1
			c-0.1,0.3-0.3,0.6-0.5,0.8c-0.2,0.2-0.5,0.4-0.8,0.5C350.2,504.5,349.8,504.6,349.3,504.6z"/>
		<path class="st2" d="M358.2,504.4c-0.2-0.4-0.5-0.7-0.7-1.2s-0.5-0.8-0.8-1.2c-0.3-0.4-0.6-0.8-0.9-1.2c-0.3-0.4-0.6-0.7-0.8-1.1
			v4.7h-1.2v-6.5h1c0.3,0.3,0.5,0.6,0.8,0.9c0.3,0.4,0.6,0.7,0.9,1.1c0.3,0.4,0.6,0.8,0.8,1.2c0.3,0.4,0.5,0.8,0.7,1.1v-4.3h1.2v6.5
			H358.2z"/>
		<path class="st2" d="M361.1,497.9h1.2v6.5h-1.2V497.9z"/>
		<path class="st2" d="M369.7,501.2c0,0.6-0.1,1.1-0.3,1.5c-0.2,0.4-0.4,0.8-0.7,1s-0.7,0.5-1.2,0.6c-0.5,0.1-1,0.2-1.5,0.2
			c-0.3,0-0.6,0-0.9,0c-0.3,0-0.7-0.1-1-0.1V498c0.3-0.1,0.6-0.1,1-0.1s0.6,0,0.9,0c0.5,0,1,0.1,1.5,0.2s0.8,0.3,1.2,0.6
			s0.6,0.6,0.7,1S369.7,500.6,369.7,501.2z M365.3,503.4c0.1,0,0.2,0,0.3,0c0.1,0,0.3,0,0.5,0c0.8,0,1.4-0.2,1.8-0.6
			c0.4-0.4,0.6-1,0.6-1.7c0-0.7-0.2-1.3-0.6-1.7s-1-0.6-1.8-0.6c-0.4,0-0.6,0-0.8,0V503.4z"/>
		<path class="st2" d="M375.5,504.4c-0.1-0.3-0.2-0.5-0.3-0.8s-0.2-0.5-0.3-0.8h-2.8c-0.1,0.3-0.2,0.5-0.3,0.8
			c-0.1,0.3-0.2,0.5-0.3,0.8h-1.2c0.2-0.7,0.5-1.3,0.7-1.9s0.4-1.1,0.6-1.7s0.4-1,0.6-1.5c0.2-0.5,0.4-0.9,0.6-1.4h1.1
			c0.2,0.5,0.4,0.9,0.6,1.4c0.2,0.5,0.4,1,0.6,1.5c0.2,0.5,0.4,1.1,0.7,1.7c0.2,0.6,0.5,1.2,0.7,1.9H375.5z M373.5,499.2
			c-0.1,0.3-0.3,0.7-0.5,1.2c-0.2,0.5-0.4,1-0.6,1.6h2.1c-0.2-0.6-0.4-1.1-0.6-1.6C373.8,499.9,373.7,499.5,373.5,499.2z"/>
		<path class="st2" d="M383.4,501.2c0,0.6-0.1,1.1-0.3,1.5c-0.2,0.4-0.4,0.8-0.7,1s-0.7,0.5-1.2,0.6c-0.5,0.1-1,0.2-1.5,0.2
			c-0.3,0-0.6,0-0.9,0c-0.3,0-0.7-0.1-1-0.1V498c0.3-0.1,0.6-0.1,1-0.1s0.6,0,0.9,0c0.5,0,1,0.1,1.5,0.2s0.8,0.3,1.2,0.6
			s0.6,0.6,0.7,1S383.4,500.6,383.4,501.2z M379.1,503.4c0.1,0,0.2,0,0.3,0c0.1,0,0.3,0,0.5,0c0.8,0,1.4-0.2,1.8-0.6
			c0.4-0.4,0.6-1,0.6-1.7c0-0.7-0.2-1.3-0.6-1.7s-1-0.6-1.8-0.6c-0.4,0-0.6,0-0.8,0V503.4z"/>
		<path class="st2" d="M395.6,501.2c0,0.6-0.1,1.1-0.3,1.5c-0.2,0.4-0.4,0.8-0.7,1s-0.7,0.5-1.2,0.6c-0.5,0.1-1,0.2-1.5,0.2
			c-0.3,0-0.6,0-0.9,0c-0.3,0-0.7-0.1-1-0.1V498c0.3-0.1,0.6-0.1,1-0.1s0.6,0,0.9,0c0.5,0,1,0.1,1.5,0.2s0.8,0.3,1.2,0.6
			s0.6,0.6,0.7,1S395.6,500.6,395.6,501.2z M391.3,503.4c0.1,0,0.2,0,0.3,0c0.1,0,0.3,0,0.5,0c0.8,0,1.4-0.2,1.8-0.6
			c0.4-0.4,0.6-1,0.6-1.7c0-0.7-0.2-1.3-0.6-1.7s-1-0.6-1.8-0.6c-0.4,0-0.6,0-0.8,0V503.4z"/>
		<path class="st2" d="M397.2,504.4v-6.5h4.2v1h-3v1.6h2.7v1h-2.7v1.9h3.2v1H397.2z"/>
		<path class="st2" d="M409.7,503.5c0.4,0,0.7-0.1,0.9-0.2c0.2-0.1,0.3-0.3,0.3-0.6c0-0.2,0-0.3-0.1-0.4c-0.1-0.1-0.2-0.2-0.3-0.3
			c-0.1-0.1-0.3-0.2-0.4-0.3c-0.2-0.1-0.4-0.2-0.6-0.2c-0.2-0.1-0.4-0.2-0.7-0.3c-0.2-0.1-0.4-0.2-0.6-0.4s-0.3-0.3-0.4-0.5
			c-0.1-0.2-0.1-0.4-0.1-0.7c0-0.6,0.2-1.1,0.6-1.4s1-0.5,1.7-0.5c0.4,0,0.8,0,1.1,0.1s0.6,0.2,0.7,0.3l-0.4,1
			c-0.2-0.1-0.4-0.2-0.7-0.3c-0.3-0.1-0.5-0.1-0.8-0.1c-0.3,0-0.6,0.1-0.7,0.2s-0.3,0.3-0.3,0.6c0,0.1,0,0.3,0.1,0.4
			s0.1,0.2,0.3,0.3c0.1,0.1,0.2,0.2,0.4,0.2s0.3,0.1,0.5,0.2c0.3,0.1,0.6,0.2,0.8,0.3c0.2,0.1,0.4,0.3,0.6,0.4s0.3,0.3,0.4,0.6
			c0.1,0.2,0.1,0.5,0.1,0.8c0,0.6-0.2,1-0.6,1.4c-0.4,0.3-1,0.5-1.8,0.5c-0.3,0-0.5,0-0.7-0.1c-0.2,0-0.4-0.1-0.6-0.1
			c-0.2,0-0.3-0.1-0.4-0.2c-0.1-0.1-0.2-0.1-0.3-0.1l0.3-1c0.2,0.1,0.4,0.2,0.7,0.3C408.9,503.5,409.3,503.5,409.7,503.5z"/>
		<path class="st2" d="M419.6,501.2c0,0.6-0.1,1.1-0.2,1.5c-0.2,0.4-0.4,0.8-0.7,1.1c-0.3,0.3-0.6,0.5-1,0.6s-0.8,0.2-1.2,0.2
			c-0.4,0-0.8-0.1-1.2-0.2s-0.7-0.4-1-0.6c-0.3-0.3-0.5-0.6-0.7-1.1c-0.2-0.4-0.3-0.9-0.3-1.5c0-0.6,0.1-1.1,0.3-1.5
			c0.2-0.4,0.4-0.8,0.7-1.1c0.3-0.3,0.6-0.5,1-0.7s0.8-0.2,1.2-0.2c0.4,0,0.8,0.1,1.2,0.2c0.4,0.1,0.7,0.4,1,0.7
			c0.3,0.3,0.5,0.6,0.7,1.1C419.5,500.1,419.6,500.6,419.6,501.2z M414.5,501.2c0,0.4,0,0.7,0.1,1s0.2,0.5,0.4,0.7
			c0.2,0.2,0.4,0.4,0.6,0.5c0.2,0.1,0.5,0.2,0.8,0.2c0.3,0,0.6-0.1,0.8-0.2c0.2-0.1,0.4-0.3,0.6-0.5c0.2-0.2,0.3-0.5,0.4-0.7
			s0.1-0.6,0.1-1c0-0.4,0-0.7-0.1-1s-0.2-0.5-0.4-0.7c-0.2-0.2-0.4-0.4-0.6-0.5c-0.2-0.1-0.5-0.2-0.8-0.2c-0.3,0-0.6,0.1-0.8,0.2
			c-0.2,0.1-0.4,0.3-0.6,0.5c-0.2,0.2-0.3,0.5-0.4,0.7C414.5,500.5,414.5,500.8,414.5,501.2z"/>
		<path class="st2" d="M421.2,504.4v-6.5h4.1v1h-2.9v1.7h2.6v1h-2.6v2.8H421.2z"/>
		<path class="st2" d="M431.4,497.9v1h-2v5.5h-1.2v-5.5h-2v-1H431.4z"/>
		<path class="st2" d="M436.9,498.6c0.1,0.3,0.2,0.7,0.3,1.1c0.1,0.4,0.2,0.7,0.4,1.1s0.2,0.7,0.4,1.1c0.1,0.4,0.2,0.7,0.4,1
			c0.1-0.3,0.2-0.7,0.3-1.1c0.1-0.4,0.2-0.8,0.3-1.2c0.1-0.4,0.2-0.9,0.3-1.3c0.1-0.4,0.2-0.9,0.2-1.3h1.2c-0.2,1.2-0.5,2.3-0.7,3.4
			c-0.3,1.1-0.6,2.1-0.9,3.1h-1.1c-0.5-1.3-1-2.7-1.4-4.2c-0.2,0.8-0.5,1.5-0.7,2.2c-0.2,0.7-0.5,1.3-0.7,2h-1.1
			c-0.3-1-0.6-2-0.9-3.1c-0.3-1.1-0.5-2.2-0.7-3.4h1.3c0.1,0.4,0.2,0.9,0.2,1.3c0.1,0.4,0.2,0.9,0.3,1.3c0.1,0.4,0.2,0.8,0.3,1.2
			c0.1,0.4,0.2,0.8,0.3,1.1c0.1-0.3,0.2-0.7,0.4-1c0.1-0.4,0.2-0.7,0.4-1.1c0.1-0.4,0.2-0.7,0.3-1.1c0.1-0.4,0.2-0.7,0.3-1.1H436.9z
			"/>
		<path class="st2" d="M446.1,504.4c-0.1-0.3-0.2-0.5-0.3-0.8s-0.2-0.5-0.3-0.8h-2.8c-0.1,0.3-0.2,0.5-0.3,0.8
			c-0.1,0.3-0.2,0.5-0.3,0.8H441c0.2-0.7,0.5-1.3,0.7-1.9s0.4-1.1,0.6-1.7s0.4-1,0.6-1.5c0.2-0.5,0.4-0.9,0.6-1.4h1.1
			c0.2,0.5,0.4,0.9,0.6,1.4c0.2,0.5,0.4,1,0.6,1.5c0.2,0.5,0.4,1.1,0.7,1.7c0.2,0.6,0.5,1.2,0.7,1.9H446.1z M444.2,499.2
			c-0.1,0.3-0.3,0.7-0.5,1.2c-0.2,0.5-0.4,1-0.6,1.6h2.1c-0.2-0.6-0.4-1.1-0.6-1.6C444.5,499.9,444.3,499.5,444.2,499.2z"/>
		<path class="st2" d="M450.3,497.8c0.9,0,1.7,0.2,2.2,0.5c0.5,0.3,0.7,0.9,0.7,1.6c0,0.9-0.4,1.5-1.3,1.8c0.1,0.1,0.3,0.3,0.4,0.5
			c0.2,0.2,0.3,0.4,0.5,0.7c0.2,0.2,0.3,0.5,0.5,0.7c0.1,0.3,0.3,0.5,0.4,0.7h-1.3c-0.1-0.2-0.2-0.5-0.4-0.7
			c-0.1-0.2-0.3-0.5-0.4-0.7c-0.1-0.2-0.3-0.4-0.4-0.6s-0.3-0.4-0.4-0.5c-0.1,0-0.2,0-0.2,0s-0.1,0-0.2,0h-0.6v2.5h-1.2V498
			c0.3-0.1,0.6-0.1,0.9-0.1C449.7,497.8,450,497.8,450.3,497.8z M450.4,498.9c-0.3,0-0.5,0-0.7,0v2.1h0.5c0.3,0,0.5,0,0.8,0
			c0.2,0,0.4-0.1,0.6-0.2c0.1-0.1,0.3-0.2,0.3-0.3c0.1-0.1,0.1-0.3,0.1-0.5c0-0.2,0-0.4-0.1-0.5c-0.1-0.1-0.2-0.2-0.3-0.3
			c-0.1-0.1-0.3-0.1-0.5-0.2C450.8,498.9,450.6,498.9,450.4,498.9z"/>
		<path class="st2" d="M454.8,504.4v-6.5h4.2v1h-3v1.6h2.7v1H456v1.9h3.2v1H454.8z"/>
		<path class="st2" d="M469.8,503.4v1h-4.1v-6.5h1.2v5.5H469.8z"/>
		<path class="st2" d="M471.1,497.9h1.2v6.5h-1.2V497.9z"/>
		<path class="st2" d="M476.1,504.5c-0.3,0-0.7,0-1,0c-0.4,0-0.7-0.1-0.9-0.1V498c0.1,0,0.3,0,0.4-0.1c0.2,0,0.3,0,0.5-0.1
			c0.2,0,0.3,0,0.5,0c0.2,0,0.3,0,0.5,0c0.4,0,0.8,0,1.1,0.1c0.3,0.1,0.6,0.2,0.9,0.3c0.2,0.1,0.4,0.3,0.6,0.5
			c0.1,0.2,0.2,0.5,0.2,0.8c0,0.3-0.1,0.6-0.2,0.8s-0.4,0.4-0.6,0.5c0.4,0.1,0.7,0.3,0.9,0.6c0.2,0.3,0.3,0.6,0.3,1
			c0,0.7-0.2,1.2-0.7,1.5S477.1,504.5,476.1,504.5z M475.3,500.6h0.8c0.5,0,0.8-0.1,1.1-0.2c0.3-0.1,0.4-0.4,0.4-0.7
			c0-0.3-0.1-0.5-0.4-0.7s-0.6-0.2-1-0.2c-0.2,0-0.3,0-0.5,0c-0.1,0-0.3,0-0.4,0V500.6z M475.3,501.5v2c0.1,0,0.3,0,0.4,0
			c0.2,0,0.3,0,0.4,0c0.2,0,0.5,0,0.7,0c0.2,0,0.4-0.1,0.5-0.2c0.2-0.1,0.3-0.2,0.4-0.3s0.1-0.3,0.1-0.5c0-0.4-0.1-0.6-0.4-0.8
			c-0.3-0.1-0.6-0.2-1.1-0.2H475.3z"/>
		<path class="st2" d="M482.4,497.8c0.9,0,1.7,0.2,2.2,0.5c0.5,0.3,0.7,0.9,0.7,1.6c0,0.9-0.4,1.5-1.3,1.8c0.1,0.1,0.3,0.3,0.4,0.5
			c0.2,0.2,0.3,0.4,0.5,0.7c0.2,0.2,0.3,0.5,0.5,0.7c0.1,0.3,0.3,0.5,0.4,0.7h-1.3c-0.1-0.2-0.2-0.5-0.4-0.7
			c-0.1-0.2-0.3-0.5-0.4-0.7c-0.1-0.2-0.3-0.4-0.4-0.6s-0.3-0.4-0.4-0.5c-0.1,0-0.2,0-0.2,0s-0.1,0-0.2,0h-0.6v2.5h-1.2V498
			c0.3-0.1,0.6-0.1,0.9-0.1C481.9,497.8,482.2,497.8,482.4,497.8z M482.5,498.9c-0.3,0-0.5,0-0.7,0v2.1h0.5c0.3,0,0.5,0,0.8,0
			c0.2,0,0.4-0.1,0.6-0.2c0.1-0.1,0.3-0.2,0.3-0.3c0.1-0.1,0.1-0.3,0.1-0.5c0-0.2,0-0.4-0.1-0.5c-0.1-0.1-0.2-0.2-0.3-0.3
			c-0.1-0.1-0.3-0.1-0.5-0.2C483,498.9,482.8,498.9,482.5,498.9z"/>
		<path class="st2" d="M487,504.4v-6.5h4.2v1h-3v1.6h2.7v1h-2.7v1.9h3.2v1H487z"/>
	</g>
</g>
</svg>
