<?xml version="1.0" encoding="UTF-8" standalone="no"?>
<svg
   xmlns:dc="http://purl.org/dc/elements/1.1/"
   xmlns:cc="http://creativecommons.org/ns#"
   xmlns:rdf="http://www.w3.org/1999/02/22-rdf-syntax-ns#"
   xmlns:svg="http://www.w3.org/2000/svg"
   xmlns="http://www.w3.org/2000/svg"
   xmlns:sodipodi="http://sodipodi.sourceforge.net/DTD/sodipodi-0.dtd"
   xmlns:inkscape="http://www.inkscape.org/namespaces/inkscape"
   width="210mm"
   height="166mm"
   viewBox="0 0 744.09449 588.18873"
   id="svg2"
   version="1.1"
   inkscape:version="1.0.2 (1.0.2+r75+1)"
   sodipodi:docname="Logo-varios.svg"
   inkscape:export-filename="/home/juank/Escritorio/libretec"
   inkscape:export-xdpi="90"
   inkscape:export-ydpi="90">
  <defs
     id="defs4" />
  <sodipodi:namedview
     id="base"
     pagecolor="#ffffff"
     bordercolor="#666666"
     borderopacity="1.0"
     inkscape:pageopacity="0.0"
     inkscape:pageshadow="2"
     inkscape:zoom="0.31726181"
     inkscape:cx="-12.395053"
     inkscape:cy="568.90551"
     inkscape:document-units="px"
     inkscape:current-layer="layer1"
     showgrid="false"
     inkscape:window-width="1600"
     inkscape:window-height="796"
     inkscape:window-x="1920"
     inkscape:window-y="27"
     inkscape:window-maximized="1"
     inkscape:snap-bbox="true"
     inkscape:object-paths="true"
     inkscape:object-nodes="false"
     inkscape:snap-intersection-paths="true"
     inkscape:document-rotation="0" />
  <metadata
     id="metadata7">
    <rdf:RDF>
      <cc:Work
         rdf:about="">
        <dc:format>image/svg+xml</dc:format>
        <dc:type
           rdf:resource="http://purl.org/dc/dcmitype/StillImage" />
        <dc:title />
      </cc:Work>
    </rdf:RDF>
  </metadata>
  <g
     inkscape:label="Capa 1"
     inkscape:groupmode="layer"
     id="layer1"
     transform="translate(0,-464.17353)">
    <g
       id="g1062"
       transform="translate(2.7228013)">
      <g
         style="font-style:normal;font-variant:normal;font-weight:600;font-stretch:normal;font-size:110.842px;line-height:125%;font-family:FreeSans;-inkscape-font-specification:'FreeSans Semi-Bold';letter-spacing:0px;word-spacing:0px;fill:#000000;fill-opacity:1;stroke:none;stroke-width:1px;stroke-linecap:butt;stroke-linejoin:miter;stroke-opacity:1"
         id="text3336">
        <path
           d="m 117.79674,833.94122 v 66.94868 h 38.68393 v 13.85528 h -55.31025 v -80.80396 z"
           id="path4263" />
        <path
           d="m 186.42365,833.94122 v 80.80396 h -16.62633 v -80.80396 z"
           id="path4265" />
        <path
           d="m 268.95086,891.46832 q 0,3.99032 -1.33011,7.75895 -1.33011,3.76864 -4.32285,7.42643 -2.88189,3.65779 -8.75653,5.87463 -5.87464,2.21685 -13.96612,2.21685 h -36.35624 v -80.80396 h 36.02372 q 7.53727,0 12.96853,2.21684 5.54211,2.21685 8.20233,5.7638 2.77105,3.43611 3.99032,6.76137 1.21926,3.32527 1.21926,6.53969 0,5.20958 -2.54937,8.97822 -2.54937,3.76863 -8.53485,7.64811 13.41191,7.8698 13.41191,19.61907 z m -48.10552,-43.67183 v 18.28897 h 18.06728 q 11.74927,0 11.74927,-9.08906 0,-9.19991 -11.74927,-9.19991 z m 0,32.14424 v 20.94917 h 19.84076 q 12.30348,0 12.30348,-10.41916 0,-10.53001 -12.30348,-10.53001 z"
           id="path4267" />
        <path
           d="m 327.93277,900.8899 q 0,-3.32526 0.11084,-5.20958 0.11084,-1.88432 0.11084,-3.32526 0,-5.09875 -2.43853,-7.31559 -2.43852,-2.32769 -7.86979,-2.32769 h -19.06486 v 32.0334 h -16.62633 v -80.80396 h 43.3393 q 6.20716,0 10.64085,2.106 4.54453,2.106 6.76137,5.54211 2.32769,3.43611 3.32527,6.98306 0.99758,3.43611 0.99758,7.20474 0,14.63117 -13.63359,19.9516 2.99274,1.21926 4.43369,1.99516 1.44095,0.66505 2.8819,2.32768 1.55179,1.66263 1.99515,2.99274 0.55422,1.33011 0.99758,4.87706 0.55422,3.54695 0.66506,6.98306 0.11084,3.4361 0.22168,10.19748 0,4.65537 3.54695,6.65053 v 2.99274 h -17.84559 q -1.55179,-2.8819 -2.106,-5.54211 -0.44337,-2.66021 -0.44337,-8.31317 z m 2.66021,-42.78508 q 0,-6.20717 -2.8819,-8.20233 -2.88189,-2.106 -8.86737,-2.106 h -20.06244 v 21.06002 h 20.06244 q 5.87463,0 8.75653,-2.106 2.99274,-2.106 2.99274,-8.64569 z"
           id="path4269" />
        <path
           d="m 378.88207,879.94073 v 20.94917 h 43.78267 v 13.85528 h -60.409 v -80.80396 h 58.41384 v 13.85527 h -41.78751 v 18.28897 H 417.566 v 13.85527 z"
           id="path4271" />
        <path
           d="m 471.44223,847.79649 v 66.94869 H 454.8159 v -66.94869 h -24.49613 v -13.85527 h 64.73184 v 13.85527 z"
           id="path4273" />
        <path
           d="m 523.9295,879.94073 v 20.94917 h 43.78266 v 13.85528 H 507.30317 V 833.94122 H 565.717 v 13.85527 h -41.7875 v 18.28897 h 38.68392 v 13.85527 z"
           id="path4275" />
        <path
           d="m 631.3425,861.31924 q -3.10358,-14.52033 -17.29138,-14.52033 -9.86495,0 -15.40706,7.53727 -5.54211,7.53727 -5.54211,20.94918 0,13.19022 5.32042,20.61665 5.43127,7.42642 15.07454,7.42642 7.75896,0 12.41433,-4.212 4.65537,-4.212 5.43126,-11.97096 h 16.18296 q -0.77589,13.85528 -10.08663,22.0576 -9.31075,8.09148 -24.38529,8.09148 -16.84801,0 -26.71297,-11.30591 -9.86495,-11.41674 -9.86495,-30.92497 0,-19.61907 9.9758,-31.03581 9.97579,-11.41675 27.04549,-11.41675 14.29864,0 23.3877,7.64811 9.19991,7.64812 10.30833,21.06002 z"
           id="path4277" />
      </g>
      <path
         style="fill:none;stroke:#008000;stroke-width:7.12113;stroke-linecap:round;stroke-linejoin:round;stroke-miterlimit:4;stroke-dasharray:none"
         d="m 372.09372,535.05186 c -62.58887,0 -115.48447,46.38821 -123.65396,108.44161 -6.85765,52.08893 19.62647,101.67257 64.06745,125.83511 l 0.0701,10.35677 -27.39332,0.1497 -2.21643,2.35485 m -14.83217,13.98308 -20.91408,20.04227 h -44.85084 l -3.3843,-3.24579 m -13.57382,-13.98935 -1.70676,-1.42975 h -48.13428"
         id="path3335"
         inkscape:connector-curvature="0"
         sodipodi:nodetypes="csccccccccccc" />
      <path
         style="fill:none;stroke:#008000;stroke-width:7.12113;stroke-linecap:round;stroke-linejoin:round;stroke-miterlimit:4;stroke-dasharray:none"
         d="m 372.74118,701.35468 h -33.25474 v 23.07415 h 18.22907 v 91.78642 h -92.37155 l -2.11382,-2.25234 m -14.33562,-14.1971 -2.21544,-2.21545 H 216.89647 L 199.1193,779.7732 h -37.95141 m 211.5733,-88.01292 -20.18021,-58.7524 -23.47617,-68.34571 -23.47618,68.34571 -23.474,68.3468 h 34.12986 v 41.2802 h 17.75116 v 54.91548 H 283.9386 L 266.16144,779.7732 h -48.10561 l -2.68539,2.68539 m -13.43531,13.43532 -20.32135,20.32134 h -72.01629"
         id="path3358"
         inkscape:connector-curvature="0"
         sodipodi:nodetypes="cccccccccccccccccccccccccccc" />
      <path
         style="fill:#008000;stroke:none;stroke-width:9;stroke-miterlimit:4;stroke-dasharray:none"
         d="m 153.80576,772.19097 a 7.5822248,7.5822248 0 0 0 -7.5832,7.5832 7.5822248,7.5822248 0 0 0 7.5832,7.58165 7.5822248,7.5822248 0 0 0 7.58165,-7.58165 7.5822248,7.5822248 0 0 0 -7.58165,-7.5832 z m 0,4.99158 a 2.591393,2.591393 0 0 1 2.59161,2.59162 2.591393,2.591393 0 0 1 -2.59161,2.59161 2.591393,2.591393 0 0 1 -2.59161,-2.59161 2.591393,2.591393 0 0 1 2.59161,-2.59162 z"
         id="path4169"
         inkscape:connector-curvature="0" />
      <path
         inkscape:connector-curvature="0"
         id="path4174"
         d="m 103.44892,808.63302 a 7.5822248,7.5822248 0 0 0 -7.583204,7.5832 7.5822248,7.5822248 0 0 0 7.583204,7.58165 7.5822248,7.5822248 0 0 0 7.58165,-7.58165 7.5822248,7.5822248 0 0 0 -7.58165,-7.5832 z m 0,4.99158 a 2.591393,2.591393 0 0 1 2.59161,2.59162 2.591393,2.591393 0 0 1 -2.59161,2.59161 2.591393,2.591393 0 0 1 -2.59161,-2.59161 2.591393,2.591393 0 0 1 2.59161,-2.59162 z"
         style="fill:#008000;stroke:none;stroke-width:9;stroke-miterlimit:4;stroke-dasharray:none" />
      <path
         style="fill:#008000;stroke:none;stroke-width:9;stroke-miterlimit:4;stroke-dasharray:none"
         d="m 128.62734,789.96814 a 7.5822248,7.5822248 0 0 0 -7.5832,7.58319 7.5822248,7.5822248 0 0 0 7.5832,7.58166 7.5822248,7.5822248 0 0 0 7.58165,-7.58166 7.5822248,7.5822248 0 0 0 -7.58165,-7.58319 z m 0,4.99158 a 2.591393,2.591393 0 0 1 2.5916,2.59161 2.591393,2.591393 0 0 1 -2.5916,2.59162 2.591393,2.591393 0 0 1 -2.59161,-2.59162 2.591393,2.591393 0 0 1 2.59161,-2.59161 z"
         id="path4176"
         inkscape:connector-curvature="0" />
      <path
         sodipodi:nodetypes="csccccccccccc"
         inkscape:connector-curvature="0"
         id="path4188"
         d="m 375.65697,535.05186 c 62.58886,0 115.48447,46.38821 123.65396,108.44161 6.85764,52.08893 -19.62647,101.67257 -64.06745,125.83511 l -0.0701,10.35677 27.39332,0.1497 2.21642,2.35485 m 14.83218,13.98308 20.91407,20.04227 h 44.85084 l 3.38431,-3.24579 m 13.57382,-13.98935 1.70676,-1.42975 h 48.13428"
         style="fill:none;stroke:#008000;stroke-width:7.12113;stroke-linecap:round;stroke-linejoin:round;stroke-miterlimit:4;stroke-dasharray:none" />
      <path
         sodipodi:nodetypes="cccccccccccccccccccccccccccc"
         inkscape:connector-curvature="0"
         id="path4190"
         d="m 375.00951,701.35468 h 33.25473 v 23.07415 h -18.22907 v 91.78642 h 92.37155 l 2.11382,-2.25234 m 14.33562,-14.1971 2.21544,-2.21545 h 29.78261 l 17.77717,-17.77716 h 37.95141 m -211.57329,-88.01292 20.18021,-58.7524 23.47616,-68.34571 23.47618,68.34571 23.474,68.3468 h -34.12986 v 41.2802 h -17.75116 v 54.91548 h 50.07705 l 17.77716,-17.77716 h 48.10562 l 2.68539,2.68539 m 13.43531,13.43532 20.32135,20.32134 h 72.01629"
         style="fill:none;stroke:#008000;stroke-width:7.12113;stroke-linecap:round;stroke-linejoin:round;stroke-miterlimit:4;stroke-dasharray:none" />
      <path
         inkscape:connector-curvature="0"
         id="path4192"
         d="m 593.94493,772.19097 a 7.5822248,7.5822248 0 0 1 7.58319,7.5832 7.5822248,7.5822248 0 0 1 -7.58319,7.58165 7.5822248,7.5822248 0 0 1 -7.58166,-7.58165 7.5822248,7.5822248 0 0 1 7.58166,-7.5832 z m 0,4.99158 a 2.591393,2.591393 0 0 0 -2.59162,2.59162 2.591393,2.591393 0 0 0 2.59162,2.59161 2.591393,2.591393 0 0 0 2.5916,-2.59161 2.591393,2.591393 0 0 0 -2.5916,-2.59162 z"
         style="fill:#008000;stroke:none;stroke-width:9;stroke-miterlimit:4;stroke-dasharray:none" />
      <path
         style="fill:#008000;stroke:none;stroke-width:9;stroke-miterlimit:4;stroke-dasharray:none"
         d="m 644.30177,808.63302 a 7.5822248,7.5822248 0 0 1 7.5832,7.5832 7.5822248,7.5822248 0 0 1 -7.5832,7.58165 7.5822248,7.5822248 0 0 1 -7.58165,-7.58165 7.5822248,7.5822248 0 0 1 7.58165,-7.5832 z m 0,4.99158 a 2.591393,2.591393 0 0 0 -2.59161,2.59162 2.591393,2.591393 0 0 0 2.59161,2.59161 2.591393,2.591393 0 0 0 2.59161,-2.59161 2.591393,2.591393 0 0 0 -2.59161,-2.59162 z"
         id="path4194"
         inkscape:connector-curvature="0" />
      <path
         inkscape:connector-curvature="0"
         id="path4196"
         d="m 619.12334,789.96814 a 7.5822248,7.5822248 0 0 1 7.58321,7.58319 7.5822248,7.5822248 0 0 1 -7.58321,7.58166 7.5822248,7.5822248 0 0 1 -7.58164,-7.58166 7.5822248,7.5822248 0 0 1 7.58164,-7.58319 z m 0,4.99158 a 2.591393,2.591393 0 0 0 -2.5916,2.59161 2.591393,2.591393 0 0 0 2.5916,2.59162 2.591393,2.591393 0 0 0 2.59162,-2.59162 2.591393,2.591393 0 0 0 -2.59162,-2.59161 z"
         style="fill:#008000;stroke:none;stroke-width:9;stroke-miterlimit:4;stroke-dasharray:none" />
      <g
         style="font-style:normal;font-variant:normal;font-weight:600;font-stretch:normal;font-size:24.1611px;line-height:125%;font-family:FreeSans;-inkscape-font-specification:'FreeSans Semi-Bold';text-align:center;letter-spacing:0px;word-spacing:0px;text-anchor:middle;fill:#008000;fill-opacity:1;stroke:none;stroke-width:1px;stroke-linecap:butt;stroke-linejoin:miter;stroke-opacity:1"
         id="text4198">
        <path
           d="m 107.80742,931.37377 q -0.67651,-3.16511 -3.76913,-3.16511 -2.15033,0 -3.35839,1.64296 -1.208051,1.64295 -1.208051,4.56644 0,2.87517 1.159731,4.49396 1.18389,1.6188 3.28591,1.6188 1.69127,0 2.70604,-0.91812 1.01477,-0.91813 1.18389,-2.6094 h 3.52752 q -0.16913,3.02013 -2.19866,4.80805 -2.02953,1.76376 -5.31544,1.76376 -3.67248,0 -5.822817,-2.46443 -2.150337,-2.48859 -2.150337,-6.74094 0,-4.27651 2.174498,-6.7651 2.174496,-2.4886 5.895306,-2.4886 3.11678,0 5.09799,1.66712 2.00537,1.66711 2.24698,4.59061 z"
           id="path4280" />
        <path
           d="m 115.58012,940.98988 q -2.31946,-2.58524 -2.31946,-6.6443 0,-4.05906 2.31946,-6.6443 2.34363,-2.58524 6.13692,-2.58524 3.81745,0 6.16107,2.58524 2.34363,2.56108 2.34363,6.7651 0,3.9141 -2.31946,6.5235 -2.29531,2.58523 -6.16108,2.58523 -3.84161,0 -6.16108,-2.58523 z m 6.16108,-12.78122 q -2.19866,0 -3.52752,1.69128 -1.32886,1.66711 -1.32886,4.44564 0,2.77852 1.32886,4.4698 1.32886,1.66712 3.52752,1.66712 2.1745,0 3.50336,-1.66712 1.35302,-1.66711 1.35302,-4.37316 0,-2.851 -1.32886,-4.54228 -1.3047,-1.69128 -3.52752,-1.69128 z"
           id="path4282" />
        <path
           d="m 134.45597,940.98988 q -2.31947,-2.58524 -2.31947,-6.6443 0,-4.05906 2.31947,-6.6443 2.34362,-2.58524 6.13691,-2.58524 3.81746,0 6.16108,2.58524 2.34363,2.56108 2.34363,6.7651 0,3.9141 -2.31947,6.5235 -2.2953,2.58523 -6.16107,2.58523 -3.84162,0 -6.16108,-2.58523 z m 6.16108,-12.78122 q -2.19866,0 -3.52752,1.69128 -1.32886,1.66711 -1.32886,4.44564 0,2.77852 1.32886,4.4698 1.32886,1.66712 3.52752,1.66712 2.17449,0 3.50335,-1.66712 1.35302,-1.66711 1.35302,-4.37316 0,-2.851 -1.32886,-4.54228 -1.30469,-1.69128 -3.52751,-1.69128 z"
           id="path4284" />
        <path
           d="m 155.60296,936.73753 v 6.28188 h -3.62416 v -17.61343 h 7.77987 q 2.75436,0 4.20403,1.40134 1.47382,1.40134 1.47382,4.05906 0,2.68188 -1.44966,4.27651 -1.44967,1.59464 -3.86578,1.59464 z m 0,-3.02014 h 3.38255 q 2.82685,0 2.82685,-2.63356 0,-1.35302 -0.70067,-2.00537 -0.67651,-0.65235 -2.12618,-0.65235 h -3.38255 z"
           id="path4286" />
        <path
           d="m 171.97776,935.43283 v 4.56644 h 9.54363 v 3.02014 H 168.3536 v -17.61343 h 12.73289 v 3.02013 h -9.10873 v 3.98658 h 8.43222 v 3.02014 z"
           id="path4288" />
        <path
           d="m 194.3766,939.99927 q 0,-0.72483 0.0242,-1.13557 0.0242,-0.41074 0.0242,-0.72483 0,-1.11141 -0.53154,-1.59463 -0.53155,-0.50738 -1.71544,-0.50738 h -4.15571 v 6.98255 h -3.62416 v -17.61343 h 9.44698 q 1.35302,0 2.31947,0.45906 0.9906,0.45906 1.47382,1.20805 0.50739,0.749 0.72484,1.52215 0.21745,0.74899 0.21745,1.57047 0,3.18926 -2.97182,4.349 0.65235,0.26577 0.96645,0.4349 0.31409,0.14496 0.62818,0.50738 0.33826,0.36242 0.4349,0.65235 0.12081,0.28993 0.21745,1.06309 0.12081,0.77315 0.14497,1.52214 0.0242,0.749 0.0483,2.22282 0,1.01477 0.77316,1.44967 v 0.65235 h -3.88994 q -0.33825,-0.62819 -0.45906,-1.20806 -0.0966,-0.57986 -0.0966,-1.81208 z m 0.57986,-9.32618 q 0,-1.35302 -0.62819,-1.78792 -0.62818,-0.45906 -1.93288,-0.45906 h -4.37316 v 4.59061 h 4.37316 q 1.28054,0 1.90872,-0.45906 0.65235,-0.45906 0.65235,-1.88457 z"
           id="path4290" />
        <path
           d="m 211.64347,939.46773 h -6.59598 l -1.18389,3.55168 h -3.69665 l 6.25772,-17.61343 h 4.01074 l 6.0886,17.61343 h -3.72081 z m -0.99061,-3.02014 -2.2953,-6.88591 -2.2953,6.88591 z"
           id="path4292" />
        <path
           d="m 226.46063,928.42611 v 14.5933 h -3.62416 v -14.5933 h -5.3396 v -3.02013 h 14.11007 v 3.02013 z"
           id="path4294" />
        <path
           d="m 237.90167,925.40598 v 17.61343 h -3.62416 v -17.61343 z"
           id="path4296" />
        <path
           d="m 249.34307,943.01941 h -3.06846 l -5.94362,-17.61343 h 3.64832 l 3.9141,13.26443 3.84161,-13.26443 h 3.64832 z"
           id="path4298" />
        <path
           d="m 267.56318,939.46773 h -6.59598 l -1.18389,3.55168 h -3.69665 l 6.25772,-17.61343 h 4.01074 l 6.0886,17.61343 h -3.72081 z m -0.99061,-3.02014 -2.2953,-6.88591 -2.29531,6.88591 z"
           id="path4300" />
        <path
           d="m 281.32556,943.01941 v -17.61343 h 6.88591 q 2.02953,0 3.33423,0.48322 1.32886,0.48322 2.22282,1.54631 2.15033,2.56107 2.15033,6.7651 0,4.25235 -2.15033,6.76511 -1.71544,2.05369 -5.55705,2.05369 z m 3.62416,-3.02014 h 3.26175 q 4.08322,0 4.08322,-5.7745 0,-5.79866 -4.08322,-5.79866 h -3.26175 z"
           id="path4302" />
        <path
           d="m 302.45708,935.43283 v 4.56644 h 9.54363 v 3.02014 h -13.1678 v -17.61343 h 12.7329 v 3.02013 h -9.10873 v 3.98658 h 8.43222 v 3.02014 z"
           id="path4304" />
        <path
           d="m 334.50449,930.76974 h -3.38256 q -0.19328,-2.75437 -3.69664,-2.75437 -1.40135,0 -2.22282,0.60403 -0.82148,0.57987 -0.82148,1.57047 0,0.96645 0.70067,1.44967 0.70067,0.45906 2.63356,0.84564 l 2.75436,0.53154 q 2.44027,0.48322 3.55168,1.64295 1.11141,1.13557 1.11141,3.21343 0,2.68188 -1.90872,4.20403 -1.90873,1.49798 -5.31544,1.49798 -3.38255,0 -5.26712,-1.49798 -1.8604,-1.49799 -2.02953,-4.32484 h 3.52752 q 0.0966,1.42551 1.11141,2.1745 1.01477,0.74899 2.85101,0.74899 1.64295,0 2.58523,-0.62818 0.96645,-0.62819 0.96645,-1.7396 0,-1.06309 -0.749,-1.64296 -0.74899,-0.57986 -2.56107,-0.91812 l -2.46443,-0.48322 q -2.68188,-0.50738 -3.81745,-1.59463 -1.13557,-1.08725 -1.13557,-3.14094 0,-2.58524 1.73959,-3.98658 1.76376,-1.42551 4.92887,-1.42551 0.91812,0 1.76375,0.12081 0.8698,0.1208 1.83625,0.50738 0.96644,0.36242 1.66711,0.96645 0.70067,0.57986 1.15973,1.64295 0.48323,1.03893 0.48323,2.41611 z"
           id="path4306" />
        <path
           d="m 341.67164,935.43283 v 4.56644 h 9.54363 v 3.02014 h -13.16779 v -17.61343 h 12.73289 v 3.02013 h -9.10873 v 3.98658 h 8.43222 v 3.02014 z"
           id="path4308" />
        <path
           d="m 364.07049,939.99927 q 0,-0.72483 0.0242,-1.13557 0.0242,-0.41074 0.0242,-0.72483 0,-1.11141 -0.53154,-1.59463 -0.53155,-0.50738 -1.71544,-0.50738 h -4.15571 v 6.98255 h -3.62416 v -17.61343 h 9.44699 q 1.35302,0 2.31946,0.45906 0.99061,0.45906 1.47383,1.20805 0.50738,0.749 0.72483,1.52215 0.21745,0.74899 0.21745,1.57047 0,3.18926 -2.97181,4.349 0.65235,0.26577 0.96644,0.4349 0.31409,0.14496 0.62819,0.50738 0.33825,0.36242 0.4349,0.65235 0.1208,0.28993 0.21745,1.06309 0.1208,0.77315 0.14496,1.52214 0.0242,0.749 0.0483,2.22282 0,1.01477 0.77315,1.44967 v 0.65235 h -3.88993 q -0.33826,-0.62819 -0.45907,-1.20806 -0.0966,-0.57986 -0.0966,-1.81208 z m 0.57987,-9.32618 q 0,-1.35302 -0.62819,-1.78792 -0.62819,-0.45906 -1.93289,-0.45906 h -4.37316 v 4.59061 h 4.37316 q 1.28054,0 1.90873,-0.45906 0.65235,-0.45906 0.65235,-1.88457 z"
           id="path4310" />
        <path
           d="m 379.11453,943.01941 h -3.06846 l -5.94363,-17.61343 h 3.64832 l 3.9141,13.26443 3.84161,-13.26443 h 3.64833 z"
           id="path4312" />
        <path
           d="m 391.17355,925.40598 v 17.61343 h -3.62416 v -17.61343 z"
           id="path4314" />
        <path
           d="m 406.04583,931.37377 q -0.67651,-3.16511 -3.76913,-3.16511 -2.15034,0 -3.35839,1.64296 -1.20806,1.64295 -1.20806,4.56644 0,2.87517 1.15973,4.49396 1.1839,1.6188 3.28591,1.6188 1.69128,0 2.70604,-0.91812 1.01477,-0.91813 1.1839,-2.6094 h 3.52752 q -0.16913,3.02013 -2.19866,4.80805 -2.02953,1.76376 -5.31544,1.76376 -3.67249,0 -5.82282,-2.46443 -2.15034,-2.48859 -2.15034,-6.74094 0,-4.27651 2.1745,-6.7651 2.17449,-2.4886 5.8953,-2.4886 3.11678,0 5.09799,1.66712 2.00537,1.66711 2.24698,4.59061 z"
           id="path4316" />
        <path
           d="m 416.08969,925.40598 v 17.61343 h -3.62416 v -17.61343 z"
           id="path4318" />
        <path
           d="m 421.32169,940.98988 q -2.31946,-2.58524 -2.31946,-6.6443 0,-4.05906 2.31946,-6.6443 2.34363,-2.58524 6.13692,-2.58524 3.81745,0 6.16107,2.58524 2.34363,2.56108 2.34363,6.7651 0,3.9141 -2.31946,6.5235 -2.29531,2.58523 -6.16108,2.58523 -3.84161,0 -6.16108,-2.58523 z m 6.16108,-12.78122 q -2.19866,0 -3.52752,1.69128 -1.32886,1.66711 -1.32886,4.44564 0,2.77852 1.32886,4.4698 1.32886,1.66712 3.52752,1.66712 2.1745,0 3.50336,-1.66712 1.35302,-1.66711 1.35302,-4.37316 0,-2.851 -1.32886,-4.54228 -1.3047,-1.69128 -3.52752,-1.69128 z"
           id="path4320" />
        <path
           d="m 451.77071,930.76974 h -3.38256 q -0.19328,-2.75437 -3.69664,-2.75437 -1.40135,0 -2.22282,0.60403 -0.82148,0.57987 -0.82148,1.57047 0,0.96645 0.70067,1.44967 0.70067,0.45906 2.63356,0.84564 l 2.75436,0.53154 q 2.44027,0.48322 3.55168,1.64295 1.11141,1.13557 1.11141,3.21343 0,2.68188 -1.90872,4.20403 -1.90873,1.49798 -5.31544,1.49798 -3.38255,0 -5.26712,-1.49798 -1.8604,-1.49799 -2.02953,-4.32484 h 3.52752 q 0.0966,1.42551 1.11141,2.1745 1.01477,0.74899 2.85101,0.74899 1.64295,0 2.58523,-0.62818 0.96645,-0.62819 0.96645,-1.7396 0,-1.06309 -0.749,-1.64296 -0.74899,-0.57986 -2.56107,-0.91812 l -2.46443,-0.48322 q -2.68188,-0.50738 -3.81745,-1.59463 -1.13557,-1.08725 -1.13557,-3.14094 0,-2.58524 1.73959,-3.98658 1.76376,-1.42551 4.92887,-1.42551 0.91812,0 1.76375,0.12081 0.8698,0.1208 1.83625,0.50738 0.96644,0.36242 1.66711,0.96645 0.70067,0.57986 1.15973,1.64295 0.48323,1.03893 0.48323,2.41611 z"
           id="path4322" />
        <path
           d="m 465.63879,925.40598 v 17.61343 h -3.62416 v -17.61343 z"
           id="path4324" />
        <path
           d="m 480.22113,943.01941 -7.07919,-12.17719 v 12.17719 h -3.62417 v -17.61343 h 3.72081 l 6.98255,11.9839 v -11.9839 h 3.62417 v 17.61343 z"
           id="path4326" />
        <path
           d="m 491.35715,935.43283 v 7.58658 h -3.62417 v -17.61343 h 12.37048 v 3.02013 h -8.74631 v 3.98658 h 7.70738 v 3.02014 z"
           id="path4328" />
        <path
           d="m 504.37543,940.98988 q -2.31946,-2.58524 -2.31946,-6.6443 0,-4.05906 2.31946,-6.6443 2.34363,-2.58524 6.13692,-2.58524 3.81745,0 6.16108,2.58524 2.34362,2.56108 2.34362,6.7651 0,3.9141 -2.31946,6.5235 -2.29531,2.58523 -6.16108,2.58523 -3.84161,0 -6.16108,-2.58523 z m 6.16108,-12.78122 q -2.19866,0 -3.52752,1.69128 -1.32886,1.66711 -1.32886,4.44564 0,2.77852 1.32886,4.4698 1.32886,1.66712 3.52752,1.66712 2.1745,0 3.50336,-1.66712 1.35302,-1.66711 1.35302,-4.37316 0,-2.851 -1.32886,-4.54228 -1.3047,-1.69128 -3.52752,-1.69128 z"
           id="path4330" />
        <path
           d="m 531.8768,939.99927 q 0,-0.72483 0.0242,-1.13557 0.0242,-0.41074 0.0242,-0.72483 0,-1.11141 -0.53155,-1.59463 -0.53154,-0.50738 -1.71543,-0.50738 h -4.15571 v 6.98255 h -3.62416 v -17.61343 h 9.44698 q 1.35302,0 2.31947,0.45906 0.9906,0.45906 1.47382,1.20805 0.50738,0.749 0.72483,1.52215 0.21745,0.74899 0.21745,1.57047 0,3.18926 -2.97181,4.349 0.65235,0.26577 0.96644,0.4349 0.3141,0.14496 0.62819,0.50738 0.33826,0.36242 0.4349,0.65235 0.12081,0.28993 0.21745,1.06309 0.12081,0.77315 0.14497,1.52214 0.0242,0.749 0.0483,2.22282 0,1.01477 0.77316,1.44967 v 0.65235 h -3.88994 q -0.33826,-0.62819 -0.45906,-1.20806 -0.0966,-0.57986 -0.0966,-1.81208 z m 0.57986,-9.32618 q 0,-1.35302 -0.62819,-1.78792 -0.62819,-0.45906 -1.93288,-0.45906 h -4.37316 v 4.59061 h 4.37316 q 1.28053,0 1.90872,-0.45906 0.65235,-0.45906 0.65235,-1.88457 z"
           id="path4332" />
        <path
           d="m 542.98257,929.29591 v 13.7235 h -3.62416 v -17.61343 h 5.41208 l 3.18927,14.01343 3.09262,-14.01343 h 5.4604 v 17.61343 h -3.62416 v -13.7235 l -3.11678,13.7235 h -3.62416 z"
           id="path4334" />
        <path
           d="m 570.14304,939.46773 h -6.59598 l -1.18389,3.55168 h -3.69665 l 6.25773,-17.61343 h 4.01074 l 6.08859,17.61343 h -3.72081 z m -0.9906,-3.02014 -2.29531,-6.88591 -2.2953,6.88591 z"
           id="path4336" />
        <path
           d="m 584.96019,928.42611 v 14.5933 h -3.62416 v -14.5933 h -5.3396 v -3.02013 h 14.11007 v 3.02013 z"
           id="path4338" />
        <path
           d="m 596.40124,925.40598 v 17.61343 h -3.62416 v -17.61343 z"
           id="path4340" />
        <path
           d="m 611.27352,931.37377 q -0.67651,-3.16511 -3.76913,-3.16511 -2.15034,0 -3.35839,1.64296 -1.20806,1.64295 -1.20806,4.56644 0,2.87517 1.15974,4.49396 1.18389,1.6188 3.2859,1.6188 1.69128,0 2.70605,-0.91812 1.01476,-0.91813 1.18389,-2.6094 h 3.52752 q -0.16913,3.02013 -2.19866,4.80805 -2.02953,1.76376 -5.31544,1.76376 -3.67249,0 -5.82282,-2.46443 -2.15034,-2.48859 -2.15034,-6.74094 0,-4.27651 2.1745,-6.7651 2.1745,-2.4886 5.8953,-2.4886 3.11678,0 5.09799,1.66712 2.00537,1.66711 2.24698,4.59061 z"
           id="path4342" />
        <path
           d="m 619.04624,940.98988 q -2.31946,-2.58524 -2.31946,-6.6443 0,-4.05906 2.31946,-6.6443 2.34362,-2.58524 6.13692,-2.58524 3.81745,0 6.16107,2.58524 2.34363,2.56108 2.34363,6.7651 0,3.9141 -2.31947,6.5235 -2.2953,2.58523 -6.16107,2.58523 -3.84162,0 -6.16108,-2.58523 z m 6.16108,-12.78122 q -2.19866,0 -3.52752,1.69128 -1.32886,1.66711 -1.32886,4.44564 0,2.77852 1.32886,4.4698 1.32886,1.66712 3.52752,1.66712 2.17449,0 3.50335,-1.66712 1.35303,-1.66711 1.35303,-4.37316 0,-2.851 -1.32886,-4.54228 -1.3047,-1.69128 -3.52752,-1.69128 z"
           id="path4344" />
        <path
           d="m 649.49519,930.76974 h -3.38255 q -0.19329,-2.75437 -3.69664,-2.75437 -1.40135,0 -2.22282,0.60403 -0.82148,0.57987 -0.82148,1.57047 0,0.96645 0.70067,1.44967 0.70067,0.45906 2.63356,0.84564 l 2.75436,0.53154 q 2.44027,0.48322 3.55168,1.64295 1.11141,1.13557 1.11141,3.21343 0,2.68188 -1.90872,4.20403 -1.90873,1.49798 -5.31544,1.49798 -3.38256,0 -5.26712,-1.49798 -1.8604,-1.49799 -2.02953,-4.32484 h 3.52752 q 0.0966,1.42551 1.11141,2.1745 1.01476,0.74899 2.85101,0.74899 1.64295,0 2.58523,-0.62818 0.96645,-0.62819 0.96645,-1.7396 0,-1.06309 -0.749,-1.64296 -0.74899,-0.57986 -2.56107,-0.91812 l -2.46443,-0.48322 q -2.68189,-0.50738 -3.81746,-1.59463 -1.13557,-1.08725 -1.13557,-3.14094 0,-2.58524 1.7396,-3.98658 1.76376,-1.42551 4.92886,-1.42551 0.91812,0 1.76376,0.12081 0.8698,0.1208 1.83624,0.50738 0.96645,0.36242 1.66712,0.96645 0.70067,0.57986 1.15973,1.64295 0.48322,1.03893 0.48322,2.41611 z"
           id="path4346" />
        <path
           d="m 217.57049,961.57512 q -0.67651,-3.1651 -3.76913,-3.1651 -2.15034,0 -3.35839,1.64296 -1.20806,1.64295 -1.20806,4.56644 0,2.87517 1.15973,4.49396 1.1839,1.6188 3.28591,1.6188 1.69128,0 2.70604,-0.91813 1.01477,-0.91812 1.1839,-2.60939 h 3.52752 q -0.16913,3.02013 -2.19866,4.80805 -2.02953,1.76376 -5.31544,1.76376 -3.67249,0 -5.82282,-2.46443 -2.15034,-2.48859 -2.15034,-6.74094 0,-4.27651 2.1745,-6.76511 2.17449,-2.48859 5.8953,-2.48859 3.11678,0 5.09799,1.66712 2.00537,1.66711 2.24698,4.5906 z"
           id="path4348" />
        <path
           d="m 225.34318,971.19124 q -2.31946,-2.58524 -2.31946,-6.6443 0,-4.05906 2.31946,-6.6443 2.34363,-2.58524 6.13692,-2.58524 3.81745,0 6.16108,2.58524 2.34362,2.56107 2.34362,6.7651 0,3.9141 -2.31946,6.5235 -2.2953,2.58523 -6.16108,2.58523 -3.84161,0 -6.16108,-2.58523 z m 6.16108,-12.78122 q -2.19866,0 -3.52752,1.69128 -1.32886,1.66711 -1.32886,4.44564 0,2.77852 1.32886,4.4698 1.32886,1.66711 3.52752,1.66711 2.1745,0 3.50336,-1.66711 1.35302,-1.66712 1.35302,-4.37316 0,-2.85101 -1.32886,-4.54228 -1.3047,-1.69128 -3.52752,-1.69128 z"
           id="path4350" />
        <path
           d="m 253.56937,973.22077 -7.0792,-12.17719 v 12.17719 h -3.62416 v -17.61343 h 3.72081 l 6.98255,11.98389 v -11.98389 h 3.62417 v 17.61343 z"
           id="path4352" />
        <path
           d="m 275.53784,958.62747 v 14.5933 h -3.62416 v -14.5933 h -5.3396 v -3.02013 h 14.11007 v 3.02013 z"
           id="path4354" />
        <path
           d="m 286.97887,965.63419 v 4.56644 h 9.54363 v 3.02014 h -13.16779 v -17.61343 h 12.73289 v 3.02013 h -9.10873 v 3.98658 h 8.43222 v 3.02014 z"
           id="path4356" />
        <path
           d="m 310.39248,961.57512 q -0.67651,-3.1651 -3.76913,-3.1651 -2.15034,0 -3.35839,1.64296 -1.20806,1.64295 -1.20806,4.56644 0,2.87517 1.15974,4.49396 1.18389,1.6188 3.2859,1.6188 1.69128,0 2.70604,-0.91813 1.01477,-0.91812 1.1839,-2.60939 H 313.92 q -0.16913,3.02013 -2.19866,4.80805 -2.02953,1.76376 -5.31544,1.76376 -3.67249,0 -5.82282,-2.46443 -2.15034,-2.48859 -2.15034,-6.74094 0,-4.27651 2.1745,-6.76511 2.1745,-2.48859 5.8953,-2.48859 3.11678,0 5.09799,1.66712 2.00537,1.66711 2.24698,4.5906 z"
           id="path4358" />
        <path
           d="m 327.51552,973.22077 -7.0792,-12.17719 v 12.17719 h -3.62416 v -17.61343 h 3.7208 l 6.98256,11.98389 v -11.98389 h 3.62416 v 17.61343 z"
           id="path4360" />
        <path
           d="m 336.38036,971.19124 q -2.31946,-2.58524 -2.31946,-6.6443 0,-4.05906 2.31946,-6.6443 2.34363,-2.58524 6.13692,-2.58524 3.81745,0 6.16108,2.58524 2.34362,2.56107 2.34362,6.7651 0,3.9141 -2.31946,6.5235 -2.29531,2.58523 -6.16108,2.58523 -3.84161,0 -6.16108,-2.58523 z m 6.16108,-12.78122 q -2.19866,0 -3.52752,1.69128 -1.32886,1.66711 -1.32886,4.44564 0,2.77852 1.32886,4.4698 1.32886,1.66711 3.52752,1.66711 2.1745,0 3.50336,-1.66711 1.35302,-1.66712 1.35302,-4.37316 0,-2.85101 -1.32886,-4.54228 -1.3047,-1.69128 -3.52752,-1.69128 z"
           id="path4362" />
        <path
           d="m 357.52736,955.60734 v 14.59329 h 8.43222 v 3.02014 H 353.9032 v -17.61343 z"
           id="path4364" />
        <path
           d="m 370.21532,971.19124 q -2.31946,-2.58524 -2.31946,-6.6443 0,-4.05906 2.31946,-6.6443 2.34363,-2.58524 6.13692,-2.58524 3.81745,0 6.16108,2.58524 2.34362,2.56107 2.34362,6.7651 0,3.9141 -2.31946,6.5235 -2.2953,2.58523 -6.16108,2.58523 -3.84161,0 -6.16108,-2.58523 z m 6.16108,-12.78122 q -2.19866,0 -3.52752,1.69128 -1.32886,1.66711 -1.32886,4.44564 0,2.77852 1.32886,4.4698 1.32886,1.66711 3.52752,1.66711 2.1745,0 3.50336,-1.66711 1.35302,-1.66712 1.35302,-4.37316 0,-2.85101 -1.32886,-4.54228 -1.3047,-1.69128 -3.52752,-1.69128 z"
           id="path4366" />
        <path
           d="m 399.52877,961.18855 q -0.96645,-2.82685 -4.20403,-2.82685 -2.2953,0 -3.62416,1.61879 -1.3047,1.6188 -1.3047,4.4698 0,2.70605 1.40134,4.44564 1.4255,1.7396 3.62416,1.7396 0.33826,0 0.77316,-0.0725 0.45906,-0.0966 1.08725,-0.33826 0.62819,-0.26577 1.15973,-0.67651 0.53154,-0.41074 0.94228,-1.13557 0.41074,-0.74899 0.50738,-1.69127 h -4.01074 v -3.02014 h 7.05504 v 9.51947 h -2.1745 l -0.4349,-2.31947 q -1.01476,1.47383 -2.27114,2.15034 -1.25637,0.67651 -3.0443,0.67651 -3.57584,0 -5.91946,-2.6094 -2.31947,-2.60939 -2.31947,-6.62013 0,-4.10739 2.36779,-6.66846 2.36779,-2.56108 6.16108,-2.56108 3.18926,0 5.24295,1.59463 2.0537,1.59463 2.39195,4.32484 h -3.40671 z"
           id="path4368" />
        <path
           d="m 409.95503,955.60734 v 17.61343 h -3.62416 v -17.61343 z"
           id="path4370" />
        <path
           d="m 423.61925,969.66909 h -6.59597 l -1.1839,3.55168 h -3.69664 l 6.25772,-17.61343 h 4.01074 l 6.08859,17.61343 h -3.7208 z m -0.9906,-3.02014 -2.2953,-6.88591 -2.29531,6.88591 z"
           id="path4372" />
        <path
           d="m 443.60689,960.9711 h -3.38255 q -0.19329,-2.75437 -3.69665,-2.75437 -1.40134,0 -2.22282,0.60403 -0.82148,0.57987 -0.82148,1.57047 0,0.96644 0.70068,1.44967 0.70067,0.45906 2.63355,0.84563 l 2.75437,0.53155 q 2.44027,0.48322 3.55168,1.64295 1.11141,1.13557 1.11141,3.21343 0,2.68188 -1.90873,4.20403 -1.90872,1.49798 -5.31544,1.49798 -3.38255,0 -5.26711,-1.49798 -1.86041,-1.49799 -2.02954,-4.32484 h 3.52752 q 0.0967,1.42551 1.11141,2.1745 1.01477,0.74899 2.85101,0.74899 1.64296,0 2.58524,-0.62819 0.96644,-0.62818 0.96644,-1.73959 0,-1.06309 -0.74899,-1.64296 -0.749,-0.57986 -2.56108,-0.91812 l -2.46443,-0.48322 q -2.68188,-0.50738 -3.81745,-1.59463 -1.13557,-1.08725 -1.13557,-3.14094 0,-2.58524 1.7396,-3.98658 1.76376,-1.42551 4.92886,-1.42551 0.91812,0 1.76376,0.12081 0.8698,0.1208 1.83624,0.50738 0.96644,0.36242 1.66712,0.96644 0.70067,0.57987 1.15973,1.64296 0.48322,1.03892 0.48322,2.41611 z"
           id="path4374" />
        <path
           d="m 457.47498,955.60734 v 14.59329 h 8.43222 v 3.02014 h -12.05639 v -17.61343 z"
           id="path4376" />
        <path
           d="m 472.43408,955.60734 v 17.61343 h -3.62416 v -17.61343 z"
           id="path4378" />
        <path
           d="m 490.42317,968.14694 q 0,0.8698 -0.28993,1.69128 -0.28994,0.82147 -0.94229,1.61879 -0.62819,0.79731 -1.90872,1.28054 -1.28054,0.48322 -3.0443,0.48322 h -7.92484 v -17.61343 h 7.85236 q 1.64295,0 2.82684,0.48322 1.20806,0.48322 1.78792,1.25637 0.60403,0.749 0.8698,1.47383 0.26578,0.72483 0.26578,1.4255 0,1.13558 -0.55571,1.95705 -0.5557,0.82148 -1.8604,1.66712 2.92349,1.71543 2.92349,4.27651 z m -10.48591,-9.51947 v 3.98658 h 3.93825 q 2.56108,0 2.56108,-1.98121 0,-2.00537 -2.56108,-2.00537 z m 0,7.00672 v 4.56644 h 4.32483 q 2.68188,0 2.68188,-2.27114 0,-2.2953 -2.68188,-2.2953 z"
           id="path4380" />
        <path
           d="m 503.27987,970.20063 q 0,-0.72483 0.0242,-1.13557 0.0242,-0.41074 0.0242,-0.72483 0,-1.11141 -0.53155,-1.59463 -0.53154,-0.50739 -1.71544,-0.50739 h -4.1557 v 6.98256 h -3.62417 v -17.61343 h 9.44699 q 1.35302,0 2.31946,0.45906 0.99061,0.45906 1.47383,1.20805 0.50738,0.74899 0.72483,1.52215 0.21745,0.74899 0.21745,1.57047 0,3.18926 -2.97181,4.349 0.65235,0.26577 0.96644,0.43489 0.3141,0.14497 0.62819,0.50739 0.33826,0.36241 0.4349,0.65235 0.12081,0.28993 0.21745,1.06308 0.12081,0.77316 0.14497,1.52215 0.0242,0.749 0.0483,2.22282 0,1.01477 0.77315,1.44967 v 0.65235 h -3.88993 q -0.33826,-0.62819 -0.45906,-1.20806 -0.0967,-0.57986 -0.0967,-1.81208 z m 0.57987,-9.32618 q 0,-1.35302 -0.62819,-1.78792 -0.62819,-0.45906 -1.93289,-0.45906 h -4.37315 v 4.59061 h 4.37315 q 1.28054,0 1.90873,-0.45906 0.65235,-0.45906 0.65235,-1.88457 z"
           id="path4382" />
        <path
           d="m 514.38568,965.63419 v 4.56644 h 9.54363 v 3.02014 h -13.16779 v -17.61343 h 12.73289 v 3.02013 h -9.10873 v 3.98658 h 8.43222 v 3.02014 z"
           id="path4384" />
        <path
           d="m 539.73216,960.9711 h -3.38255 q -0.19329,-2.75437 -3.69664,-2.75437 -1.40135,0 -2.22282,0.60403 -0.82148,0.57987 -0.82148,1.57047 0,0.96644 0.70067,1.44967 0.70067,0.45906 2.63356,0.84563 l 2.75436,0.53155 q 2.44027,0.48322 3.55168,1.64295 1.11141,1.13557 1.11141,3.21343 0,2.68188 -1.90872,4.20403 -1.90873,1.49798 -5.31544,1.49798 -3.38255,0 -5.26712,-1.49798 -1.8604,-1.49799 -2.02953,-4.32484 h 3.52752 q 0.0966,1.42551 1.11141,2.1745 1.01476,0.74899 2.85101,0.74899 1.64295,0 2.58523,-0.62819 0.96645,-0.62818 0.96645,-1.73959 0,-1.06309 -0.749,-1.64296 -0.74899,-0.57986 -2.56107,-0.91812 l -2.46443,-0.48322 q -2.68188,-0.50738 -3.81746,-1.59463 -1.13557,-1.08725 -1.13557,-3.14094 0,-2.58524 1.7396,-3.98658 1.76376,-1.42551 4.92886,-1.42551 0.91812,0 1.76376,0.12081 0.8698,0.1208 1.83625,0.50738 0.96644,0.36242 1.66711,0.96644 0.70067,0.57987 1.15973,1.64296 0.48322,1.03892 0.48322,2.41611 z"
           id="path4386" />
      </g>
    </g>
    <rect
       style="opacity:0.923865;fill:#000000;fill-opacity:0.915555;stroke:#000000;stroke-width:0.927062;paint-order:markers fill stroke;stop-color:#000000"
       id="rect1454"
       width="754.59821"
       height="597.80133"
       x="-3.450736"
       y="1054.9319"
       ry="1.2435178" />
    <g
       id="g2141">
      <g
         style="font-style:normal;font-variant:normal;font-weight:600;font-stretch:normal;font-size:110.842px;line-height:125%;font-family:FreeSans;-inkscape-font-specification:'FreeSans Semi-Bold';letter-spacing:0px;word-spacing:0px;fill:#ffffff;fill-opacity:1;stroke:none;stroke-width:1px;stroke-linecap:butt;stroke-linejoin:miter;stroke-opacity:1"
         id="text3336-4"
         transform="translate(2.7228013,593.07397)">
        <path
           d="m 117.79674,833.94122 v 66.94868 h 38.68393 v 13.85528 h -55.31025 v -80.80396 z"
           id="path4263-4"
           style="fill:#ffffff" />
        <path
           d="m 186.42365,833.94122 v 80.80396 h -16.62633 v -80.80396 z"
           id="path4265-3"
           style="fill:#ffffff" />
        <path
           d="m 268.95086,891.46832 q 0,3.99032 -1.33011,7.75895 -1.33011,3.76864 -4.32285,7.42643 -2.88189,3.65779 -8.75653,5.87463 -5.87464,2.21685 -13.96612,2.21685 h -36.35624 v -80.80396 h 36.02372 q 7.53727,0 12.96853,2.21684 5.54211,2.21685 8.20233,5.7638 2.77105,3.43611 3.99032,6.76137 1.21926,3.32527 1.21926,6.53969 0,5.20958 -2.54937,8.97822 -2.54937,3.76863 -8.53485,7.64811 13.41191,7.8698 13.41191,19.61907 z m -48.10552,-43.67183 v 18.28897 h 18.06728 q 11.74927,0 11.74927,-9.08906 0,-9.19991 -11.74927,-9.19991 z m 0,32.14424 v 20.94917 h 19.84076 q 12.30348,0 12.30348,-10.41916 0,-10.53001 -12.30348,-10.53001 z"
           id="path4267-0"
           style="fill:#ffffff" />
        <path
           d="m 327.93277,900.8899 q 0,-3.32526 0.11084,-5.20958 0.11084,-1.88432 0.11084,-3.32526 0,-5.09875 -2.43853,-7.31559 -2.43852,-2.32769 -7.86979,-2.32769 h -19.06486 v 32.0334 h -16.62633 v -80.80396 h 43.3393 q 6.20716,0 10.64085,2.106 4.54453,2.106 6.76137,5.54211 2.32769,3.43611 3.32527,6.98306 0.99758,3.43611 0.99758,7.20474 0,14.63117 -13.63359,19.9516 2.99274,1.21926 4.43369,1.99516 1.44095,0.66505 2.8819,2.32768 1.55179,1.66263 1.99515,2.99274 0.55422,1.33011 0.99758,4.87706 0.55422,3.54695 0.66506,6.98306 0.11084,3.4361 0.22168,10.19748 0,4.65537 3.54695,6.65053 v 2.99274 h -17.84559 q -1.55179,-2.8819 -2.106,-5.54211 -0.44337,-2.66021 -0.44337,-8.31317 z m 2.66021,-42.78508 q 0,-6.20717 -2.8819,-8.20233 -2.88189,-2.106 -8.86737,-2.106 h -20.06244 v 21.06002 h 20.06244 q 5.87463,0 8.75653,-2.106 2.99274,-2.106 2.99274,-8.64569 z"
           id="path4269-7"
           style="fill:#ffffff" />
        <path
           d="m 378.88207,879.94073 v 20.94917 h 43.78267 v 13.85528 h -60.409 v -80.80396 h 58.41384 v 13.85527 h -41.78751 v 18.28897 H 417.566 v 13.85527 z"
           id="path4271-8"
           style="fill:#ffffff" />
        <path
           d="m 471.44223,847.79649 v 66.94869 H 454.8159 v -66.94869 h -24.49613 v -13.85527 h 64.73184 v 13.85527 z"
           id="path4273-6"
           style="fill:#ffffff" />
        <path
           d="m 523.9295,879.94073 v 20.94917 h 43.78266 v 13.85528 H 507.30317 V 833.94122 H 565.717 v 13.85527 h -41.7875 v 18.28897 h 38.68392 v 13.85527 z"
           id="path4275-8"
           style="fill:#ffffff" />
        <path
           d="m 631.3425,861.31924 q -3.10358,-14.52033 -17.29138,-14.52033 -9.86495,0 -15.40706,7.53727 -5.54211,7.53727 -5.54211,20.94918 0,13.19022 5.32042,20.61665 5.43127,7.42642 15.07454,7.42642 7.75896,0 12.41433,-4.212 4.65537,-4.212 5.43126,-11.97096 h 16.18296 q -0.77589,13.85528 -10.08663,22.0576 -9.31075,8.09148 -24.38529,8.09148 -16.84801,0 -26.71297,-11.30591 -9.86495,-11.41674 -9.86495,-30.92497 0,-19.61907 9.9758,-31.03581 9.97579,-11.41675 27.04549,-11.41675 14.29864,0 23.3877,7.64811 9.19991,7.64812 10.30833,21.06002 z"
           id="path4277-8"
           style="fill:#ffffff" />
      </g>
      <g
         id="g1912"
         transform="translate(0,43.124998)">
        <path
           style="fill:none;stroke:#008000;stroke-width:7.12113;stroke-linecap:round;stroke-linejoin:round;stroke-miterlimit:4;stroke-dasharray:none"
           d="m 374.81652,1085.0008 c -62.58887,0 -115.48447,46.3882 -123.65396,108.4416 -6.85765,52.089 19.62647,101.6726 64.06745,125.8352 l 0.0701,10.3567 -27.39332,0.1497 -2.21643,2.3549 m -14.83217,13.9831 -20.91408,20.0422 h -44.85084 l -3.3843,-3.2458 m -13.57382,-13.9893 -1.70676,-1.4298 h -48.13428"
           id="path3335-4"
           inkscape:connector-curvature="0"
           sodipodi:nodetypes="csccccccccccc" />
        <path
           style="fill:none;stroke:#008000;stroke-width:7.12113;stroke-linecap:round;stroke-linejoin:round;stroke-miterlimit:4;stroke-dasharray:none"
           d="m 375.46398,1251.3037 h -33.25474 v 23.0741 h 18.22907 v 91.7864 h -92.37155 l -2.11382,-2.2523 m -14.33562,-14.1971 -2.21544,-2.2155 h -29.78261 l -17.77717,-17.7771 h -37.95141 m 211.5733,-88.013 -20.18021,-58.7523 -23.47617,-68.3458 -23.47618,68.3458 -23.474,68.3468 h 34.12986 v 41.2802 h 17.75116 v 54.9154 H 286.6614 l -17.77716,-17.7771 h -48.10561 l -2.68539,2.6854 m -13.43531,13.4353 -20.32135,20.3213 h -72.01629"
           id="path3358-3"
           inkscape:connector-curvature="0"
           sodipodi:nodetypes="cccccccccccccccccccccccccccc" />
        <path
           style="fill:#008000;stroke:none;stroke-width:9;stroke-miterlimit:4;stroke-dasharray:none"
           d="m 156.52856,1322.1399 a 7.5822248,7.5822248 0 0 0 -7.5832,7.5832 7.5822248,7.5822248 0 0 0 7.5832,7.5817 7.5822248,7.5822248 0 0 0 7.58165,-7.5817 7.5822248,7.5822248 0 0 0 -7.58165,-7.5832 z m 0,4.9916 a 2.591393,2.591393 0 0 1 2.59161,2.5916 2.591393,2.591393 0 0 1 -2.59161,2.5917 2.591393,2.591393 0 0 1 -2.59161,-2.5917 2.591393,2.591393 0 0 1 2.59161,-2.5916 z"
           id="path4169-1"
           inkscape:connector-curvature="0" />
        <path
           inkscape:connector-curvature="0"
           id="path4174-4"
           d="m 106.17172,1358.582 a 7.5822248,7.5822248 0 0 0 -7.583203,7.5832 7.5822248,7.5822248 0 0 0 7.583203,7.5816 7.5822248,7.5822248 0 0 0 7.58165,-7.5816 7.5822248,7.5822248 0 0 0 -7.58165,-7.5832 z m 0,4.9916 a 2.591393,2.591393 0 0 1 2.59161,2.5916 2.591393,2.591393 0 0 1 -2.59161,2.5916 2.591393,2.591393 0 0 1 -2.59161,-2.5916 2.591393,2.591393 0 0 1 2.59161,-2.5916 z"
           style="fill:#008000;stroke:none;stroke-width:9;stroke-miterlimit:4;stroke-dasharray:none" />
        <path
           style="fill:#008000;stroke:none;stroke-width:9;stroke-miterlimit:4;stroke-dasharray:none"
           d="m 131.35014,1339.9171 a 7.5822248,7.5822248 0 0 0 -7.5832,7.5832 7.5822248,7.5822248 0 0 0 7.5832,7.5817 7.5822248,7.5822248 0 0 0 7.58165,-7.5817 7.5822248,7.5822248 0 0 0 -7.58165,-7.5832 z m 0,4.9916 a 2.591393,2.591393 0 0 1 2.5916,2.5916 2.591393,2.591393 0 0 1 -2.5916,2.5916 2.591393,2.591393 0 0 1 -2.59161,-2.5916 2.591393,2.591393 0 0 1 2.59161,-2.5916 z"
           id="path4176-9"
           inkscape:connector-curvature="0" />
        <path
           sodipodi:nodetypes="csccccccccccc"
           inkscape:connector-curvature="0"
           id="path4188-2"
           d="m 378.37977,1085.0008 c 62.58886,0 115.48447,46.3882 123.65396,108.4416 6.85764,52.089 -19.62647,101.6726 -64.06745,125.8352 l -0.0701,10.3567 27.39332,0.1497 2.21642,2.3549 m 14.83218,13.9831 20.91407,20.0422 h 44.85084 l 3.38431,-3.2458 m 13.57382,-13.9893 1.70676,-1.4298 h 48.13428"
           style="fill:none;stroke:#008000;stroke-width:7.12113;stroke-linecap:round;stroke-linejoin:round;stroke-miterlimit:4;stroke-dasharray:none" />
        <path
           sodipodi:nodetypes="cccccccccccccccccccccccccccc"
           inkscape:connector-curvature="0"
           id="path4190-0"
           d="m 377.73231,1251.3037 h 33.25473 v 23.0741 h -18.22907 v 91.7864 h 92.37155 l 2.11382,-2.2523 m 14.33562,-14.1971 2.21544,-2.2155 h 29.78261 l 17.77717,-17.7771 h 37.95141 m -211.57329,-88.0129 20.18021,-58.7524 23.47616,-68.3458 23.47618,68.3458 23.474,68.3468 h -34.12986 v 41.2802 h -17.75116 v 54.9154 h 50.07705 l 17.77716,-17.7771 h 48.10562 l 2.68539,2.6854 m 13.43531,13.4353 20.32135,20.3213 H 640.876"
           style="fill:none;stroke:#008000;stroke-width:7.12113;stroke-linecap:round;stroke-linejoin:round;stroke-miterlimit:4;stroke-dasharray:none" />
        <path
           inkscape:connector-curvature="0"
           id="path4192-6"
           d="m 596.66773,1322.1399 a 7.5822248,7.5822248 0 0 1 7.58319,7.5832 7.5822248,7.5822248 0 0 1 -7.58319,7.5817 7.5822248,7.5822248 0 0 1 -7.58166,-7.5817 7.5822248,7.5822248 0 0 1 7.58166,-7.5832 z m 0,4.9916 a 2.591393,2.591393 0 0 0 -2.59162,2.5916 2.591393,2.591393 0 0 0 2.59162,2.5917 2.591393,2.591393 0 0 0 2.5916,-2.5917 2.591393,2.591393 0 0 0 -2.5916,-2.5916 z"
           style="fill:#008000;stroke:none;stroke-width:9;stroke-miterlimit:4;stroke-dasharray:none" />
        <path
           style="fill:#008000;stroke:none;stroke-width:9;stroke-miterlimit:4;stroke-dasharray:none"
           d="m 647.02457,1358.582 a 7.5822248,7.5822248 0 0 1 7.5832,7.5832 7.5822248,7.5822248 0 0 1 -7.5832,7.5816 7.5822248,7.5822248 0 0 1 -7.58165,-7.5816 7.5822248,7.5822248 0 0 1 7.58165,-7.5832 z m 0,4.9916 a 2.591393,2.591393 0 0 0 -2.59161,2.5916 2.591393,2.591393 0 0 0 2.59161,2.5916 2.591393,2.591393 0 0 0 2.59161,-2.5916 2.591393,2.591393 0 0 0 -2.59161,-2.5916 z"
           id="path4194-8"
           inkscape:connector-curvature="0" />
        <path
           inkscape:connector-curvature="0"
           id="path4196-9"
           d="m 621.84614,1339.9171 a 7.5822248,7.5822248 0 0 1 7.58321,7.5832 7.5822248,7.5822248 0 0 1 -7.58321,7.5817 7.5822248,7.5822248 0 0 1 -7.58164,-7.5817 7.5822248,7.5822248 0 0 1 7.58164,-7.5832 z m 0,4.9916 a 2.591393,2.591393 0 0 0 -2.5916,2.5916 2.591393,2.591393 0 0 0 2.5916,2.5916 2.591393,2.591393 0 0 0 2.59162,-2.5916 2.591393,2.591393 0 0 0 -2.59162,-2.5916 z"
           style="fill:#008000;stroke:none;stroke-width:9;stroke-miterlimit:4;stroke-dasharray:none" />
      </g>
      <g
         style="font-style:normal;font-variant:normal;font-weight:600;font-stretch:normal;font-size:24.1611px;line-height:125%;font-family:FreeSans;-inkscape-font-specification:'FreeSans Semi-Bold';text-align:center;letter-spacing:0px;word-spacing:0px;text-anchor:middle;fill:#ffffff;fill-opacity:1;stroke:none;stroke-width:1px;stroke-linecap:butt;stroke-linejoin:miter;stroke-opacity:1"
         id="text4198-2"
         transform="translate(2.7228013,593.07397)">
        <path
           d="m 107.80742,931.37377 q -0.67651,-3.16511 -3.76913,-3.16511 -2.15033,0 -3.35839,1.64296 -1.208051,1.64295 -1.208051,4.56644 0,2.87517 1.159731,4.49396 1.18389,1.6188 3.28591,1.6188 1.69127,0 2.70604,-0.91812 1.01477,-0.91813 1.18389,-2.6094 h 3.52752 q -0.16913,3.02013 -2.19866,4.80805 -2.02953,1.76376 -5.31544,1.76376 -3.67248,0 -5.822817,-2.46443 -2.150337,-2.48859 -2.150337,-6.74094 0,-4.27651 2.174498,-6.7651 2.174496,-2.4886 5.895306,-2.4886 3.11678,0 5.09799,1.66712 2.00537,1.66711 2.24698,4.59061 z"
           id="path4280-6"
           style="fill:#ffffff" />
        <path
           d="m 115.58012,940.98988 q -2.31946,-2.58524 -2.31946,-6.6443 0,-4.05906 2.31946,-6.6443 2.34363,-2.58524 6.13692,-2.58524 3.81745,0 6.16107,2.58524 2.34363,2.56108 2.34363,6.7651 0,3.9141 -2.31946,6.5235 -2.29531,2.58523 -6.16108,2.58523 -3.84161,0 -6.16108,-2.58523 z m 6.16108,-12.78122 q -2.19866,0 -3.52752,1.69128 -1.32886,1.66711 -1.32886,4.44564 0,2.77852 1.32886,4.4698 1.32886,1.66712 3.52752,1.66712 2.1745,0 3.50336,-1.66712 1.35302,-1.66711 1.35302,-4.37316 0,-2.851 -1.32886,-4.54228 -1.3047,-1.69128 -3.52752,-1.69128 z"
           id="path4282-6"
           style="fill:#ffffff" />
        <path
           d="m 134.45597,940.98988 q -2.31947,-2.58524 -2.31947,-6.6443 0,-4.05906 2.31947,-6.6443 2.34362,-2.58524 6.13691,-2.58524 3.81746,0 6.16108,2.58524 2.34363,2.56108 2.34363,6.7651 0,3.9141 -2.31947,6.5235 -2.2953,2.58523 -6.16107,2.58523 -3.84162,0 -6.16108,-2.58523 z m 6.16108,-12.78122 q -2.19866,0 -3.52752,1.69128 -1.32886,1.66711 -1.32886,4.44564 0,2.77852 1.32886,4.4698 1.32886,1.66712 3.52752,1.66712 2.17449,0 3.50335,-1.66712 1.35302,-1.66711 1.35302,-4.37316 0,-2.851 -1.32886,-4.54228 -1.30469,-1.69128 -3.52751,-1.69128 z"
           id="path4284-4"
           style="fill:#ffffff" />
        <path
           d="m 155.60296,936.73753 v 6.28188 h -3.62416 v -17.61343 h 7.77987 q 2.75436,0 4.20403,1.40134 1.47382,1.40134 1.47382,4.05906 0,2.68188 -1.44966,4.27651 -1.44967,1.59464 -3.86578,1.59464 z m 0,-3.02014 h 3.38255 q 2.82685,0 2.82685,-2.63356 0,-1.35302 -0.70067,-2.00537 -0.67651,-0.65235 -2.12618,-0.65235 h -3.38255 z"
           id="path4286-9"
           style="fill:#ffffff" />
        <path
           d="m 171.97776,935.43283 v 4.56644 h 9.54363 v 3.02014 H 168.3536 v -17.61343 h 12.73289 v 3.02013 h -9.10873 v 3.98658 h 8.43222 v 3.02014 z"
           id="path4288-5"
           style="fill:#ffffff" />
        <path
           d="m 194.3766,939.99927 q 0,-0.72483 0.0242,-1.13557 0.0242,-0.41074 0.0242,-0.72483 0,-1.11141 -0.53154,-1.59463 -0.53155,-0.50738 -1.71544,-0.50738 h -4.15571 v 6.98255 h -3.62416 v -17.61343 h 9.44698 q 1.35302,0 2.31947,0.45906 0.9906,0.45906 1.47382,1.20805 0.50739,0.749 0.72484,1.52215 0.21745,0.74899 0.21745,1.57047 0,3.18926 -2.97182,4.349 0.65235,0.26577 0.96645,0.4349 0.31409,0.14496 0.62818,0.50738 0.33826,0.36242 0.4349,0.65235 0.12081,0.28993 0.21745,1.06309 0.12081,0.77315 0.14497,1.52214 0.0242,0.749 0.0483,2.22282 0,1.01477 0.77316,1.44967 v 0.65235 h -3.88994 q -0.33825,-0.62819 -0.45906,-1.20806 -0.0966,-0.57986 -0.0966,-1.81208 z m 0.57986,-9.32618 q 0,-1.35302 -0.62819,-1.78792 -0.62818,-0.45906 -1.93288,-0.45906 h -4.37316 v 4.59061 h 4.37316 q 1.28054,0 1.90872,-0.45906 0.65235,-0.45906 0.65235,-1.88457 z"
           id="path4290-0"
           style="fill:#ffffff" />
        <path
           d="m 211.64347,939.46773 h -6.59598 l -1.18389,3.55168 h -3.69665 l 6.25772,-17.61343 h 4.01074 l 6.0886,17.61343 h -3.72081 z m -0.99061,-3.02014 -2.2953,-6.88591 -2.2953,6.88591 z"
           id="path4292-4"
           style="fill:#ffffff" />
        <path
           d="m 226.46063,928.42611 v 14.5933 h -3.62416 v -14.5933 h -5.3396 v -3.02013 h 14.11007 v 3.02013 z"
           id="path4294-8"
           style="fill:#ffffff" />
        <path
           d="m 237.90167,925.40598 v 17.61343 h -3.62416 v -17.61343 z"
           id="path4296-7"
           style="fill:#ffffff" />
        <path
           d="m 249.34307,943.01941 h -3.06846 l -5.94362,-17.61343 h 3.64832 l 3.9141,13.26443 3.84161,-13.26443 h 3.64832 z"
           id="path4298-1"
           style="fill:#ffffff" />
        <path
           d="m 267.56318,939.46773 h -6.59598 l -1.18389,3.55168 h -3.69665 l 6.25772,-17.61343 h 4.01074 l 6.0886,17.61343 h -3.72081 z m -0.99061,-3.02014 -2.2953,-6.88591 -2.29531,6.88591 z"
           id="path4300-7"
           style="fill:#ffffff" />
        <path
           d="m 281.32556,943.01941 v -17.61343 h 6.88591 q 2.02953,0 3.33423,0.48322 1.32886,0.48322 2.22282,1.54631 2.15033,2.56107 2.15033,6.7651 0,4.25235 -2.15033,6.76511 -1.71544,2.05369 -5.55705,2.05369 z m 3.62416,-3.02014 h 3.26175 q 4.08322,0 4.08322,-5.7745 0,-5.79866 -4.08322,-5.79866 h -3.26175 z"
           id="path4302-2"
           style="fill:#ffffff" />
        <path
           d="m 302.45708,935.43283 v 4.56644 h 9.54363 v 3.02014 h -13.1678 v -17.61343 h 12.7329 v 3.02013 h -9.10873 v 3.98658 h 8.43222 v 3.02014 z"
           id="path4304-7"
           style="fill:#ffffff" />
        <path
           d="m 334.50449,930.76974 h -3.38256 q -0.19328,-2.75437 -3.69664,-2.75437 -1.40135,0 -2.22282,0.60403 -0.82148,0.57987 -0.82148,1.57047 0,0.96645 0.70067,1.44967 0.70067,0.45906 2.63356,0.84564 l 2.75436,0.53154 q 2.44027,0.48322 3.55168,1.64295 1.11141,1.13557 1.11141,3.21343 0,2.68188 -1.90872,4.20403 -1.90873,1.49798 -5.31544,1.49798 -3.38255,0 -5.26712,-1.49798 -1.8604,-1.49799 -2.02953,-4.32484 h 3.52752 q 0.0966,1.42551 1.11141,2.1745 1.01477,0.74899 2.85101,0.74899 1.64295,0 2.58523,-0.62818 0.96645,-0.62819 0.96645,-1.7396 0,-1.06309 -0.749,-1.64296 -0.74899,-0.57986 -2.56107,-0.91812 l -2.46443,-0.48322 q -2.68188,-0.50738 -3.81745,-1.59463 -1.13557,-1.08725 -1.13557,-3.14094 0,-2.58524 1.73959,-3.98658 1.76376,-1.42551 4.92887,-1.42551 0.91812,0 1.76375,0.12081 0.8698,0.1208 1.83625,0.50738 0.96644,0.36242 1.66711,0.96645 0.70067,0.57986 1.15973,1.64295 0.48323,1.03893 0.48323,2.41611 z"
           id="path4306-2"
           style="fill:#ffffff" />
        <path
           d="m 341.67164,935.43283 v 4.56644 h 9.54363 v 3.02014 h -13.16779 v -17.61343 h 12.73289 v 3.02013 h -9.10873 v 3.98658 h 8.43222 v 3.02014 z"
           id="path4308-2"
           style="fill:#ffffff" />
        <path
           d="m 364.07049,939.99927 q 0,-0.72483 0.0242,-1.13557 0.0242,-0.41074 0.0242,-0.72483 0,-1.11141 -0.53154,-1.59463 -0.53155,-0.50738 -1.71544,-0.50738 h -4.15571 v 6.98255 h -3.62416 v -17.61343 h 9.44699 q 1.35302,0 2.31946,0.45906 0.99061,0.45906 1.47383,1.20805 0.50738,0.749 0.72483,1.52215 0.21745,0.74899 0.21745,1.57047 0,3.18926 -2.97181,4.349 0.65235,0.26577 0.96644,0.4349 0.31409,0.14496 0.62819,0.50738 0.33825,0.36242 0.4349,0.65235 0.1208,0.28993 0.21745,1.06309 0.1208,0.77315 0.14496,1.52214 0.0242,0.749 0.0483,2.22282 0,1.01477 0.77315,1.44967 v 0.65235 h -3.88993 q -0.33826,-0.62819 -0.45907,-1.20806 -0.0966,-0.57986 -0.0966,-1.81208 z m 0.57987,-9.32618 q 0,-1.35302 -0.62819,-1.78792 -0.62819,-0.45906 -1.93289,-0.45906 h -4.37316 v 4.59061 h 4.37316 q 1.28054,0 1.90873,-0.45906 0.65235,-0.45906 0.65235,-1.88457 z"
           id="path4310-6"
           style="fill:#ffffff" />
        <path
           d="m 379.11453,943.01941 h -3.06846 l -5.94363,-17.61343 h 3.64832 l 3.9141,13.26443 3.84161,-13.26443 h 3.64833 z"
           id="path4312-1"
           style="fill:#ffffff" />
        <path
           d="m 391.17355,925.40598 v 17.61343 h -3.62416 v -17.61343 z"
           id="path4314-0"
           style="fill:#ffffff" />
        <path
           d="m 406.04583,931.37377 q -0.67651,-3.16511 -3.76913,-3.16511 -2.15034,0 -3.35839,1.64296 -1.20806,1.64295 -1.20806,4.56644 0,2.87517 1.15973,4.49396 1.1839,1.6188 3.28591,1.6188 1.69128,0 2.70604,-0.91812 1.01477,-0.91813 1.1839,-2.6094 h 3.52752 q -0.16913,3.02013 -2.19866,4.80805 -2.02953,1.76376 -5.31544,1.76376 -3.67249,0 -5.82282,-2.46443 -2.15034,-2.48859 -2.15034,-6.74094 0,-4.27651 2.1745,-6.7651 2.17449,-2.4886 5.8953,-2.4886 3.11678,0 5.09799,1.66712 2.00537,1.66711 2.24698,4.59061 z"
           id="path4316-6"
           style="fill:#ffffff" />
        <path
           d="m 416.08969,925.40598 v 17.61343 h -3.62416 v -17.61343 z"
           id="path4318-1"
           style="fill:#ffffff" />
        <path
           d="m 421.32169,940.98988 q -2.31946,-2.58524 -2.31946,-6.6443 0,-4.05906 2.31946,-6.6443 2.34363,-2.58524 6.13692,-2.58524 3.81745,0 6.16107,2.58524 2.34363,2.56108 2.34363,6.7651 0,3.9141 -2.31946,6.5235 -2.29531,2.58523 -6.16108,2.58523 -3.84161,0 -6.16108,-2.58523 z m 6.16108,-12.78122 q -2.19866,0 -3.52752,1.69128 -1.32886,1.66711 -1.32886,4.44564 0,2.77852 1.32886,4.4698 1.32886,1.66712 3.52752,1.66712 2.1745,0 3.50336,-1.66712 1.35302,-1.66711 1.35302,-4.37316 0,-2.851 -1.32886,-4.54228 -1.3047,-1.69128 -3.52752,-1.69128 z"
           id="path4320-5"
           style="fill:#ffffff" />
        <path
           d="m 451.77071,930.76974 h -3.38256 q -0.19328,-2.75437 -3.69664,-2.75437 -1.40135,0 -2.22282,0.60403 -0.82148,0.57987 -0.82148,1.57047 0,0.96645 0.70067,1.44967 0.70067,0.45906 2.63356,0.84564 l 2.75436,0.53154 q 2.44027,0.48322 3.55168,1.64295 1.11141,1.13557 1.11141,3.21343 0,2.68188 -1.90872,4.20403 -1.90873,1.49798 -5.31544,1.49798 -3.38255,0 -5.26712,-1.49798 -1.8604,-1.49799 -2.02953,-4.32484 h 3.52752 q 0.0966,1.42551 1.11141,2.1745 1.01477,0.74899 2.85101,0.74899 1.64295,0 2.58523,-0.62818 0.96645,-0.62819 0.96645,-1.7396 0,-1.06309 -0.749,-1.64296 -0.74899,-0.57986 -2.56107,-0.91812 l -2.46443,-0.48322 q -2.68188,-0.50738 -3.81745,-1.59463 -1.13557,-1.08725 -1.13557,-3.14094 0,-2.58524 1.73959,-3.98658 1.76376,-1.42551 4.92887,-1.42551 0.91812,0 1.76375,0.12081 0.8698,0.1208 1.83625,0.50738 0.96644,0.36242 1.66711,0.96645 0.70067,0.57986 1.15973,1.64295 0.48323,1.03893 0.48323,2.41611 z"
           id="path4322-9"
           style="fill:#ffffff" />
        <path
           d="m 465.63879,925.40598 v 17.61343 h -3.62416 v -17.61343 z"
           id="path4324-4"
           style="fill:#ffffff" />
        <path
           d="m 480.22113,943.01941 -7.07919,-12.17719 v 12.17719 h -3.62417 v -17.61343 h 3.72081 l 6.98255,11.9839 v -11.9839 h 3.62417 v 17.61343 z"
           id="path4326-9"
           style="fill:#ffffff" />
        <path
           d="m 491.35715,935.43283 v 7.58658 h -3.62417 v -17.61343 h 12.37048 v 3.02013 h -8.74631 v 3.98658 h 7.70738 v 3.02014 z"
           id="path4328-0"
           style="fill:#ffffff" />
        <path
           d="m 504.37543,940.98988 q -2.31946,-2.58524 -2.31946,-6.6443 0,-4.05906 2.31946,-6.6443 2.34363,-2.58524 6.13692,-2.58524 3.81745,0 6.16108,2.58524 2.34362,2.56108 2.34362,6.7651 0,3.9141 -2.31946,6.5235 -2.29531,2.58523 -6.16108,2.58523 -3.84161,0 -6.16108,-2.58523 z m 6.16108,-12.78122 q -2.19866,0 -3.52752,1.69128 -1.32886,1.66711 -1.32886,4.44564 0,2.77852 1.32886,4.4698 1.32886,1.66712 3.52752,1.66712 2.1745,0 3.50336,-1.66712 1.35302,-1.66711 1.35302,-4.37316 0,-2.851 -1.32886,-4.54228 -1.3047,-1.69128 -3.52752,-1.69128 z"
           id="path4330-9"
           style="fill:#ffffff" />
        <path
           d="m 531.8768,939.99927 q 0,-0.72483 0.0242,-1.13557 0.0242,-0.41074 0.0242,-0.72483 0,-1.11141 -0.53155,-1.59463 -0.53154,-0.50738 -1.71543,-0.50738 h -4.15571 v 6.98255 h -3.62416 v -17.61343 h 9.44698 q 1.35302,0 2.31947,0.45906 0.9906,0.45906 1.47382,1.20805 0.50738,0.749 0.72483,1.52215 0.21745,0.74899 0.21745,1.57047 0,3.18926 -2.97181,4.349 0.65235,0.26577 0.96644,0.4349 0.3141,0.14496 0.62819,0.50738 0.33826,0.36242 0.4349,0.65235 0.12081,0.28993 0.21745,1.06309 0.12081,0.77315 0.14497,1.52214 0.0242,0.749 0.0483,2.22282 0,1.01477 0.77316,1.44967 v 0.65235 h -3.88994 q -0.33826,-0.62819 -0.45906,-1.20806 -0.0966,-0.57986 -0.0966,-1.81208 z m 0.57986,-9.32618 q 0,-1.35302 -0.62819,-1.78792 -0.62819,-0.45906 -1.93288,-0.45906 h -4.37316 v 4.59061 h 4.37316 q 1.28053,0 1.90872,-0.45906 0.65235,-0.45906 0.65235,-1.88457 z"
           id="path4332-1"
           style="fill:#ffffff" />
        <path
           d="m 542.98257,929.29591 v 13.7235 h -3.62416 v -17.61343 h 5.41208 l 3.18927,14.01343 3.09262,-14.01343 h 5.4604 v 17.61343 h -3.62416 v -13.7235 l -3.11678,13.7235 h -3.62416 z"
           id="path4334-7"
           style="fill:#ffffff" />
        <path
           d="m 570.14304,939.46773 h -6.59598 l -1.18389,3.55168 h -3.69665 l 6.25773,-17.61343 h 4.01074 l 6.08859,17.61343 h -3.72081 z m -0.9906,-3.02014 -2.29531,-6.88591 -2.2953,6.88591 z"
           id="path4336-7"
           style="fill:#ffffff" />
        <path
           d="m 584.96019,928.42611 v 14.5933 h -3.62416 v -14.5933 h -5.3396 v -3.02013 h 14.11007 v 3.02013 z"
           id="path4338-1"
           style="fill:#ffffff" />
        <path
           d="m 596.40124,925.40598 v 17.61343 h -3.62416 v -17.61343 z"
           id="path4340-1"
           style="fill:#ffffff" />
        <path
           d="m 611.27352,931.37377 q -0.67651,-3.16511 -3.76913,-3.16511 -2.15034,0 -3.35839,1.64296 -1.20806,1.64295 -1.20806,4.56644 0,2.87517 1.15974,4.49396 1.18389,1.6188 3.2859,1.6188 1.69128,0 2.70605,-0.91812 1.01476,-0.91813 1.18389,-2.6094 h 3.52752 q -0.16913,3.02013 -2.19866,4.80805 -2.02953,1.76376 -5.31544,1.76376 -3.67249,0 -5.82282,-2.46443 -2.15034,-2.48859 -2.15034,-6.74094 0,-4.27651 2.1745,-6.7651 2.1745,-2.4886 5.8953,-2.4886 3.11678,0 5.09799,1.66712 2.00537,1.66711 2.24698,4.59061 z"
           id="path4342-5"
           style="fill:#ffffff" />
        <path
           d="m 619.04624,940.98988 q -2.31946,-2.58524 -2.31946,-6.6443 0,-4.05906 2.31946,-6.6443 2.34362,-2.58524 6.13692,-2.58524 3.81745,0 6.16107,2.58524 2.34363,2.56108 2.34363,6.7651 0,3.9141 -2.31947,6.5235 -2.2953,2.58523 -6.16107,2.58523 -3.84162,0 -6.16108,-2.58523 z m 6.16108,-12.78122 q -2.19866,0 -3.52752,1.69128 -1.32886,1.66711 -1.32886,4.44564 0,2.77852 1.32886,4.4698 1.32886,1.66712 3.52752,1.66712 2.17449,0 3.50335,-1.66712 1.35303,-1.66711 1.35303,-4.37316 0,-2.851 -1.32886,-4.54228 -1.3047,-1.69128 -3.52752,-1.69128 z"
           id="path4344-9"
           style="fill:#ffffff" />
        <path
           d="m 649.49519,930.76974 h -3.38255 q -0.19329,-2.75437 -3.69664,-2.75437 -1.40135,0 -2.22282,0.60403 -0.82148,0.57987 -0.82148,1.57047 0,0.96645 0.70067,1.44967 0.70067,0.45906 2.63356,0.84564 l 2.75436,0.53154 q 2.44027,0.48322 3.55168,1.64295 1.11141,1.13557 1.11141,3.21343 0,2.68188 -1.90872,4.20403 -1.90873,1.49798 -5.31544,1.49798 -3.38256,0 -5.26712,-1.49798 -1.8604,-1.49799 -2.02953,-4.32484 h 3.52752 q 0.0966,1.42551 1.11141,2.1745 1.01476,0.74899 2.85101,0.74899 1.64295,0 2.58523,-0.62818 0.96645,-0.62819 0.96645,-1.7396 0,-1.06309 -0.749,-1.64296 -0.74899,-0.57986 -2.56107,-0.91812 l -2.46443,-0.48322 q -2.68189,-0.50738 -3.81746,-1.59463 -1.13557,-1.08725 -1.13557,-3.14094 0,-2.58524 1.7396,-3.98658 1.76376,-1.42551 4.92886,-1.42551 0.91812,0 1.76376,0.12081 0.8698,0.1208 1.83624,0.50738 0.96645,0.36242 1.66712,0.96645 0.70067,0.57986 1.15973,1.64295 0.48322,1.03893 0.48322,2.41611 z"
           id="path4346-7"
           style="fill:#ffffff" />
        <path
           d="m 217.57049,961.57512 q -0.67651,-3.1651 -3.76913,-3.1651 -2.15034,0 -3.35839,1.64296 -1.20806,1.64295 -1.20806,4.56644 0,2.87517 1.15973,4.49396 1.1839,1.6188 3.28591,1.6188 1.69128,0 2.70604,-0.91813 1.01477,-0.91812 1.1839,-2.60939 h 3.52752 q -0.16913,3.02013 -2.19866,4.80805 -2.02953,1.76376 -5.31544,1.76376 -3.67249,0 -5.82282,-2.46443 -2.15034,-2.48859 -2.15034,-6.74094 0,-4.27651 2.1745,-6.76511 2.17449,-2.48859 5.8953,-2.48859 3.11678,0 5.09799,1.66712 2.00537,1.66711 2.24698,4.5906 z"
           id="path4348-7"
           style="fill:#ffffff" />
        <path
           d="m 225.34318,971.19124 q -2.31946,-2.58524 -2.31946,-6.6443 0,-4.05906 2.31946,-6.6443 2.34363,-2.58524 6.13692,-2.58524 3.81745,0 6.16108,2.58524 2.34362,2.56107 2.34362,6.7651 0,3.9141 -2.31946,6.5235 -2.2953,2.58523 -6.16108,2.58523 -3.84161,0 -6.16108,-2.58523 z m 6.16108,-12.78122 q -2.19866,0 -3.52752,1.69128 -1.32886,1.66711 -1.32886,4.44564 0,2.77852 1.32886,4.4698 1.32886,1.66711 3.52752,1.66711 2.1745,0 3.50336,-1.66711 1.35302,-1.66712 1.35302,-4.37316 0,-2.85101 -1.32886,-4.54228 -1.3047,-1.69128 -3.52752,-1.69128 z"
           id="path4350-6"
           style="fill:#ffffff" />
        <path
           d="m 253.56937,973.22077 -7.0792,-12.17719 v 12.17719 h -3.62416 v -17.61343 h 3.72081 l 6.98255,11.98389 v -11.98389 h 3.62417 v 17.61343 z"
           id="path4352-7"
           style="fill:#ffffff" />
        <path
           d="m 275.53784,958.62747 v 14.5933 h -3.62416 v -14.5933 h -5.3396 v -3.02013 h 14.11007 v 3.02013 z"
           id="path4354-3"
           style="fill:#ffffff" />
        <path
           d="m 286.97887,965.63419 v 4.56644 h 9.54363 v 3.02014 h -13.16779 v -17.61343 h 12.73289 v 3.02013 h -9.10873 v 3.98658 h 8.43222 v 3.02014 z"
           id="path4356-6"
           style="fill:#ffffff" />
        <path
           d="m 310.39248,961.57512 q -0.67651,-3.1651 -3.76913,-3.1651 -2.15034,0 -3.35839,1.64296 -1.20806,1.64295 -1.20806,4.56644 0,2.87517 1.15974,4.49396 1.18389,1.6188 3.2859,1.6188 1.69128,0 2.70604,-0.91813 1.01477,-0.91812 1.1839,-2.60939 H 313.92 q -0.16913,3.02013 -2.19866,4.80805 -2.02953,1.76376 -5.31544,1.76376 -3.67249,0 -5.82282,-2.46443 -2.15034,-2.48859 -2.15034,-6.74094 0,-4.27651 2.1745,-6.76511 2.1745,-2.48859 5.8953,-2.48859 3.11678,0 5.09799,1.66712 2.00537,1.66711 2.24698,4.5906 z"
           id="path4358-5"
           style="fill:#ffffff" />
        <path
           d="m 327.51552,973.22077 -7.0792,-12.17719 v 12.17719 h -3.62416 v -17.61343 h 3.7208 l 6.98256,11.98389 v -11.98389 h 3.62416 v 17.61343 z"
           id="path4360-6"
           style="fill:#ffffff" />
        <path
           d="m 336.38036,971.19124 q -2.31946,-2.58524 -2.31946,-6.6443 0,-4.05906 2.31946,-6.6443 2.34363,-2.58524 6.13692,-2.58524 3.81745,0 6.16108,2.58524 2.34362,2.56107 2.34362,6.7651 0,3.9141 -2.31946,6.5235 -2.29531,2.58523 -6.16108,2.58523 -3.84161,0 -6.16108,-2.58523 z m 6.16108,-12.78122 q -2.19866,0 -3.52752,1.69128 -1.32886,1.66711 -1.32886,4.44564 0,2.77852 1.32886,4.4698 1.32886,1.66711 3.52752,1.66711 2.1745,0 3.50336,-1.66711 1.35302,-1.66712 1.35302,-4.37316 0,-2.85101 -1.32886,-4.54228 -1.3047,-1.69128 -3.52752,-1.69128 z"
           id="path4362-3"
           style="fill:#ffffff" />
        <path
           d="m 357.52736,955.60734 v 14.59329 h 8.43222 v 3.02014 H 353.9032 v -17.61343 z"
           id="path4364-9"
           style="fill:#ffffff" />
        <path
           d="m 370.21532,971.19124 q -2.31946,-2.58524 -2.31946,-6.6443 0,-4.05906 2.31946,-6.6443 2.34363,-2.58524 6.13692,-2.58524 3.81745,0 6.16108,2.58524 2.34362,2.56107 2.34362,6.7651 0,3.9141 -2.31946,6.5235 -2.2953,2.58523 -6.16108,2.58523 -3.84161,0 -6.16108,-2.58523 z m 6.16108,-12.78122 q -2.19866,0 -3.52752,1.69128 -1.32886,1.66711 -1.32886,4.44564 0,2.77852 1.32886,4.4698 1.32886,1.66711 3.52752,1.66711 2.1745,0 3.50336,-1.66711 1.35302,-1.66712 1.35302,-4.37316 0,-2.85101 -1.32886,-4.54228 -1.3047,-1.69128 -3.52752,-1.69128 z"
           id="path4366-4"
           style="fill:#ffffff" />
        <path
           d="m 399.52877,961.18855 q -0.96645,-2.82685 -4.20403,-2.82685 -2.2953,0 -3.62416,1.61879 -1.3047,1.6188 -1.3047,4.4698 0,2.70605 1.40134,4.44564 1.4255,1.7396 3.62416,1.7396 0.33826,0 0.77316,-0.0725 0.45906,-0.0966 1.08725,-0.33826 0.62819,-0.26577 1.15973,-0.67651 0.53154,-0.41074 0.94228,-1.13557 0.41074,-0.74899 0.50738,-1.69127 h -4.01074 v -3.02014 h 7.05504 v 9.51947 h -2.1745 l -0.4349,-2.31947 q -1.01476,1.47383 -2.27114,2.15034 -1.25637,0.67651 -3.0443,0.67651 -3.57584,0 -5.91946,-2.6094 -2.31947,-2.60939 -2.31947,-6.62013 0,-4.10739 2.36779,-6.66846 2.36779,-2.56108 6.16108,-2.56108 3.18926,0 5.24295,1.59463 2.0537,1.59463 2.39195,4.32484 h -3.40671 z"
           id="path4368-8"
           style="fill:#ffffff" />
        <path
           d="m 409.95503,955.60734 v 17.61343 h -3.62416 v -17.61343 z"
           id="path4370-1"
           style="fill:#ffffff" />
        <path
           d="m 423.61925,969.66909 h -6.59597 l -1.1839,3.55168 h -3.69664 l 6.25772,-17.61343 h 4.01074 l 6.08859,17.61343 h -3.7208 z m -0.9906,-3.02014 -2.2953,-6.88591 -2.29531,6.88591 z"
           id="path4372-2"
           style="fill:#ffffff" />
        <path
           d="m 443.60689,960.9711 h -3.38255 q -0.19329,-2.75437 -3.69665,-2.75437 -1.40134,0 -2.22282,0.60403 -0.82148,0.57987 -0.82148,1.57047 0,0.96644 0.70068,1.44967 0.70067,0.45906 2.63355,0.84563 l 2.75437,0.53155 q 2.44027,0.48322 3.55168,1.64295 1.11141,1.13557 1.11141,3.21343 0,2.68188 -1.90873,4.20403 -1.90872,1.49798 -5.31544,1.49798 -3.38255,0 -5.26711,-1.49798 -1.86041,-1.49799 -2.02954,-4.32484 h 3.52752 q 0.0967,1.42551 1.11141,2.1745 1.01477,0.74899 2.85101,0.74899 1.64296,0 2.58524,-0.62819 0.96644,-0.62818 0.96644,-1.73959 0,-1.06309 -0.74899,-1.64296 -0.749,-0.57986 -2.56108,-0.91812 l -2.46443,-0.48322 q -2.68188,-0.50738 -3.81745,-1.59463 -1.13557,-1.08725 -1.13557,-3.14094 0,-2.58524 1.7396,-3.98658 1.76376,-1.42551 4.92886,-1.42551 0.91812,0 1.76376,0.12081 0.8698,0.1208 1.83624,0.50738 0.96644,0.36242 1.66712,0.96644 0.70067,0.57987 1.15973,1.64296 0.48322,1.03892 0.48322,2.41611 z"
           id="path4374-9"
           style="fill:#ffffff" />
        <path
           d="m 457.47498,955.60734 v 14.59329 h 8.43222 v 3.02014 h -12.05639 v -17.61343 z"
           id="path4376-3"
           style="fill:#ffffff" />
        <path
           d="m 472.43408,955.60734 v 17.61343 h -3.62416 v -17.61343 z"
           id="path4378-9"
           style="fill:#ffffff" />
        <path
           d="m 490.42317,968.14694 q 0,0.8698 -0.28993,1.69128 -0.28994,0.82147 -0.94229,1.61879 -0.62819,0.79731 -1.90872,1.28054 -1.28054,0.48322 -3.0443,0.48322 h -7.92484 v -17.61343 h 7.85236 q 1.64295,0 2.82684,0.48322 1.20806,0.48322 1.78792,1.25637 0.60403,0.749 0.8698,1.47383 0.26578,0.72483 0.26578,1.4255 0,1.13558 -0.55571,1.95705 -0.5557,0.82148 -1.8604,1.66712 2.92349,1.71543 2.92349,4.27651 z m -10.48591,-9.51947 v 3.98658 h 3.93825 q 2.56108,0 2.56108,-1.98121 0,-2.00537 -2.56108,-2.00537 z m 0,7.00672 v 4.56644 h 4.32483 q 2.68188,0 2.68188,-2.27114 0,-2.2953 -2.68188,-2.2953 z"
           id="path4380-0"
           style="fill:#ffffff" />
        <path
           d="m 503.27987,970.20063 q 0,-0.72483 0.0242,-1.13557 0.0242,-0.41074 0.0242,-0.72483 0,-1.11141 -0.53155,-1.59463 -0.53154,-0.50739 -1.71544,-0.50739 h -4.1557 v 6.98256 h -3.62417 v -17.61343 h 9.44699 q 1.35302,0 2.31946,0.45906 0.99061,0.45906 1.47383,1.20805 0.50738,0.74899 0.72483,1.52215 0.21745,0.74899 0.21745,1.57047 0,3.18926 -2.97181,4.349 0.65235,0.26577 0.96644,0.43489 0.3141,0.14497 0.62819,0.50739 0.33826,0.36241 0.4349,0.65235 0.12081,0.28993 0.21745,1.06308 0.12081,0.77316 0.14497,1.52215 0.0242,0.749 0.0483,2.22282 0,1.01477 0.77315,1.44967 v 0.65235 h -3.88993 q -0.33826,-0.62819 -0.45906,-1.20806 -0.0967,-0.57986 -0.0967,-1.81208 z m 0.57987,-9.32618 q 0,-1.35302 -0.62819,-1.78792 -0.62819,-0.45906 -1.93289,-0.45906 h -4.37315 v 4.59061 h 4.37315 q 1.28054,0 1.90873,-0.45906 0.65235,-0.45906 0.65235,-1.88457 z"
           id="path4382-8"
           style="fill:#ffffff" />
        <path
           d="m 514.38568,965.63419 v 4.56644 h 9.54363 v 3.02014 h -13.16779 v -17.61343 h 12.73289 v 3.02013 h -9.10873 v 3.98658 h 8.43222 v 3.02014 z"
           id="path4384-8"
           style="fill:#ffffff" />
        <path
           d="m 539.73216,960.9711 h -3.38255 q -0.19329,-2.75437 -3.69664,-2.75437 -1.40135,0 -2.22282,0.60403 -0.82148,0.57987 -0.82148,1.57047 0,0.96644 0.70067,1.44967 0.70067,0.45906 2.63356,0.84563 l 2.75436,0.53155 q 2.44027,0.48322 3.55168,1.64295 1.11141,1.13557 1.11141,3.21343 0,2.68188 -1.90872,4.20403 -1.90873,1.49798 -5.31544,1.49798 -3.38255,0 -5.26712,-1.49798 -1.8604,-1.49799 -2.02953,-4.32484 h 3.52752 q 0.0966,1.42551 1.11141,2.1745 1.01476,0.74899 2.85101,0.74899 1.64295,0 2.58523,-0.62819 0.96645,-0.62818 0.96645,-1.73959 0,-1.06309 -0.749,-1.64296 -0.74899,-0.57986 -2.56107,-0.91812 l -2.46443,-0.48322 q -2.68188,-0.50738 -3.81746,-1.59463 -1.13557,-1.08725 -1.13557,-3.14094 0,-2.58524 1.7396,-3.98658 1.76376,-1.42551 4.92886,-1.42551 0.91812,0 1.76376,0.12081 0.8698,0.1208 1.83625,0.50738 0.96644,0.36242 1.66711,0.96644 0.70067,0.57987 1.15973,1.64296 0.48322,1.03892 0.48322,2.41611 z"
           id="path4386-5"
           style="fill:#ffffff" />
      </g>
    </g>
  </g>
</svg>
