<?xml version="1.0" encoding="UTF-8" standalone="no"?>
<!-- Created with Inkscape (http://www.inkscape.org/) -->

<svg
   xmlns:dc="http://purl.org/dc/elements/1.1/"
   xmlns:cc="http://creativecommons.org/ns#"
   xmlns:rdf="http://www.w3.org/1999/02/22-rdf-syntax-ns#"
   xmlns:svg="http://www.w3.org/2000/svg"
   xmlns="http://www.w3.org/2000/svg"
   xmlns:sodipodi="http://sodipodi.sourceforge.net/DTD/sodipodi-0.dtd"
   xmlns:inkscape="http://www.inkscape.org/namespaces/inkscape"
   version="1.1"
   id="svg2"
   xml:space="preserve"
   width="640"
   height="640"
   viewBox="0 0 640 640"
   sodipodi:docname="logo_free-ola_black-white.svg"
   inkscape:version="0.92.3 (2405546, 2018-03-11)"
   inkscape:export-filename="/home/brain/projects/freeolabini.github.io/media-kit/logo_free-ola_black-white.png"
   inkscape:export-xdpi="384"
   inkscape:export-ydpi="384"><metadata
     id="metadata8"><rdf:RDF><cc:Work
         rdf:about=""><dc:format>image/svg+xml</dc:format><dc:type
           rdf:resource="http://purl.org/dc/dcmitype/StillImage" /><dc:title></dc:title></cc:Work></rdf:RDF></metadata><defs
     id="defs6"><clipPath
       clipPathUnits="userSpaceOnUse"
       id="clipPath18"><path
         d="M 0,480 H 480 V 0 H 0 Z"
         id="path16"
         inkscape:connector-curvature="0" /></clipPath></defs><sodipodi:namedview
     pagecolor="#000000"
     bordercolor="#666666"
     borderopacity="1"
     objecttolerance="10"
     gridtolerance="10"
     guidetolerance="10"
     inkscape:pageopacity="0"
     inkscape:pageshadow="2"
     inkscape:window-width="2560"
     inkscape:window-height="1329"
     id="namedview4"
     showgrid="false"
     inkscape:zoom="1.4142136"
     inkscape:cx="364.37092"
     inkscape:cy="345.98256"
     inkscape:window-x="0"
     inkscape:window-y="55"
     inkscape:window-maximized="1"
     inkscape:current-layer="g14"
     inkscape:pagecheckerboard="true" /><g
     id="g10"
     inkscape:groupmode="layer"
     inkscape:label="ola"
     transform="matrix(1.3333333,0,0,-1.3333333,0,640)"><g
       id="g12"><g
         id="g14"
         clip-path="url(#clipPath18)"><rect
           style="fill:#000000;fill-opacity:1;stroke-width:0.73070282"
           id="rect984"
           width="480"
           height="480"
           x="0"
           y="-480"
           transform="scale(1,-1)" /><g
           id="g128"
           transform="matrix(1.1450657,0,0,1.1450657,301.37251,417.59002)"
           style="fill:#ffffff"><path
             d="m 66.769,-55.565 c 0.077,0 0.154,-0.001 0.231,-0.002 0.767,-0.255 1.526,-0.535 2.301,-0.76 0.928,-0.269 1.995,-0.293 2.776,-0.783 1.027,-0.645 2.134,-0.776 3.234,-1.034 0.421,-0.099 0.872,-0.078 1.309,-0.112 0.902,-0.369 1.776,-0.849 2.712,-1.087 4.59,-1.169 9.191,-2.291 13.798,-3.391 2.286,-0.546 4.592,-1.007 6.889,-1.507 3.794,-1.083 7.587,-2.166 11.382,-3.249 0.552,-0.188 1.105,-0.376 1.657,-0.564 3.037,-1.38 6.213,-2.404 9.22,-3.899 3.069,-1.525 6.278,-2.735 8.798,-5.168 0.701,-0.806 1.379,-1.633 2.108,-2.414 1.74,-1.864 2.897,-4.049 3.644,-6.469 0.058,-0.184 0.161,-0.354 0.242,-0.53 0.658,-2.617 1.055,-5.27 1.206,-7.967 0.064,-1.124 0.309,-2.238 0.471,-3.356 -0.073,-0.517 0.0216,-1.146786 -0.0104,-1.665786 -0.04,-0.657004 -0.0924,-1.319004 -0.0994,-1.978004 -0.0822,-1.94356 -0.004,-4.07496 -0.66069,-5.9891 -0.34522,-1.21538 -0.87471,-2.15892 -1.25841,-3.45284 -0.57347,-1.53787 -0.62863,-1.72392 -1.34436,-2.99123 0.001,-0.075 -0.0585,-0.27262 -0.0585,-0.27262 l -0.004,-0.004 c -0.15158,-0.70021 -0.22488,-0.8574 -0.60828,-1.26942 -0.267,-0.546 -0.619,-1.26 -0.97,-1.974 l -0.004,-0.005 c -0.081,-0.49436 -0.42865,-0.87921 -0.901,-1.49 -0.62502,-0.89288 -1.04529,-1.70936 -2.007,-2.776 l -0.02,-0.033 c -0.063,-0.087 -0.125,-0.175 -0.188,-0.262 v 0 c -0.37075,-0.53614 -0.39355,-0.68799 -1.059,-1.275 l -0.059,-0.067 c -0.49925,-0.66057 -1.20017,-1.47421 -1.946,-2.313 l -0.007,10e-4 c -0.088,-0.072 -0.176,-0.142 -0.264,-0.213 l 0.002,0.005 c -0.74666,-1.05603 -4.39264,-5.39945 -5.068,-5.974 l -0.001,-0.003 c -0.72117,-1.31358 -3.99394,-5.534 -4.477,-6.062 l -0.009,-0.006 c -1.26796,-1.69853 -2.62188,-3.21554 -4.10306,-4.5333 -1.51148,-1.22313 -5.06182,-5.10595 -6.29294,-6.4217 -0.464,-0.333 -0.952,-0.638 -1.384,-1.009 -0.341,-0.293 -0.59,-0.693 -0.922,-1 -0.628,-0.583 -1.277,-1.147 -1.937,-1.694 -1.081,-0.894 -2.203,-1.74 -3.261,-2.659 -1.111,-0.966 -2.706,-1.46 -3.123,-3.128 -0.02,-0.086 -0.2,-0.214 -0.265,-0.193 -1.470406,-1.18358 -3.238696,-2.88727 -4.66,-3.706 -0.714687,-0.70525 -1.444,-1.139 -2.126,-1.773 -0.738,-0.686 -1.369,-1.511 -2.177,-2.096 -1.654,-1.196 -3.399,-2.265 -5.096,-3.402 -0.353,-0.236 -0.635,-0.735 -0.989,-0.778 -1.174,-0.139 -1.883,-1.124 -2.94,-1.466 -0.483,-0.156 -0.881,-0.579 -1.371,-0.919 -1.225053,-0.70864 -3.369756,-1.48518 -3.87,-2.517 -0.105,-0.153 -0.285,-0.256 -0.432,-0.382 -0.258,-0.098 -0.551,-0.146 -0.769,-0.302 -0.804,-0.573 -1.572,-1.198 -2.377,-1.771 -0.365,-0.26 -0.868,-0.368 -1.157,-0.683 -0.418,-0.454 -0.876,-0.61 -1.449,-0.58 -0.604,0.432 -0.698,-0.208 -0.965,-0.466 -0.585,-0.562 -1.201,-0.568 -1.3,0.093 -0.15,0.994 -0.786,1.906 -0.432,3.003 0.533,1.652 0.909,3.344 1.13,5.075 0.227,1.778 0.592,3.539 0.825,5.317 0.191,1.453 0.247,2.922 0.414,4.379 0.153,1.334 0.372,2.661 0.563,3.99 0.088,0.721 0.177,1.443 0.265,2.163 0.152,0.959 0.355,1.913 0.421,2.877 0.02,0.272 -0.359,0.572 -0.555,0.858 l -0.028,0.015 c 0.167,0.261 0.347,0.515 0.496,0.786 0.186,0.334 0.509,0.691 0.491,1.021 -0.097,1.656 -0.275,3.308 -0.46,4.957 -0.021,0.186 -0.273,0.346 -0.417,0.518 -0.066,0.019 -0.132,0.029 -0.201,0.03 -0.157,0.639 -0.314,1.28 -0.47,1.919 -0.548,1.365 -1.097,2.731 -1.645,4.096 -0.549,1.597 -1.101,3.192 -1.642,4.792 -0.088,0.26 -0.037,0.608 -0.194,0.795 -0.659,0.789 -0.71,1.737 -0.833,2.682 -0.049,0.381 -0.199,0.754 -0.33,1.121 -0.74,2.074 -1.114,4.237 -1.015,6.411 0.113,2.472 -0.203,4.881 -0.584,7.294 -0.278,1.749 -0.644,3.484 -0.917,5.234 -0.312,1.993 -0.355,4.014 -0.99,5.975 -0.58,1.791 -0.875,3.674 -1.295,5.517 0.006,0.118 0.05,0.251 0.013,0.353 -0.675,1.812 -1.342,3.626 -2.046,5.427 -0.62,1.587 -1.104,3.263 -1.959,4.717 -4.698,7.991 -12.015,12.101 -20.902,13.741 -1.802,0.333 -3.668,0.315 -5.473,0.639 -2.63,0.473 -5.213,1.224 -7.849,1.645 -3.013,0.481 -6.065,0.718 -9.096,1.086 -0.908,0.11 -1.8,0.378 -2.708,0.445 -1.473,0.11 -2.954,0.086 -4.429,0.17 -2.556,0.145 -5.108,0.38 -7.666,0.481 -2.126,0.084 -4.257,0.022 -6.386,0.039 -1.405,0.011 -2.814,-0.008 -4.214,0.091 -1.051,0.074 -2.101,-0.014 -3.125,0.029 -0.833,0.034 -1.798,0.132 -2.512,-0.004 -1.656,-0.316 -3.249,0.613 -4.852,0.013 -0.028,-0.011 -0.074,0.037 -0.111,0.035 -1.281,-0.043 -2.562,-0.086 -3.844,-0.135 -1.34,-0.051 -2.677,-0.128 -4.017,-0.152 -0.938,-0.017 -1.881,0.101 -2.815,0.045 -1.877,-0.114 -3.748,-0.318 -5.623,-0.461 -1.461,-0.111 -2.928,-0.153 -4.387,-0.284 -1.678,-0.151 -3.364,0.04 -5.045,-0.337 -1.28,-0.287 -2.631,-0.244 -3.946,-0.387 -0.831,-0.089 -1.661,-0.54 -2.469,0.113 -0.084,0.068 -0.343,-0.097 -0.525,-0.13 -1.148,-0.206 -2.29,-0.458 -3.447,-0.592 -0.929,-0.108 -1.929,0.464 -2.798,-0.326 -0.119,-0.108 -0.384,-0.07 -0.582,-0.077 -0.746,-0.027 -1.494,-0.028 -2.239,-0.072 -0.463,-0.028 -0.93,-0.086 -1.384,-0.186 -0.986,-0.216 -1.955,-0.541 -2.951,-0.684 -0.996,-0.143 -2.032,-0.025 -3.023,-0.188 -1.92,-0.313 -3.833,-0.688 -5.725,-1.138 -2.832,-0.673 -5.643,-1.433 -8.463,-2.157 -5.752,-1.61 -11.509,-3.201 -17.253,-4.841 -2.339,-0.668 -4.632,-1.477 -6.742,-2.728 -0.905,-0.537 -1.529,-1.314 -1.553,-2.356 -0.038,-1.631 0.074,-3.265 0.122,-4.899 -0.081,-1.065 -0.237,-2.131 -0.228,-3.196 0.034,-3.842 -1.061,-7.332 -3.306,-10.421 -1.972,-2.713 -3.389,-5.699 -4.382,-8.857 -1.833,-5.836 -3.517,-11.72 -5.217,-17.597 -0.315,-1.088 -0.41,-2.24 -0.613,-3.362 -0.215,-1.199 -0.438,-2.396 -0.657,-3.594 -0.56398,-2.3772 -1.2979,-5.1487 -1.79657,-7.59564 -0.62119,-2.87539 -2.6575,-10.31987 -3.25443,-13.28336 -0.4,-1.508 -0.802,-3.016 -1.203,-4.523 -0.159,-0.408 -0.318,-0.815 -0.478,-1.223 -0.048,-0.061 -0.128,-0.117 -0.14,-0.185 -0.576,-3.259 -1.778,-6.296 -3.263,-9.232 -0.389,-0.77 -0.972,-1.477 -1.196,-2.288 -0.595,-2.159 -1.043,-4.359 -1.549,-6.543 -0.232,-1.375 -0.565,-2.743 -0.669,-4.128 -0.112,-1.508 -1.057,-2.553 -1.818,-3.678 -0.721,-1.066 -2.285,-0.93 -2.768,0.171 -0.46,1.048 -0.923,2.13 -1.133,3.245 -0.541,2.882 -0.943,5.791 -1.401,8.688 -0.397,2.873 -1.67,5.283 -3.822,7.227 -0.073,0.085 -0.147,0.169 -0.221,0.253 -0.081,0.071 -0.162,0.143 -0.244,0.214 -0.974,1.374 -2.111,2.58 -3.586,3.431 -0.412,0.3 -0.79,0.669 -1.242,0.887 -1.82,0.882 -3.663,1.717 -5.497,2.569 -1.896,0.803 -3.784,1.625 -5.693,2.397 -0.604,0.244 -1.255,0.464 -1.897,0.508 -1.893,0.128 -3.731,-0.133 -5.453,-1.018 -2.177,-1.121 -3.903,-2.784 -5.417,-4.646 -1.425,-1.75 -2.38,-3.767 -2.634,-6.056 -0.36,-1.966 -0.416,-3.944 -0.092,-5.912 0.368,-2.227 0.785,-4.448 1.25,-6.657 0.177,-0.839 0.749,-1.632 0.774,-2.456 0.029,-0.938 0.713,-1.481 0.92,-2.269 0.069,-0.262 0.084,-0.55 0.203,-0.787 0.527,-1.044 0.137,-2.433 1.233,-3.258 0.451,-1.032 1.124,-2.029 1.295,-3.106 0.182,-1.146 0.836,-1.979 1.276,-2.952 0.059,-0.225 0.18,-0.451 0.168,-0.672 -0.09,-1.628 0.403,-3.16 0.79,-4.701 0.58,-2.313 1.242,-4.605 1.843,-6.912 0.098,-0.372 0.076,-0.781 0.078,-1.172 0.001,-0.588 -0.103,-1.186 -0.027,-1.762 0.269,-2.039 1.036,-3.912 2.02,-5.706 0.42,-0.766 0.8,-1.552 1.198,-2.329 0.283,-0.701 0.567,-1.402 0.85,-2.104 0.32407,-0.78088 0.22585,-0.61704 0.431,-1.657 -0.012,-1.136 0.194,-2.275 0.306,-3.414 0.05,-0.512 0.17,-1.034 0.112,-1.534 0.10809,-0.97778 0.58747,-1.27866 0.70206,-1.63988 0.29172,-0.38778 0.40766,-0.44643 0.64994,-0.64612 0.992,-0.729 1.978,-1.451 2.964,-2.174 l 0.233,-0.233 c 0.134,-0.093 0.268,-0.185 0.401,-0.278 0.181,-0.328 0.361,-0.656 0.541,-0.984 0.651,-1.046 1.298,-2.095 1.959,-3.135 0.055,-0.085 0.2,-0.15 0.307,-0.158 1.281,-0.09 2.582,-0.335 3.767,0.424 l 0.005,0.02 c 0.885,-0.078 1.692,0.607 2.604,0.268 0.424,-0.243 0.63609,-0.16581 1.13034,0.0282 0.52554,0.15672 2.24125,-0.57028 2.56966,-0.86419 0.28956,-0.14091 0.56712,-0.54266 0.54337,-0.86197 0.006,-0.57294 -0.41337,-1.32503 -0.37037,-2.20903 0.057,-1.155 0.137,-2.31 0.13,-3.464 -0.027,-4.831 -0.084,-9.661 -0.129,-14.492 -0.055,-0.633 -0.081,-1.269 -0.169,-1.897 -0.594,-4.243 -1.201,-8.484 -1.803,-12.726 -0.072,-0.34 -0.174,-0.678 -0.211,-1.022 -0.169,-1.559 -0.318,-3.118 -0.451,-4.432 -0.646,-0.248 -1.043,-0.4 -1.44,-0.553 -1.205,-0.313 -2.237,0.171 -3.273,0.684 -0.983,0.489 -1.988,0.932 -2.983,1.396 -3.64,1.284 -7.086,3.108 -10.897,3.922 -0.427,0.091 -0.846,0.229 -1.266,0.354 -3.598,1.07 -6.074,3.287 -6.999,7.005 -0.721,2.898 -1.356,5.818 -2.03,8.729 -0.403,3.158 -0.034,6.177 1.517,9.017 0.64,1.172 0.268,2.254 -0.623,3.142 -0.7,0.697 -0.757,1.439 -0.383,2.284 0.113,0.254 0.217,0.513 0.34,0.762 1.38,2.796 2.223,5.772 2.973,8.781 0.759,2.41 0.588,4.882 0.448,7.343 -0.092,1.628 -0.252,3.254 -0.435,4.875 -0.381,3.383 -0.324,6.75 0.304,10.101 -0.079,0.078 -0.159,0.156 -0.238,0.234 -0.083,-0.002 -0.152,0.027 -0.207,0.087 -2.0612,0.8461 -7.09968,2.66859 -8.568,3.25898 -2.42994,0.80993 -6.74211,2.13658 -8.298,2.61202 l -0.005,0.004 c -0.091,0.052 -0.181,0.105 -0.272,0.157 l -0.047,0.041 c -0.85674,0.35925 -6.41306,2.44746 -7.33,2.92 -0.669,0.586 -1.834,0.471 -2.17,1.536 -0.013,0.04 -0.149,0.034 -0.222,0.064 -0.993,0.421 -2.002,0.811 -2.971,1.282 -0.591,0.286 -1.091,0.926 -1.683,1.001 -0.827,0.106 -1.398,0.356 -1.801,1.068 -0.062,0.11 -0.285,0.122 -0.42,0.202 -1.618,0.959 -3.233,1.922 -4.849,2.884 -1.18625,0.71745 -3.48294,2.90636 -4.88621,3.57372 -1.99395,1.33036 -6.86321,4.34518 -8.42107,5.5486 -2.10353,1.68989 -7.0272,5.68675 -9.06072,7.35768 -0.834,0.698 -1.751,1.32 -2.479,2.115 -0.816,0.889 -1.484,1.918 -2.172,2.917 -0.695,1.009 -1.432,2.008 -1.968,3.101 -0.425,0.867 -0.77746,1.49028 -1.428,2.492 -0.14,0.086 -0.184,0.346 -0.247,0.535 -1.17,3.553 -2.379,7.094 -3.486,10.666 -0.503,1.623 -0.973,3.275 -0.82,5.027 0.19,2.169 0.33,4.343 0.475,6.516 -0.0487,0.41781 0.0409,0.71042 0.118,1.198 0.138,0.531 0.355,1.055 0.403,1.594 0.297,3.309 1.446,6.375 2.628,9.434 0.939,2.079 1.844,4.174 2.831,6.229 0.44,0.914 1.02,1.765 1.594,2.604 0.181,0.266 0.55,0.404 0.663,0.713 0.532,0.832 1.019,1.697 1.606,2.488 0.911,1.228 1.864,2.425 2.845,3.597 1.023,1.224 2.087,2.414 3.156,3.599 1.311,1.454 2.644,2.887 3.968,4.329 0.679,0.529 1.2169,1.34883 1.8049,1.96583 1.16063,1.35289 2.22933,2.63353 3.48596,3.9119 0.495,0.449 0.93236,0.96215 1.42441,1.4021 0.39369,0.49231 0.74222,0.73305 1.20743,1.32058 1.58769,1.71366 1.44655,1.79265 3.1493,3.10059 l 0.008,0.013 c 0.65228,0.713864 1.40814,1.208829 2.14437,1.855152 0.879,0.501 1.47833,1.288037 2.01333,1.801037 1.231,1.182 2.207,2.299535 3.748,3.203535 1.522,0.894 2.61753,2.108366 4.00053,3.219366 0.774,0.621 1.33222,1.045634 2.39736,1.872062 1.17687,1.447069 1.87505,1.84082 3.21,2.884831 1.14459,1.125681 6.58782,4.97793 7.49427,5.5 2.91611,2.111417 10.42489,4.972278 14.41541,6.592535 1.357,0.8 2.85773,1.338482 4.21373,2.138482 1.032,0.579 2.115,1.085 3.089,1.75 2.655,1.812 4.438,4.396 6.174,7.042 1.564,2.383 2.141,5.072 2.78,7.76 1.41605,4.722612 2.87122,7.880384 5.752,13.891 0.81088,1.70506 1.50971,2.98381 2.616,5.074 1.766,3.035 3.531,6.069 5.297,9.104 0.229,0.251 0.459,0.502 0.688,0.753 0.663,1.282 1.195,2.637 2.32,3.639 0.296,0.265 0.27621,0.623741 0.58,1.141 1.22201,1.481775 1.5357,2.283272 2.135,3.14 l -0.001,-0.005 c 0.25643,0.370259 0.28844,0.739732 0.744,1.177 0.164,0.24 0.328,0.481 0.493,0.722 1.47699,1.221034 1.55214,2.763638 2.45356,3.71151 0.29414,0.832947 0.77123,1.057749 1.31523,1.551749 0.93453,1.2251943 3.05022,3.5671127 3.91521,4.522741 0.423,0.574 0.846,1.147 1.269,1.721 0.96928,1.0640322 5.76382,5.36549886 7.102,6.514 0.485,0.557 0.971,1.116 1.455,1.673 1.78047,1.4591745 6.25233,4.115843 7.997,5.247 1.82763,1.3997742 14.43456,8.071947 17.77879,9.468724 2.05911,1.344399 9.65749,4.882168 12.352906,5.709867 1.408465,0.702522 3.93507,1.697161 5.198304,2.276409 1.704369,0.382154 3.078886,0.541184 5.628635,1.201603 1.611,0.425 2.71323,0.705445 4.31523,1.168445 1.283,0.37 2.733278,0.815746 4.022278,1.165746 1.062,0.287 2.378087,0.452254 3.433087,0.762254 0.828,0.046 2.084833,0.600238 2.913833,0.624238 2.35316,0.782528 11.82931,1.810334 14.182874,1.693 1.563816,0.09325 5.843765,-0.844899 7.66,-1.420492 2.120376,-0.463499 7.174499,-2.671186 10.58,-4.224429 0.345,-0.051 0.949682,-0.508428 1.195682,-0.725428 0.701937,-0.419254 1.138659,-0.725826 1.900468,-1.192548 2.313808,-0.884401 5.354533,-2.48876 6.341897,-3.465444 1.294849,-0.748088 1.584548,-1.512045 2.805548,-2.396045 0.653,-0.474 1.287619,-1.038507 1.845785,-1.55415 2.410377,-1.923598 7.010308,-5.552137 9.2755326,-7.410419 2.3027383,-1.7995337 5.0370216,-4.2803383 6.5048293,-5.8659731 1.5322464,-1.8112049 3.89281898,-4.15181307 5.3891071,-5.6516355 1.3759757,-1.809417 3.2202571,-2.8715656 4.4524648,-4.5335886 1.3932606,-2.2988664 1.7325244,-2.4533791 2.3683211,-3.5985719 1.5776591,-1.7107089 1.8989641,-2.4602429 2.7610001,-3.9766419 0.605025,-1.033743 2.801039,-6.936587 3.076766,-7.59482 0.51584,-0.243625 1.119518,-1.441485 1.91393,-1.775949 1.042827,-0.544659 3.74428,-2.105707 5.561732,-2.939161 l 0.011,-0.006 c 2.629741,-1.410893 4.493876,-2.451741 7.008,-4.195 1.237595,-0.818115 3.172929,-2.171795 3.77,-2.762 0.075,-0.022 0.151,-0.036 0.228,-0.041 1.054,-1.046 2.128,-2.072 3.15,-3.148 1.119455,-1.013481 2.112905,-1.722735 2.817619,-2.377063 0.982848,-1.510535 1.607546,-1.675767 2.242937,-2.618699 0.6,-0.874 1.284389,-1.734103 1.694404,-3.034024 0.694753,-0.996977 1.190566,-1.533465 1.61104,-2.260214 0.539532,-1.024873 1.158,-1.841 1.865,-2.7 1.156358,-1.028278 1.627458,-1.114953 2.773214,-1.548849 1.07,-0.278 1.964786,-0.753151 3.039786,-1.013151 1.958,-0.488 3.924,-0.946 5.87,-1.481 0.548,-0.151 1.023,-0.553 1.552,-0.797 0.525,-0.241 1.07,-0.445 1.617,-0.631 0.511,-0.174 1.031,-0.339 1.559,-0.441 0.497,-0.097 1.01,-0.106 1.547,-0.012 0.374,-0.228 0.688341,-0.303421 1.287,-0.524 z"
             style="fill:#ffffff;fill-opacity:1;fill-rule:nonzero;stroke:none"
             id="path130"
             inkscape:connector-curvature="0"
             sodipodi:nodetypes="cccccccccccccccccccccccccccccccccccccccccccccccccccccccccccccccccccscccccccccccccccccccccccccccccccccccccccccccccccccccccsccccccccccccccccccccccccccccccccccccccccccccccccccccccccccccccccccccccccccccccccccccccccccccccccccccccccccccccccccccccccccccccccccccccccccccccccccccccccccccccccccccccccccccccccccccccccccccccccccccccccccccccc" /></g><g
           id="g136"
           transform="matrix(1.3744866,0,0,1.3744866,242.35626,228.22732)"
           style="fill:#ffffff"><path
             d="M 0,0 -0.006,-0.008 C 1.2,0.831 1.74,2.15 2.427,3.364 3.206,4.741 3.321,6.14 2.455,7.51 2.305,7.748 1.866,7.997 1.617,7.948 0.145,7.662 -1.233,7.063 -2.475,6.242 -3.031,5.873 -3.509,5.268 -3.82,4.666 -4.938,2.508 -4.967,0.091 -5.31,-2.247 c -0.104,-0.715 -0.098,-1.446 -0.15,-2.289 2.086,1.168 3.799,2.548 5.202,4.304 C -0.172,-0.155 -0.086,-0.077 0,0 m 59.011,6.761 c 1.01,0.14 2.019,0.294 3.032,0.415 0.56,0.067 1.114,0.087 1.396,-0.585 0.064,-0.151 0.28,-0.258 0.448,-0.341 1,-0.495 1.41,-1.314 1.354,-2.4 C 65.084,3.689 64.927,3.528 64.77,3.368 64.109,3.046 63.472,2.661 62.785,2.414 60.976,1.763 59.153,1.146 57.319,0.568 56.501,0.312 55.646,0.17 54.801,0.003 53.803,-0.194 52.74,-0.213 51.809,-0.575 50.204,-1.2 48.492,-0.88 46.86,-1.385 c -1.434,-0.444 -3.011,-0.43 -4.608,-0.63 v -0.864 c 0.154,-0.854 0.338,-1.705 0.457,-2.563 0.234,-1.69 0.433,-3.384 0.661,-5.196 1.167,0.447 2.29,0.876 3.413,1.306 1.325,0.649 2.932,0.537 4.18,1.436 -0.509,0.251 -0.944,0.466 -1.4,0.692 0.495,1.096 1.089,1.68 2.215,1.885 0.447,0.081 1.276,-0.36 1.515,0.505 0.081,0.001 0.154,0.023 0.222,0.068 0.08,-0.016 0.16,-0.03 0.241,-0.045 1.265,0.046 2.439,-0.383 3.644,-0.674 0.631,-0.153 0.881,-0.464 1.055,-1.094 0.264,-0.956 -0.522,-1.323 -0.953,-2.038 0.352,-0.356 0.704,-0.712 1.055,-1.067 l 0.038,-1.11 c -0.208,-0.365 -0.331,-0.859 -0.645,-1.063 -0.531,-0.348 -1.167,-0.562 -1.786,-0.742 -1.277,-0.371 -2.225,-1.568 -3.695,-1.461 -0.111,0.008 -0.223,-0.214 -0.358,-0.282 -1.51,-0.764 -2.996,-1.59 -4.548,-2.256 -1.604,-0.69 -3.177,-1.401 -4.579,-2.461 -0.231,-0.175 -0.62,-0.357 -0.851,-0.279 -0.906,0.303 -1.704,0.044 -2.509,-0.307 -0.205,0.357 -0.41,0.714 -0.674,1.172 -0.571,-0.713 -1.18,-0.688 -1.848,-0.36 -0.199,0.097 -0.483,0.149 -0.686,0.086 -0.515,-0.158 -0.661,0.237 -0.9,0.507 -0.167,0.961 -0.447,1.92 -0.469,2.885 -0.025,1.035 -0.373,1.945 -0.701,2.882 -0.023,0.504 -0.197,1.072 -0.02,1.492 0.152,0.358 0.706,0.547 1.289,0.954 -0.15,2.377 -0.315,4.98 -0.48,7.582 0.011,0.233 0.022,0.465 0.033,0.698 -0.041,0.641 -0.082,1.282 -0.123,1.923 0.061,0.508 0.161,1.014 0.18,1.524 0.097,2.649 0.181,5.301 0.253,7.951 0.013,0.473 -0.022,0.952 -0.09,1.42 -0.182,1.241 -0.394,2.476 -0.59,3.697 -0.766,-0.454 -1.761,-0.74 -2.263,-1.4 -1.504,-1.978 -3.72,-1.736 -5.739,-2.167 -0.789,-0.168 -1.771,0.379 -2.353,-0.6 -2.817,0.057 -5.372,-1.122 -8.019,-1.578 0.163,-2.653 0.317,-5.177 0.479,-7.832 1.141,0.348 2.212,0.675 3.284,1.002 0.868,0.069 1.753,0.046 2.596,0.227 1.58,0.34 3.371,-0.048 4.685,1.288 0.09,0.091 0.303,0.081 0.46,0.083 0.793,0.007 1.587,0.002 2.458,0.002 0.1,-0.239 0.205,-0.536 0.347,-0.813 0.145,-0.281 0.333,-0.539 0.492,-0.813 0.487,-0.845 0.296,-1.44 -0.58,-1.901 -0.298,-0.156 -0.572,-0.361 -0.857,-0.545 -0.167,-0.466 -0.203,-1.095 -0.532,-1.361 -0.595,-0.484 -1.36,-0.763 -2.068,-1.1 -0.167,-0.08 -0.41,-0.116 -0.579,-0.057 -1.261,0.434 -2.411,-0.221 -3.613,-0.343 -0.064,0.017 -0.123,0.005 -0.176,-0.036 -0.469,-0.079 -0.946,-0.13 -1.407,-0.243 -1.191,-0.292 -2.371,-0.639 -3.567,-0.911 -0.623,-0.141 -1.025,-0.406 -1.011,-1.092 0.009,-0.438 -0.095,-0.927 0.063,-1.304 0.535,-1.272 0.303,-2.579 0.315,-3.877 0.01,-1.167 0.002,-2.336 0.002,-3.615 0.716,0.264 1.377,0.718 2.022,0.698 0.887,-0.026 1.469,0.405 2.119,0.813 1.154,0.399 2.313,0.778 3.453,1.211 0.25,0.095 0.628,0.413 0.604,0.578 -0.124,0.827 0.445,1.223 0.864,1.687 2.203,0.17 4.272,-0.269 6.359,-0.978 0.077,-0.775 0.151,-1.531 0.226,-2.286 -0.084,-1.651 -0.49,-2.372 -1.792,-2.698 -1.037,-0.26 -2.022,-1.006 -3.199,-0.471 -0.168,0.077 -0.501,-0.03 -0.668,-0.163 -1.047,-0.835 -2.458,-0.494 -3.581,-1.176 -0.743,-0.452 -1.682,-0.581 -2.532,-0.856 -0.847,-0.302 -1.69,-0.613 -2.54,-0.898 -0.269,-0.09 -0.613,-0.234 -0.832,-0.14 -0.838,0.358 -1.114,-0.196 -1.413,-0.762 -0.299,-0.169 -0.586,-0.457 -0.9,-0.49 -2.229,-0.229 -2.301,-0.184 -3.227,1.839 -0.142,0.31 -0.183,0.686 -0.188,1.034 -0.015,1.155 0.009,2.312 0.012,3.468 0.005,2.23 0.017,4.461 0.002,6.691 -0.005,0.771 -0.08,1.541 -0.122,2.311 0.435,0.864 -0.465,0.787 -0.863,1.144 -0.044,1.069 0.886,2.046 0.443,3.189 -0.036,0.092 0.151,0.26 0.21,0.401 0.112,0.271 0.295,0.549 0.295,0.824 0,2.226 -0.035,4.453 -0.061,6.679 C 11.859,7.773 11.812,8.096 11.755,8.482 10.499,8.393 9.291,8.306 7.903,8.206 8.155,7.627 8.394,7.075 8.633,6.523 8.697,6.215 8.807,5.908 8.818,5.598 8.873,4.181 9.066,2.742 8.898,1.35 8.626,-0.93 7.047,-2.543 5.577,-4.146 3.871,-6.008 1.738,-7.325 -0.444,-8.54 c -0.898,-0.499 -1.897,-0.814 -2.927,-1.245 1.26,-1.041 2.545,-2.104 3.83,-3.167 0.637,-0.568 1.273,-1.135 1.91,-1.703 0.082,-0.085 0.165,-0.17 0.247,-0.255 l -0.014,0.006 c 0.723,-0.715 1.446,-1.429 2.169,-2.143 l 0.011,-0.013 c 0.082,-0.08 0.163,-0.16 0.244,-0.24 l -0.011,0.005 c 0.093,-0.175 0.149,-0.392 0.288,-0.517 1.61,-1.438 3.182,-2.926 4.872,-4.265 0.937,-0.743 2.017,-1.268 2.841,-2.213 0.652,-0.751 1.593,-1.249 2.407,-1.859 0.061,-0.064 0.124,-0.127 0.185,-0.191 l 0.051,-0.03 c 0.01,-0.118 0.005,-0.24 0.03,-0.356 0.303,-1.391 -0.007,-1.681 -1.483,-1.711 -0.595,-0.013 -1.182,-0.364 -1.772,-0.561 -0.565,0.158 -1.123,0.415 -1.696,0.449 -0.675,0.041 -1.099,0.32 -1.477,0.844 -0.74,1.027 -1.528,2.019 -2.296,3.026 -1.598,1.566 -3.194,3.133 -4.795,4.695 -1.01,0.983 -2.02,1.967 -3.053,2.926 -0.177,0.163 -0.471,0.202 -0.71,0.297 l -0.037,-0.018 c -0.002,0.082 -0.003,0.164 -0.005,0.246 -1.306,1.244 -2.614,2.489 -3.921,3.733 -0.098,-0.016 -0.197,-0.032 -0.295,-0.049 -0.132,-1.257 -0.257,-2.515 -0.4,-3.771 -0.235,-2.084 -0.421,-4.176 -0.753,-6.244 -0.15,-0.935 -0.046,-2.022 -0.937,-2.727 -0.404,0.037 -0.795,0.073 -1.187,0.109 -1.08,-0.115 -2.166,-0.193 -3.239,-0.357 -0.667,-0.101 -1.047,0.161 -1.075,0.768 -0.063,1.338 -0.2,2.701 -0.023,4.015 0.488,3.63 1.126,7.24 1.693,10.86 0.042,0.268 -0.014,0.553 -0.025,0.831 0.125,1.491 0.25,2.983 0.374,4.475 0.11,0.694 0.236,1.384 0.323,2.08 0.423,3.394 0.947,6.761 2.418,9.899 0.046,0.097 0,0.236 -0.004,0.355 0.074,0.426 0.141,0.854 0.22,1.28 0.14,0.755 0.881,1.411 1.414,1.221 0.545,-0.193 1.073,-0.437 1.62,-0.664 0.188,0.178 0.382,0.363 0.578,0.548 0.712,0.82 1.57,1.457 2.591,1.809 0.499,0.172 1.065,0.152 1.602,0.208 0.267,0.028 0.539,0.031 0.808,0.045 0.355,0.018 0.781,0.174 1.051,0.033 1.109,-0.579 2.439,-0.498 3.48,-1.362 0.683,-0.569 1.584,-0.987 2.539,-0.119 0.405,0.37 1.197,0.283 1.68,0.602 0.812,0.538 1.928,0.599 2.421,1.698 0.184,0.412 0.887,0.592 1.353,0.878 0.101,-0.054 0.217,-0.171 0.302,-0.152 1.872,0.407 3.739,0.833 5.609,1.249 2.441,0.544 4.885,1.082 7.327,1.622 0.814,0.165 1.624,0.345 2.442,0.489 1.197,0.213 2.394,0.454 3.603,0.568 0.405,0.04 0.848,-0.262 1.266,-0.425 0.378,-0.147 0.745,-0.318 1.182,-0.506 -0.031,2.063 0.518,2.682 2.427,2.992 0.424,0.069 0.83,0.248 1.243,0.378 0.828,0.26 1.64,0.639 2.488,0.753 1.04,0.139 2.114,0.001 3.166,0.085 1.367,0.108 2.732,0.277 4.087,0.493 1.751,0.278 3.492,0.63 5.237,0.95 0.654,0.11 1.305,0.247 1.964,0.317 0.282,0.03 0.649,0.013 0.857,-0.143 0.571,-0.429 1.079,-0.943 1.705,-1.508 0.112,-0.578 -0.138,-1.138 -0.723,-1.592 -0.141,-0.108 -0.18,-0.347 -0.266,-0.527 -0.249,-0.836 -1.086,-0.939 -1.678,-1.35 -0.262,-0.18 -0.582,-0.337 -0.747,-0.589 -0.604,-0.922 -0.575,-0.903 -1.704,-0.588 -0.865,0.24 -1.752,0.496 -2.639,0.535 -0.759,0.034 -1.532,-0.231 -2.298,-0.362 -0.592,-0.04 -1.185,-0.073 -1.776,-0.122 -1.654,-0.136 -3.306,-0.305 -4.962,-0.408 -0.541,-0.033 -0.867,-0.259 -0.882,-0.749 -0.04,-1.332 -0.013,-2.665 -0.013,-3.998 -0.33,-2.501 0.512,-4.848 0.945,-7.25 0.093,-0.513 0.442,-0.594 0.895,-0.477 0.968,0.249 1.94,0.49 2.911,0.734 0.703,0.121 1.405,0.25 2.11,0.361 1.876,0.294 3.749,0.615 5.631,0.862 1.944,0.256 3.957,0.159 5.707,1.297 0.248,0.16 0.613,0.138 0.924,0.201"
             style="fill:#ffffff;fill-opacity:1;fill-rule:nonzero;stroke:none"
             id="path138"
             inkscape:connector-curvature="0" /></g><g
           id="g152"
           transform="matrix(1.3744866,0,0,1.3744866,278.99622,163.62246)"
           style="fill:#ffffff"><path
             d="M 0,0 C -0.126,0.49 -0.253,0.98 -0.379,1.47 -0.448,1.466 -0.517,1.462 -0.585,1.458 c -0.81,-3.943 -1.618,-7.887 -2.478,-12.076 0.476,0.286 0.67,0.402 0.864,0.518 0.191,-0.042 0.4,-0.155 0.571,-0.114 1.394,0.338 2.781,0.704 4.183,1.066 -0.48,1.933 -0.928,3.876 -1.451,5.797 C 0.797,-2.218 0.372,-1.115 0,0 m -36.241,-28.1 c 0.604,2.237 1.294,4.454 1.793,6.713 0.816,3.7 2.13,7.278 2.59,11.07 0.243,1.998 0.829,3.951 1.217,5.933 0.121,0.618 0.106,1.263 0.153,1.896 0.31,1.059 0.636,2.115 0.926,3.18 0.445,1.644 0.865,3.295 1.298,4.942 0.031,0.115 0.09,0.222 0.119,0.338 0.196,0.781 0.848,0.985 1.456,1.363 0.484,0.302 0.571,1.178 0.992,1.663 0.35,0.405 1.94,-0.111 2.066,-0.666 0.207,-0.917 0.288,-1.863 0.405,-2.8 0.059,-0.467 0.079,-0.938 0.116,-1.408 -0.11,-0.21 -0.274,-0.408 -0.322,-0.631 -0.48,-2.239 -0.931,-4.484 -1.411,-6.723 -0.208,-0.969 -0.478,-1.924 -0.689,-2.892 -0.258,-1.182 -0.483,-2.37 -0.721,-3.556 -0.007,-0.053 0.007,-0.102 0.042,-0.144 -0.139,-0.591 -0.309,-1.178 -0.41,-1.776 -0.337,-1.984 -0.65,-3.973 -0.972,-5.961 -0.016,-0.462 -0.034,-0.925 -0.051,-1.388 -0.52,-1.943 -0.788,-3.92 -0.99,-6.187 1.903,0.404 3.603,0.763 5.302,1.123 2.622,0.669 5.244,1.335 7.862,2.017 0.132,0.034 0.252,0.195 0.335,0.325 0.704,1.099 1.986,1.268 3.082,2.006 0.374,-0.689 0.713,-1.311 1.14,-2.096 0.224,0.586 0.408,0.98 0.525,1.393 0.389,1.372 0.648,2.791 1.149,4.119 1.236,3.275 1.88,6.703 2.747,10.072 0.384,1.493 0.689,3.008 0.986,4.522 0.323,1.653 0.596,3.317 0.89,4.976 0.339,1.495 0.689,2.988 1.012,4.486 0.208,0.96 0.337,1.92 1.26,2.556 0.323,0.223 0.55,0.67 0.683,1.061 0.255,0.757 0.412,1.546 0.622,2.367 0.924,-0.061 1.822,0.458 2.68,-0.157 C 1.843,13.223 2.133,12.829 2.23,12.393 2.465,11.343 3.121,10.696 4.032,10.238 4.047,10.095 4.062,9.95 4.078,9.807 4.409,9.032 4.806,8.279 5.059,7.48 5.494,6.109 5.84,4.71 6.223,3.323 6.368,2.465 6.483,1.602 6.663,0.751 c 0.428,-2.02 0.873,-4.036 1.339,-6.047 0.185,-0.795 0.444,-1.572 0.694,-2.443 1.073,0.352 2.049,0.675 3.027,0.996 0.404,0.228 0.873,0.387 1.202,0.695 1.588,1.489 3.395,1.996 5.499,1.374 0.19,-0.055 0.39,-0.162 0.573,-0.139 0.774,0.092 1.313,-0.309 1.411,-0.972 0.103,-0.686 -0.009,-1.459 -0.865,-1.772 -0.068,-0.025 -0.119,-0.1 -0.178,-0.153 -0.745,-0.224 -1.491,-0.447 -2.236,-0.671 0.305,-0.374 0.557,-0.483 0.808,-0.594 0.563,-0.249 0.986,-0.621 0.989,-1.287 0.004,-0.716 -0.205,-1.426 -0.873,-1.718 -0.967,-0.423 -1.998,-0.715 -3.021,-0.992 -1.418,-0.383 -2.853,-0.701 -4.378,-1.07 0.42,-1.299 0.662,-2.479 1.167,-3.533 1.416,-2.953 1.91,-6.114 2.263,-9.309 0.09,-0.815 -0.033,-1.664 -0.134,-2.489 -0.088,-0.723 -0.5,-1.051 -1.261,-0.767 -0.644,0.241 -1.168,0.116 -1.46,-0.572 -0.801,0.021 -1.604,0.041 -2.638,0.067 -1.205,1 -1.506,2.723 -1.876,4.368 -0.634,2.814 -1.149,5.655 -1.714,8.485 -0.24,1.024 -0.481,2.048 -0.726,3.086 -1.171,-0.071 -2.169,-0.112 -3.163,-0.197 -1.301,-0.112 -2.606,-0.221 -3.9,-0.4 -1.101,-0.152 -1.201,-0.369 -1.324,-1.461 -0.231,-2.041 -0.539,-4.074 -0.768,-6.115 -0.063,-0.567 -0.024,-1.166 0.085,-1.727 0.147,-0.753 -0.063,-1.533 -0.745,-1.819 -0.711,-0.3 -1.474,-0.55 -2.32,-0.173 -0.019,-0.856 -0.547,-1.156 -1.286,-1.321 -0.439,-0.099 -0.836,-0.382 -1.251,-0.583 -0.071,-0.011 -0.125,-0.046 -0.166,-0.104 -0.852,0.123 -1.211,0.676 -1.25,1.476 -0.025,0.537 -0.004,1.077 -0.004,1.649 -0.29,0 -0.454,0.029 -0.602,-0.004 -1.246,-0.281 -2.491,-0.563 -3.732,-0.863 -2.186,-0.527 -4.39,-0.992 -6.544,-1.628 -1.547,-0.457 -2.994,-1.25 -4.54,-1.71 -1.469,-0.436 -2.546,-1.657 -4.098,-1.881 -0.383,-0.056 -0.747,-0.244 -1.119,-0.37 -0.079,0.009 -0.163,0.041 -0.236,0.025 -0.479,-0.109 -1.072,-0.463 -1.411,-0.297 -0.684,0.336 -1.261,0.922 -1.817,1.473 -0.186,0.183 -0.205,0.569 -0.233,0.868 -0.056,0.588 -0.064,1.179 -0.092,1.768"
             style="fill:#ffffff;fill-opacity:1;fill-rule:nonzero;stroke:none"
             id="path154"
             inkscape:connector-curvature="0" /></g><g
           id="g156"
           transform="matrix(1.3744866,0,0,1.3744866,236.40858,49.089095)"
           style="fill:#ffffff"><path
             d="m 0,0 c 2.237,1.002 4.558,1.756 6.629,3.196 2.575,1.79 4.884,3.744 6.543,6.427 0.738,1.196 0.683,2.444 -0.267,3.572 -0.695,0.85 -1.459,1.544 -2.431,2.158 C 8.162,16.811 5.592,16.319 3.15,16.725 2.843,16.775 2.482,16.506 2.147,16.382 1.928,16.301 1.711,16.148 1.489,16.143 c -1.363,-0.038 -2.744,0.302 -4.057,-0.481 -0.308,-0.183 -0.934,0.162 -1.412,0.271 -0.333,0.076 -0.665,0.163 -1.023,0.252 -0.116,-0.316 -0.242,-0.53 -0.272,-0.756 C -5.547,13.427 -5.808,11.423 -6.054,9.418 -6.08,9.206 -6.069,8.898 -5.941,8.773 -5.208,8.055 -5.218,7.218 -5.516,6.352 -5.921,5.173 -5.035,4.412 -4.526,3.624 -4.243,3.185 -3.36,3.133 -2.493,2.812 -1.747,1.871 -1.762,1.882 -2.635,0.686 -2.961,0.239 -3.19,-0.215 -3.858,-0.291 -4.175,-0.327 -4.449,-0.733 -4.889,-1.09 c 0.355,-0.076 0.609,-0.199 0.674,-0.134 0.495,0.495 1.136,0.446 1.744,0.57 C -1.638,-0.483 -0.823,-0.222 0,0 M 0.249,23.293 C 0.45,23.149 0.71,22.842 0.844,22.89 c 0.953,0.339 1.953,0.633 2.8,1.163 1.675,1.048 3.334,2.115 4.82,3.466 2.311,2.102 3.032,4.96 2.127,7.612 -0.379,1.03 -0.666,2.019 -2.056,2.281 -0.893,0.169 -1.661,0.983 -2.68,0.352 C 5.728,37.684 5.417,37.732 5.294,37.84 4.734,38.328 4.165,38.023 3.595,37.921 3.565,37.94 3.536,37.959 3.506,37.979 3.541,37.965 3.576,37.951 3.611,37.937 3.131,37.832 2.652,37.723 2.172,37.624 1.523,37.491 0.811,37.493 0.241,37.208 -0.49,36.841 -1.123,36.265 -1.764,35.737 c -0.214,-0.175 -0.422,-0.464 -0.465,-0.728 -0.31,-1.863 -0.56,-3.738 -0.862,-5.604 -0.246,-1.519 -0.547,-3.03 -0.804,-4.548 -0.138,-0.819 -0.236,-1.645 -0.36,-2.524 1.207,0.128 2.248,0.226 3.283,0.359 0.174,0.023 0.319,0.22 0.492,0.305 0.235,0.115 0.485,0.199 0.729,0.296 m 15.563,-2.667 c 0.108,-0.299 0.189,-0.842 0.331,-0.857 0.961,-0.11 1.162,-0.942 1.608,-1.54 0.369,-1.163 0.809,-2.309 1.081,-3.494 0.146,-0.633 -0.008,-1.334 -0.004,-2.004 C 18.836,11.305 18.713,9.932 18.103,8.584 17.099,6.371 15.664,4.511 13.889,2.893 12.372,1.51 10.912,0.048 9.045,-0.887 7.493,-1.664 5.952,-2.466 4.378,-3.193 3.278,-3.702 2.131,-4.109 1,-4.547 0.824,-4.614 0.615,-4.593 0.425,-4.628 -0.271,-4.76 -1.051,-4.744 -1.641,-5.07 c -0.931,-0.516 -1.905,-0.404 -2.867,-0.529 -0.23,-0.029 -0.459,-0.082 -0.69,-0.099 -1.005,-0.076 -2.01,-0.171 -3.016,-0.205 -0.627,-0.022 -1.257,0.053 -1.885,0.086 -0.275,0.035 -0.579,0.166 -0.82,0.091 -1.549,-0.472 -2.52,0.567 -3.237,1.525 -0.886,1.183 -1.195,2.709 -0.479,4.154 0.836,1.686 0.94,3.507 1.197,5.308 0.208,1.454 0.424,2.908 0.604,4.367 0.296,2.399 0.543,4.806 0.855,7.204 0.244,1.885 0.523,3.767 0.844,5.64 0.322,1.871 0.698,3.734 1.084,5.594 0.133,0.643 0.429,1.255 0.53,1.901 0.05,0.329 -0.083,0.759 -0.281,1.04 -0.276,0.394 -0.906,0.644 -0.997,1.044 -0.169,0.743 -0.189,1.576 -0.037,2.324 0.384,1.886 1.637,3.2 3.166,4.264 1.004,0.698 1.764,1.487 1.773,2.836 0.005,0.803 0.421,1.43 1.301,1.634 0.195,0.045 0.355,0.233 0.532,0.354 L -4.08,43.445 c 0.744,-0.141 1.489,-0.28 2.232,-0.429 0.066,-0.014 0.119,-0.097 0.176,-0.152 0.239,-0.23 0.48,-0.657 0.715,-0.654 0.588,0.007 1.333,0.026 1.728,0.37 0.952,0.827 2.128,0.672 3.15,0.78 1.778,0.191 3.604,-0.018 5.405,-0.136 0.383,-0.025 0.744,-0.38 1.136,-0.424 0.256,-0.047 0.516,-0.082 0.768,-0.145 0.448,-0.109 0.932,-0.156 1.327,-0.368 1.684,-0.906 3.398,-1.78 4.982,-2.844 0.631,-0.422 0.953,-1.306 1.415,-1.981 -0.041,-0.149 -0.156,-0.326 -0.113,-0.445 1.131,-3.132 -0.309,-5.568 -2.188,-7.829 -1.838,-2.209 -3.777,-4.332 -5.635,-6.452 0.547,-0.298 0.895,-0.508 1.261,-0.678 0.322,-0.15 0.668,-0.245 0.998,-0.379 0.846,-0.347 1.69,-0.701 2.535,-1.053"
             style="fill:#ffffff;fill-opacity:1;fill-rule:nonzero;stroke:none"
             id="path158"
             inkscape:connector-curvature="0" /></g><g
           id="g164"
           transform="matrix(1.3744866,0,0,1.3744866,248.17103,287.64031)"
           style="fill:#ffffff"><path
             d="M 0,0 C 0.948,0.169 1.648,0.378 2.354,0.399 3.293,0.428 3.412,0.915 3.455,1.713 3.594,4.286 3.82,6.854 4.017,9.47 3.486,9.422 2.936,9.417 2.402,9.315 0.804,9.011 0.654,8.774 0.579,7.122 0.529,6.052 0.367,4.987 0.279,3.919 0.177,2.668 0.1,1.416 0,0 m 9.651,-17.229 c -0.074,-0.304 -0.145,-0.611 -0.223,-0.916 -0.167,-0.652 -0.304,-1.23 -1.2,-1.359 -0.519,-0.074 -0.971,-0.611 -1.453,-0.94 -0.144,0.132 -0.288,0.263 -0.379,0.347 -0.948,-0.464 -1.841,-0.902 -2.735,-1.34 -0.998,0.148 -1.44,0.53 -1.547,1.46 -0.057,0.503 -0.011,1.023 0.029,1.533 0.343,4.432 0.701,8.864 1.041,13.297 0.041,0.543 0.005,1.091 0.005,1.876 -1.211,-0.266 -2.22,-0.488 -3.361,-0.739 0,-1.084 0.026,-2.133 -0.006,-3.18 -0.051,-1.781 -0.121,-3.56 -0.213,-5.338 -0.133,-2.575 -0.263,-5.151 -0.472,-7.719 -0.037,-0.455 -0.363,-0.98 -0.714,-1.294 -0.483,-0.432 -1.117,-0.692 -1.687,-1.026 -0.849,0.512 -1.464,1.192 -1.518,2.25 -1.379,-0.526 -2.506,0.228 -2.49,1.671 0.017,1.661 0.113,3.321 0.192,4.981 0.06,1.259 0.148,2.516 0.225,3.773 0.178,1.425 0.356,2.849 0.526,4.2 -1.526,-0.217 -2.906,-0.41 -4.285,-0.616 -0.257,-0.038 -0.507,-0.133 -0.76,-0.203 -0.637,-0.163 -1.261,-0.709 -1.895,0.115 -0.171,0.222 -0.792,0.053 -1.056,0.258 -1.175,0.91 -0.886,2.742 0.541,3.211 1.272,0.419 2.599,0.68 3.912,0.968 1.269,0.278 2.552,0.504 3.924,0.771 0.179,1.869 0.354,3.673 0.528,5.478 0.163,1.143 0.325,2.286 0.513,3.605 C -5.442,7.817 -5.773,7.758 -6.107,7.725 -6.649,7.672 -7.193,7.646 -7.735,7.59 -8.041,7.558 -8.342,7.479 -8.647,7.434 -8.903,7.395 -9.16,7.36 -9.419,7.346 c -0.89,-0.051 -1.779,-0.092 -2.67,-0.136 -0.972,0.111 -1.944,0.316 -2.915,0.311 -1.205,-0.008 -2.407,-0.216 -3.613,-0.278 -0.307,-0.015 -0.626,0.197 -0.967,0.316 0.204,0.902 0.829,1.284 1.441,1.427 0.685,0.16 1.036,0.503 1.46,1.028 0.648,0.8 1.693,0.907 2.698,1.044 1.798,0.246 3.662,-0.005 5.402,0.735 0.37,0.157 0.862,-10e-4 1.277,0.085 0.976,0.202 1.94,0.464 2.9,0.699 0.879,4.437 1.071,8.96 2.828,13.224 0.82,-0.051 1.599,-0.099 2.475,-0.153 0.664,-1.221 0.767,-2.536 0.702,-3.915 -0.04,-0.837 0.1,-1.684 0.161,-2.527 C 1.694,18.791 1.604,18.378 1.568,17.961 1.444,16.484 1.339,15.007 1.233,13.624 c 0.799,0.079 1.614,0.168 2.428,0.238 0.874,0.076 1.464,0.575 1.659,1.454 0.251,1.125 0.487,2.253 0.729,3.38 0.093,0.218 0.222,0.428 0.27,0.655 0.353,1.665 0.721,3.328 1.012,5.003 0.105,0.602 0.099,1.206 -0.313,1.81 -0.22,0.322 -0.17,1.061 0.064,1.398 0.255,0.366 0.622,0.872 1.35,0.692 0.667,-0.164 1.392,-0.093 2.126,-0.128 0.677,-0.711 0.462,-1.671 0.575,-2.557 0.048,-0.377 0.131,-0.75 0.198,-1.124 -0.042,-0.473 -0.103,-0.947 -0.123,-1.422 -0.062,-1.565 -0.1,-3.131 -0.168,-4.697 -0.042,-0.973 -0.123,-1.945 -0.187,-2.919 0.34,-0.044 0.516,-0.12 0.652,-0.075 1.487,0.486 2.975,0.955 4.559,1.01 0.098,0.004 0.191,0.12 0.287,0.183 1.126,0.149 2.238,0.268 3.294,0.811 0.512,0.265 2.385,-0.255 2.822,-0.961 0.383,-0.618 0.128,-1.533 -0.734,-1.995 -0.55,-0.294 -0.644,-0.524 -0.23,-0.965 -0.284,-0.311 -0.521,-0.692 -0.86,-0.921 -1.567,-1.056 -3.388,-1.251 -5.202,-1.473 -1.458,-0.177 -2.91,-0.398 -4.365,-0.598 -0.602,-0.084 -0.898,-0.384 -0.89,-1.036 0.013,-1.152 -0.04,-2.304 -0.064,-3.455 -0.018,-0.867 -0.046,-1.733 -0.048,-2.599 -10e-4,-0.52 0.04,-1.04 0.063,-1.579 1.577,0.235 2.955,0.441 4.332,0.646 0.328,0.065 0.656,0.128 0.984,0.192 1.222,0.22 2.452,0.403 3.665,0.668 1.395,0.304 2.82,0.441 4.109,1.221 0.719,0.437 1.544,1.055 2.537,0.576 C 26.541,4.602 27.641,4.939 28.242,4.052 28.148,3.322 28.055,2.592 27.961,1.862 27.897,0.42 27.312,-0.045 25.884,0.01 24.665,0.057 23.419,0.091 22.225,-0.108 19.956,-0.487 17.771,-1.313 15.447,-1.432 14.879,-1.535 14.241,-1.854 13.756,-1.696 12.71,-1.358 11.821,-1.889 10.86,-1.948 c -0.652,-0.04 -0.842,-0.381 -0.802,-1.025 0.068,-1.095 0.041,-2.197 0.053,-3.296 -0.031,-0.568 -0.071,-1.136 -0.093,-1.705 -0.124,-3.085 -0.245,-6.17 -0.367,-9.255"
             style="fill:#ffffff;fill-opacity:1;fill-rule:nonzero;stroke:none"
             id="path166"
             inkscape:connector-curvature="0" /></g><g
           id="g168"
           transform="matrix(1.3744866,0,0,1.3744866,285.81368,63.653987)"
           style="fill:#ffffff"><path
             d="m 0,0 c 1.012,2.064 1.717,4.239 2.279,6.46 0.612,2.416 1.229,4.832 1.742,7.27 0.434,2.057 0.708,4.147 1.079,6.217 0.223,1.251 0.406,2.522 0.774,3.733 0.4,1.315 0.305,2.556 -0.034,3.848 -0.12,0.46 -0.085,1.015 0.047,1.478 0.281,0.985 0.738,1.932 0.28,2.98 -0.484,1.113 0.555,1.618 1.036,2.267 0.168,0.227 1.042,-0.068 1.588,-0.327 0.493,0.227 0.986,0.455 1.379,0.637 0.902,-0.444 1.714,-0.843 2.773,-1.364 0.07,-0.495 0.173,-1.226 0.277,-1.958 -1.116,-2.393 -1.467,-4.863 -0.627,-7.41 0.785,-2.38 1.723,-4.713 2.398,-7.121 0.225,-0.8 0.655,-1.462 0.905,-2.222 0.196,-0.596 0.413,-1.198 0.715,-1.744 0.847,-1.522 1.767,-3.003 2.611,-4.526 0.431,-0.781 0.742,-1.627 1.145,-2.425 0.13,-0.256 0.379,-0.451 0.689,-0.805 0.164,1.21 0.3,2.224 0.438,3.237 l 0.04,0.054 -0.032,0.06 c 0.032,0.172 0.063,0.345 0.096,0.516 0.184,0.92 0.372,1.84 0.552,2.76 0.503,2.56 1.007,5.119 1.504,7.679 0.466,2.405 0.91,4.814 1.391,7.216 0.225,1.123 0.476,2.243 0.779,3.346 0.341,1.241 -0.152,2.407 -0.224,3.609 -0.033,0.539 -0.148,1.104 -0.032,1.614 0.369,1.624 1.38,2.438 3.206,1.474 0.036,-0.019 0.061,-0.07 0.093,-0.074 1.423,-0.148 2.087,-1.347 2.979,-2.205 0.264,-0.254 0.277,-0.772 0.405,-1.17 -0.109,-1.34 -0.171,-2.688 -0.337,-4.022 -0.288,-2.311 -0.671,-4.608 -0.959,-6.919 -0.378,-3.041 -0.708,-6.089 -1.05,-9.134 -0.112,-1 -0.189,-2.003 -0.297,-3.003 C 29.52,9.199 29.37,8.376 29.316,7.548 29.193,5.687 29.297,3.784 28.052,2.188 27.961,2.072 27.935,1.895 27.911,1.741 27.65,-0.024 27.415,-1.793 27.135,-3.556 26.769,-5.867 26.39,-8.18 25.252,-10.277 c -1.013,0.296 -2.024,0.905 -3.087,-0.137 -0.344,0.962 -0.924,1.613 -1.099,2.611 -0.208,1.196 -0.939,2.316 -1.523,3.427 -1.062,2.023 -2.199,4.007 -3.272,6.024 -0.77,1.446 -1.481,2.922 -2.227,4.38 -0.332,0.65 -0.148,1.561 -0.984,1.955 -0.006,0.23 0.052,0.485 -0.028,0.684 -0.461,1.143 -0.909,2.293 -1.449,3.398 -0.494,1.012 -1.1,1.969 -1.729,3.081 C 9.603,14.628 9.362,14.322 9.305,13.985 9.082,12.671 8.99,11.331 8.713,10.03 8.26,7.907 7.735,5.799 7.174,3.702 6.456,1.026 5.556,-1.606 4.963,-4.308 4.63,-5.824 4.057,-7.188 3.379,-8.543 2.84,-8.844 2.413,-9.266 1.631,-9.053 1.092,-8.907 0.421,-9.248 -0.36,-9.406 c -0.267,0.532 -0.557,1.112 -0.848,1.693 0.108,1.014 -0.023,2.139 0.38,3.019 C -0.126,-3.163 -0.527,-1.513 0,0"
             style="fill:#ffffff;fill-opacity:1;fill-rule:nonzero;stroke:none"
             id="path170"
             inkscape:connector-curvature="0" /></g><g
           id="g180"
           transform="matrix(1.3744866,0,0,1.3744866,200.77667,152.99836)"
           style="fill:#ffffff"><path
             d="m 0,0 c -1.168,-2.438 -1.664,-5.086 -2.296,-7.679 -0.477,-1.957 -0.596,-3.981 -0.063,-5.98 0.224,-0.632 0.438,-1.267 0.674,-1.894 0.744,-1.967 2.761,-3.573 4.541,-3.628 0.598,0.165 1.307,0.177 1.774,0.52 1.714,1.262 3.296,2.706 5.033,3.932 0.904,0.637 1.671,1.32 2.43,2.135 1.531,1.645 2.477,3.594 3.466,5.533 0.532,1.046 0.921,2.172 1.295,3.289 0.441,1.319 0.731,2.689 1.2,3.997 0.695,1.936 1.063,3.914 0.951,5.963 -0.061,1.111 -0.291,2.193 -1.233,2.957 -0.781,1.026 -1.51,2.079 -2.81,2.574 -1.609,0.614 -2.424,0.156 -2.234,-1.29 0.02,-0.158 0.067,-0.368 -0.01,-0.469 C 12.489,9.66 12.215,9.185 11.94,9.173 11.266,9.143 10.58,9.327 9.9,9.438 9.715,9.47 9.428,9.646 9.37,9.584 8.794,8.97 8.275,9.544 7.737,9.624 7.28,9.829 6.823,10.034 6.322,10.259 4.067,8.889 3.229,6.451 1.949,4.345 1.3,2.896 0.649,1.448 0,0 m 2.916,-24.472 c -1.114,0.011 -2.229,0.022 -3.344,0.033 -0.771,0.558 -1.94,0.454 -2.447,1.466 -0.039,0.077 -0.199,0.128 -0.306,0.133 -0.856,0.037 -1.459,0.623 -1.868,1.197 -1.07,1.505 -1.882,3.213 -1.824,5.086 0.097,3.175 0.402,6.343 0.601,9.516 0.046,0.747 0.017,1.5 0.022,2.25 0.725,3.709 1.548,7.386 3.41,10.732 0.161,0.331 0.321,0.663 0.483,0.994 0.771,0.939 1.524,1.895 2.318,2.816 1.715,1.99 3.425,3.988 5.86,5.171 0.387,0.188 0.724,0.484 1.074,0.745 2.131,1.592 4.49,1.397 6.868,0.823 1.482,-0.357 2.937,-0.834 4.403,-1.261 0.074,-0.021 0.162,-0.054 0.206,-0.111 0.971,-1.235 2.596,-1.856 3.21,-3.425 1.272,-2.095 1.368,-4.476 1.408,-6.793 0.053,-3.011 -0.151,-6.033 -0.363,-9.043 -0.082,-1.158 -0.363,-2.34 -0.773,-3.429 -0.908,-2.415 -1.792,-4.839 -3.318,-6.988 -1.484,-2.089 -3.307,-3.836 -5.243,-5.45 -1.445,-1.203 -3.108,-2.144 -4.674,-3.202 -1.828,-0.75 -3.702,-1.292 -5.703,-1.26"
             style="fill:#ffffff;fill-opacity:1;fill-rule:nonzero;stroke:none"
             id="path182"
             inkscape:connector-curvature="0" /></g><g
           id="g184"
           transform="matrix(1.3744866,0,0,1.3744866,196.17941,187.65316)"
           style="fill:#ffffff"><path
             d="M 0,0 C -0.195,-0.041 -0.391,-0.082 -0.668,-0.141 -0.97,0.424 -1.282,1.009 -1.638,1.674 -2.076,1.51 -2.58,1.321 -3.113,1.122 -3.765,1.748 -4.041,2.47 -4.094,3.431 -4.21,5.582 -3.5,7.599 -3.306,9.689 c 0.245,2.651 0.458,5.304 0.625,7.96 0.038,0.618 -0.165,1.25 -0.249,1.821 -0.538,0.183 -1.045,0.344 -1.543,0.528 -0.562,0.207 -0.604,0.686 -0.579,1.186 0.026,0.503 0.279,0.814 0.778,0.928 0.153,0.035 0.295,0.117 0.447,0.164 1.638,0.505 1.686,0.609 1.858,2.283 0.309,2.998 0.66,5.99 0.993,8.974 -1.165,0.72 -1.231,1.233 -0.432,2.346 0.365,0.51 0.612,1.104 0.908,1.649 -0.275,0.445 -0.576,0.847 -0.788,1.291 -0.367,0.771 -0.047,1.316 0.752,1.448 1.174,0.192 2.346,0.408 3.513,0.639 1.711,0.34 3.419,0.704 5.128,1.056 2.359,0.486 4.734,0.908 7.07,1.489 0.901,0.225 1.721,0.793 2.56,1.24 0.434,0.231 0.769,0.312 1.309,0.14 0.536,-0.171 1.22,0.056 1.824,0.18 0.535,0.11 1.051,0.318 1.408,0.43 0.62,-0.499 1.099,-0.894 1.587,-1.275 0.444,-0.347 0.423,-1.306 -0.066,-1.732 -0.358,-0.313 -0.742,-0.594 -1.115,-0.889 -0.205,-0.115 -0.423,-0.211 -0.614,-0.348 -1.118,-0.8 -2.141,-1.799 -3.696,-1.628 -0.158,0.018 -0.373,-0.133 -0.503,-0.264 -1.021,-1.032 -2.007,-2.101 -3.049,-3.112 -0.713,-0.691 -1.527,-1.163 -2.607,-0.824 -0.896,0.282 -0.904,0.282 -0.551,1.094 0.17,0.391 0.246,0.824 0.364,1.238 -0.093,0.083 -0.187,0.167 -0.281,0.25 C 9.132,37.034 6.518,36.116 3.852,35.181 3.535,31.414 2.894,27.639 2.901,23.77 c 0.778,0 1.374,-0.022 1.967,0.01 0.228,0.013 0.45,0.146 0.672,0.233 0.629,0.245 1.256,0.495 1.884,0.743 0.148,-0.047 0.328,-0.17 0.441,-0.126 0.505,0.2 0.974,0.503 1.488,0.668 1.127,0.36 2.277,0.656 3.415,0.986 1.366,0.397 2.774,0.691 4.082,1.231 1.349,0.557 2.663,0.961 4.151,0.886 0.809,-0.04 1.345,-0.436 1.157,-1.247 -0.062,-0.27 -0.27,-0.551 -0.225,-0.794 0.185,-1.002 -0.376,-1.607 -1.037,-2.182 C 19.478,23.677 17.954,23.362 16.663,22.636 14.029,21.152 11.119,21.355 8.31,20.93 7.348,20.783 6.365,20.752 5.412,20.566 4.839,20.455 4.314,20.113 3.749,19.937 3.131,19.744 2.856,19.403 2.844,18.728 2.807,16.836 2.681,14.946 2.634,13.055 2.584,11.032 2.6,9.008 2.558,6.985 2.521,5.238 2.462,3.49 2.381,1.744 2.325,0.561 2.033,0.311 0.869,0.23 0.575,0.21 0.29,0.08 0,0"
             style="fill:#ffffff;fill-opacity:1;fill-rule:nonzero;stroke:none"
             id="path186"
             inkscape:connector-curvature="0" /></g><g
           id="g188"
           transform="matrix(1.3744866,0,0,1.3744866,339.64406,48.499718)"
           style="fill:#ffffff"><path
             d="m 0,0 c -0.467,-0.46 -0.984,-0.648 -1.671,-0.536 -0.807,0.132 -1.637,0.125 -2.67,0.192 -0.07,1.014 -0.142,2.053 -0.222,3.187 -0.652,0.331 -0.667,0.329 -1.892,-0.321 -0.44,0.8 -1.233,1.416 -1.182,2.466 L -7.65,4.973 c 0.993,0.893 1.331,2.132 1.615,3.343 0.458,1.956 0.703,3.962 1.163,5.917 0.824,3.496 0.88,7.075 1.252,10.618 0.292,2.78 0.461,5.573 0.637,8.364 0.052,0.839 -0.056,1.688 -0.09,2.533 0.706,1.122 0.335,2.409 0.554,3.606 0.329,2.128 0.601,4.268 1.003,6.383 0.299,1.571 0.769,3.108 1.16,4.66 0.16,0.64 0.221,1.324 0.491,1.913 0.48,1.048 1.098,2.026 2.422,2.209 0.493,-0.524 0.599,-1.498 1.729,-1.476 0.244,0.005 0.476,-0.912 0.77,-1.368 0.199,-0.307 0.497,-0.55 0.751,-0.821 0.15,-0.059 0.3,-0.118 0.451,-0.175 C 6.309,50.619 6.373,50.59 6.451,50.59 6.893,48.889 6.687,47.248 6.094,45.594 6.355,44.866 6.652,44.048 6.937,43.226 6.958,43.167 6.891,43.08 6.872,43.004 6.734,42.44 6.601,41.875 6.462,41.311 6.122,39.935 6.228,38.474 5.573,37.148 5.337,36.671 5.324,36.069 5.271,35.519 5.092,33.712 4.958,31.9 4.767,30.095 4.714,29.587 4.465,29.101 4.41,28.593 4.286,27.457 4.25,26.311 4.139,25.173 4.014,23.912 3.816,22.657 3.702,21.396 3.563,19.865 3.483,18.33 3.366,16.798 3.317,16.156 3.241,15.517 3.173,14.876 3.08,14.009 3.013,13.137 2.882,12.275 2.721,11.206 2.516,10.144 2.31,9.082 2.11,8.05 1.817,7.031 1.687,5.991 1.428,3.903 0.567,1.995 0,0"
             style="fill:#ffffff;fill-opacity:1;fill-rule:nonzero;stroke:none"
             id="path190"
             inkscape:connector-curvature="0" /></g><g
           id="g196"
           transform="matrix(1.3744866,0,0,1.3744866,272.09026,48.670298)"
           style="fill:#ffffff"><path
             d="m 0,0 c -0.355,0.041 -0.71,0.082 -1.137,0.132 0.097,0.559 -0.034,0.856 -0.698,0.889 -1.459,0.07 -1.839,0.485 -1.993,1.953 -0.063,0.593 -0.068,1.193 -0.1,1.791 -0.079,2.2 0.678,4.247 1.163,6.343 0.923,2.393 1.094,4.936 1.5,7.433 0.376,2.313 0.789,4.619 1.179,6.929 0.251,1.485 0.454,2.98 0.741,4.459 0.482,2.479 0.975,4.959 1.536,7.422 0.312,1.368 0.712,2.722 1.192,4.04 0.194,0.53 0.717,0.938 1.074,1.414 0.467,0.621 1.057,0.318 1.642,0.282 0.586,-0.035 1.181,0.059 1.77,0.123 0.562,0.062 0.955,-10e-4 0.876,-0.728 C 8.665,41.741 8.641,40.995 8.597,40.251 8.579,39.955 8.575,39.658 8.565,39.362 8.218,37.62 7.805,35.889 7.543,34.134 7.251,32.179 7.259,30.167 6.838,28.246 6.38,26.152 6.519,24.034 6.22,21.939 5.885,19.586 5.797,17.197 5.537,14.832 5.31,12.757 4.937,10.696 4.736,8.619 4.596,7.167 4.514,5.72 4.098,4.307 3.786,3.249 3.573,2.162 3.288,1.095 2.972,-0.09 2.588,-0.273 1.407,-0.014 0.959,0.085 0.47,0.001 0,0"
             style="fill:#ffffff;fill-opacity:1;fill-rule:nonzero;stroke:none"
             id="path198"
             inkscape:connector-curvature="0" /></g><g
           id="g296"
           transform="translate(395.467,204.7117)" /><g
           id="g920"
           transform="matrix(1.1450657,0,0,1.1450657,121.42383,386.7013)"
           style="fill:#ffffff"><path
             d="M 0,0 C -0.159,-0.16 -0.318,-0.321 -0.477,-0.481 -0.318,-0.321 -0.159,-0.16 0,0"
             style="fill:#ffffff;fill-opacity:1;fill-rule:nonzero;stroke:none"
             id="path922"
             inkscape:connector-curvature="0" /></g><g
           id="g928"
           transform="matrix(1.1450657,0,0,1.1450657,74.901645,178.23671)"
           style="fill:#ffffff"><path
             d="M 0,0 C 0.09,-0.052 0.181,-0.104 0.271,-0.157 0.181,-0.104 0.09,-0.052 0,0"
             style="fill:#ffffff;fill-opacity:1;fill-rule:nonzero;stroke:none"
             id="path930"
             inkscape:connector-curvature="0" /></g><g
           id="g988"
           transform="matrix(1.1450657,0,0,1.1450657,377.82683,353.96456)"
           style="fill:#ffffff" /><g
           id="g1100"
           transform="translate(468.2893,277.1072)" /><g
           id="g1188"
           transform="matrix(1.1450657,0,0,1.1450657,241.82405,455.3962)"
           style="fill:#ffffff"><path
             d="M 0,0 C -0.08,-0.129 -0.16,-0.258 -0.24,-0.386 -0.16,-0.258 -0.08,-0.129 0,0"
             style="fill:#ffffff;fill-opacity:1;fill-rule:nonzero;stroke:none"
             id="path1190"
             inkscape:connector-curvature="0" /></g><g
           id="g1192"
           transform="matrix(1.1450657,0,0,1.1450657,241.6121,454.89478)"
           style="fill:#ffffff"><path
             d="M 0,0 C -0.097,-0.113 -0.195,-0.226 -0.292,-0.339 -0.195,-0.226 -0.097,-0.113 0,0"
             style="fill:#ffffff;fill-opacity:1;fill-rule:nonzero;stroke:none"
             id="path1194"
             inkscape:connector-curvature="0" /></g><g
           id="g1364"
           transform="matrix(1.1450657,0,0,1.1450657,456.14863,286.9402)"
           style="fill:#ffffff" /><g
           id="g1372"
           transform="matrix(1.1450657,0,0,1.1450657,336.32381,381.54794)"
           style="fill:#ffffff" /><g
           id="g1376"
           transform="matrix(1.1450657,0,0,1.1450657,45.025393,300.40309)"
           style="fill:#ffffff"><path
             d="M 0,0 C 0.051,-0.073 0.102,-0.146 0.025,-0.037 0.066,-0.165 0.039,-0.078 0.01,0.009 Z"
             style="fill:#ffffff;fill-opacity:1;fill-rule:nonzero;stroke:none"
             id="path1378"
             inkscape:connector-curvature="0" /></g><g
           id="g1380"
           transform="matrix(1.1450657,0,0,1.1450657,301.37251,417.59002)"
           style="fill:#ffffff"><path
             d="M 0,0 C 0.01,0.025 0.019,0.071 0.029,0.071 0.059,0.072 0.089,0.055 0.119,0.044 0.109,0.019 0.101,-0.027 0.091,-0.027 0.061,-0.028 0.03,-0.011 0,0"
             style="fill:#ffffff;fill-opacity:1;fill-rule:nonzero;stroke:none"
             id="path1382"
             inkscape:connector-curvature="0" /></g><g
           id="g1384"
           transform="matrix(1.1450657,0,0,1.1450657,152.76107,418.57135)"
           style="fill:#ffffff"><path
             d="M 0,0 C 0.016,0.029 0.031,0.058 0.046,0.086 0.029,0.06 0.012,0.033 -0.006,0.006 Z"
             style="fill:#ffffff;fill-opacity:1;fill-rule:nonzero;stroke:none"
             id="path1386"
             inkscape:connector-curvature="0" /></g><g
           id="g1388"
           transform="matrix(1.1450657,0,0,1.1450657,139.56202,404.83113)"
           style="fill:#ffffff"><path
             d="M 0,0 C 0.025,-0.013 0.049,-0.027 0.074,-0.041 0.052,-0.024 0.029,-0.009 0.007,0.007 Z"
             style="fill:#ffffff;fill-opacity:1;fill-rule:nonzero;stroke:none"
             id="path1390"
             inkscape:connector-curvature="0" /></g><g
           id="g1416"
           transform="matrix(1.1450657,0,0,1.1450657,10.690713,248.94509)"
           style="fill:#ffffff"><path
             d="M 0,0 C 0.069,0.098 0.139,0.197 0.208,0.295 0.139,0.197 0.069,0.098 0,0"
             style="fill:#ffffff;fill-opacity:1;fill-rule:nonzero;stroke:none"
             id="path1418"
             inkscape:connector-curvature="0" /></g><g
           id="g1548"
           transform="translate(422.8479,377.8494)" /><g
           id="g2028"
           transform="matrix(1.1450657,0,0,1.1450657,167.59597,429.02064)"
           style="fill:#ffffff"><path
             d="M 0,0 C 0.083,0.063 0.167,0.126 0.25,0.189 0.167,0.125 0.085,0.061 0.003,-0.003 Z"
             style="fill:#ffffff;fill-opacity:1;fill-rule:nonzero;stroke:none"
             id="path2030"
             inkscape:connector-curvature="0" /></g><g
           id="g2032"
           transform="matrix(1.1450657,0,0,1.1450657,167.59941,429.01663)"
           style="fill:#ffffff"><path
             d="m 0,0 c -0.089,-0.058 -0.177,-0.116 -0.266,-0.173 0.088,0.059 0.176,0.117 0.263,0.176 z"
             style="fill:#ffffff;fill-opacity:1;fill-rule:nonzero;stroke:none"
             id="path2034"
             inkscape:connector-curvature="0" /></g><g
           id="g2036"
           transform="matrix(1.1450657,0,0,1.1450657,195.62157,443.65882)"
           style="fill:#ffffff"><path
             d="M 0,0 C 0.084,-0.009 0.168,-0.019 0.252,-0.028 0.168,-0.019 0.084,-0.009 0,0"
             style="fill:#ffffff;fill-opacity:1;fill-rule:nonzero;stroke:none"
             id="path2038"
             inkscape:connector-curvature="0" /></g><g
           id="g2072"
           transform="matrix(1.1450657,0,0,1.1450657,317.23236,397.24335)"
           style="fill:#ffffff" /><g
           id="g2076"
           transform="matrix(1.1450657,0,0,1.1450657,312.96069,404.30325)"
           style="fill:#ffffff" /><g
           id="g2080"
           transform="matrix(1.1450657,0,0,1.1450657,348.69704,370.21076)"
           style="fill:#ffffff" /><g
           id="g2084"
           transform="matrix(1.1450657,0,0,1.1450657,338.35905,380.7757)"
           style="fill:#ffffff" /><g
           id="g2176"
           transform="matrix(1.1450657,0,0,1.1450657,286.30654,430.93107)"
           style="fill:#ffffff"><path
             d="M 0,0 C -0.039,0.042 -0.078,0.083 -0.117,0.125 -0.072,0.089 -0.026,0.054 0.019,0.019 Z"
             style="fill:#ffffff;fill-opacity:1;fill-rule:nonzero;stroke:none"
             id="path2178"
             inkscape:connector-curvature="0" /></g><g
           id="g2336"
           transform="matrix(1.1450657,0,0,1.1450657,224.77048,452.41891)"
           style="fill:#ffffff"><path
             d="M 0,0 -0.649,-0.305 Z"
             style="fill:#ffffff;fill-opacity:1;fill-rule:nonzero;stroke:none"
             id="path2338"
             inkscape:connector-curvature="0" /></g></g></g></g></svg>