<svg id="Capa_1" data-name="Capa 1" xmlns="http://www.w3.org/2000/svg" viewBox="0 0 340.16 141.73"><defs><style>.cls-1{fill:#f9b65e;}.cls-2{fill:#030303;}.cls-3{fill:#1d1d1b;}.cls-4{font-size:12px;font-family:BellaniaRegular, Bellania;}.cls-13,.cls-4{fill:#644448;}.cls-5{letter-spacing:-0.02em;}.cls-6{letter-spacing:-0.04em;}.cls-7{letter-spacing:-0.03em;}.cls-8{letter-spacing:-0.03em;}.cls-9{letter-spacing:0em;}.cls-10{letter-spacing:-0.04em;}.cls-11{letter-spacing:-0.04em;}.cls-12{fill:#f18836;stroke:#f18836;stroke-miterlimit:10;stroke-width:2px;}</style></defs><rect class="cls-1" x="0.12" width="340.92" height="141.83"/><path class="cls-2" d="M52.8,116.51c.16.27.13.62-.1.72-2.43,1-1.77,2.9-1.55,4.77.49,4,.11,8,.07,12.05,0,1.4-1,1.13-1.72,1-2.51-.59-5-1.29-7.48-2a3.66,3.66,0,0,1-2.5-2.52,17.92,17.92,0,0,1-1-7.12c.31-4.78,1-9.64-.21-14.45-.27-1.12-.9-1.25-1.64-1.41a62.36,62.36,0,0,1-13.56-4.36,66.79,66.79,0,0,1-11.4-6.72A16.68,16.68,0,0,1,6.36,78.9a25.13,25.13,0,0,1,3.52-7.34A88.5,88.5,0,0,1,27.49,52.62c1.8-1.45,4.13-2,6-3.41a8.38,8.38,0,0,0,3.68-5.46c1-6.48,4.08-12.06,7-17.74,2.09-4.05,4.67-7.84,8.33-10.5C60.09,10,68,5.22,77.28,2.85c7-1.78,12.72.48,18.21,4.21,3.14,2.13,6.23,4.35,9.3,6.58a16.92,16.92,0,0,1,5,5.88,7.16,7.16,0,0,0,4.64,3.62,17.86,17.86,0,0,1,8.45,6.12,8.53,8.53,0,0,0,5.21,3.17c7,1.37,14,2.56,21.1,3.62a51.48,51.48,0,0,1,6,1.43c6.91,1.91,8.34,5.08,9,12.12.49,5-2.73,8.33-5,12.18-3.57,6.15-8.77,10.89-13.59,15.93-2.13,2.24-4.89,3.89-7.39,5.77-.34.25-.8.8-1.23.41a1.84,1.84,0,0,1-.38-1.32c.19-3.45.39-6.9.4-10.36a5.3,5.3,0,0,0-.48-2.9C133.8,65,133.18,60,132,55.19a29.2,29.2,0,0,0-2.47-6.69c-2.34-4.38-6.3-5.8-11-6.23-10.55-1-21,0-31.37,1.63A98.39,98.39,0,0,0,62.67,51c-1.88.82-2.87,1.77-2.35,4a9.82,9.82,0,0,1-1.11,6.49c-1.92,4.12-2.45,8.62-2.82,13.11A77.32,77.32,0,0,1,53.48,90a33.35,33.35,0,0,0-.8,5.24c-.11.81-.17,1.83-1.18,1.89S50.33,96,50.2,95.31c-.53-2.91-1.36-5.58-4.14-7.17A17.78,17.78,0,0,0,39.92,86c-3.2-.51-6,3.63-5.11,7.44a26,26,0,0,0,2.34,6.09,32.88,32.88,0,0,1,3.15,8.58,4,4,0,0,0,.2.58c.68,2,2.23,3.38,2.71,5.58.3,1.36,2.41,2.64,4,3.3a4.78,4.78,0,0,0,4.88-.94C52.28,116.46,52.52,116.32,52.8,116.51Z"/><path class="cls-3" d="M207.46,33.18h-1.68v-.47h1.76l.44-3h-1.8v-.47H208l.52-3.31h.56l-.52,3.31h3.13l.52-3.31h.56l-.52,3.31h1.65v.47h-1.69l-.44,3h1.72v.47h-1.8l-.52,3.65h-.56l.52-3.65H208l-.52,3.65h-.56Zm3.77-.47.44-3h-3.13l-.44,3Z"/><path class="cls-3" d="M216.52,25.77h7.06v.47h-6.42V30.9h5.41v.47h-5.41v5.46h-.64Z"/><path class="cls-3" d="M225.46,28.82H226l.08,1.51h0a3.34,3.34,0,0,1,2.73-1.71,2.14,2.14,0,0,1,.92.17l-.16.46a2.31,2.31,0,0,0-.84-.13c-.89,0-1.93.57-2.69,2.15v5.56h-.6Z"/><path class="cls-3" d="M230.55,32.84a4.09,4.09,0,0,1,4.13-4.22,3.34,3.34,0,0,1,3.61,3.68,2.6,2.6,0,0,1,0,.54h-7.06A3.57,3.57,0,0,0,235,36.56a5,5,0,0,0,2.65-.74l.28.44a5.83,5.83,0,0,1-3,.77A4.11,4.11,0,0,1,230.55,32.84Zm7.14-.47c0-2.21-1.21-3.28-3-3.28a3.49,3.49,0,0,0-3.49,3.28Z"/><path class="cls-3" d="M240.13,32.84a4.09,4.09,0,0,1,4.13-4.22,3.34,3.34,0,0,1,3.61,3.68,2.6,2.6,0,0,1,0,.54h-7.06a3.57,3.57,0,0,0,3.77,3.72,5,5,0,0,0,2.65-.74l.28.44a5.83,5.83,0,0,1-3,.77A4.11,4.11,0,0,1,240.13,32.84Zm7.14-.47c0-2.21-1.21-3.28-3-3.28a3.49,3.49,0,0,0-3.49,3.28Z"/><path class="cls-3" d="M249.75,31.27c0-3.49,2.24-5.7,5.37-5.7s5.38,2.21,5.38,5.7S258.25,37,255.12,37,249.75,34.75,249.75,31.27Zm10.06,0c0-3.19-1.88-5.2-4.69-5.2s-4.69,2-4.69,5.2,1.89,5.26,4.69,5.26S259.81,34.45,259.81,31.27Z"/><path class="cls-3" d="M263.54,36V24.73h.6V36.06c0,.33.16.5.4.5a2,2,0,0,0,.36,0L265,37a1.81,1.81,0,0,1-.52.07C263.9,37,263.54,36.73,263.54,36Z"/><path class="cls-3" d="M267.43,34.87c0-1.8,2-2.63,6.29-3,0-1.3-.36-2.74-2.36-2.74a5.87,5.87,0,0,0-3.13,1l-.32-.4a6.92,6.92,0,0,1,3.49-1c2.24,0,2.92,1.41,2.92,3v5.2h-.52l-.08-1.07h0A6.44,6.44,0,0,1,270.19,37C268.71,37,267.43,36.39,267.43,34.87Zm6.29.32V32.27c-4.21.4-5.65,1.21-5.65,2.58s1,1.71,2.16,1.71A6,6,0,0,0,273.72,35.19Z"/><path class="cls-3" d="M278,25.77h3.45c2.64,0,4.29.87,4.29,2.68a2.43,2.43,0,0,1-2.09,2.41v.07c1.77.23,2.93,1.14,2.93,2.68,0,2.11-1.88,3.22-4.89,3.22H278Zm3,4.93c2.88,0,4.05-.84,4.05-2.22,0-1.64-1.37-2.24-3.93-2.24h-2.53V30.7Zm.4,5.66c2.76,0,4.49-.84,4.49-2.72,0-1.67-1.65-2.48-4.49-2.48h-2.81v5.2Z"/><path class="cls-3" d="M289,26.21a.61.61,0,0,1,.68-.57c.37,0,.69.2.69.57a.7.7,0,0,1-1.37,0Zm.36,2.61H290v8h-.61Z"/><path class="cls-3" d="M293.84,28.82h.52l.08,1.27h0a5.11,5.11,0,0,1,3.33-1.47c2,0,2.89,1,2.89,3.05v5.16h-.6v-5.1c0-1.77-.68-2.64-2.33-2.64-1.2,0-2.08.53-3.33,1.61v6.13h-.6Z"/><path class="cls-3" d="M304,26.21c0-.37.32-.57.69-.57a.61.61,0,0,1,.68.57.7.7,0,0,1-1.37,0Zm.37,2.61h.6v8h-.6Z"/><text class="cls-4" transform="translate(54.72 132.45)">Jus<tspan class="cls-5" x="18.95" y="0">t</tspan><tspan x="20.95" y="0">ice for those who use their know</tspan><tspan class="cls-6" x="155.59" y="0">l</tspan><tspan class="cls-7" x="157.5" y="0">e</tspan><tspan class="cls-8" x="161.13" y="0">d</tspan><tspan class="cls-9" x="165.62" y="0">ge </tspan><tspan class="cls-10" x="178.74" y="0">t</tspan><tspan x="180.49" y="0">o build a bet</tspan><tspan class="cls-11" x="233.38" y="0">t</tspan><tspan class="cls-9" x="235.16" y="0">er world!</tspan></text><path class="cls-12" d="M195.76,50.86a.57.57,0,0,1,.47.21.58.58,0,0,1,.12.51l-3.69,17.28a.91.91,0,0,1-.3.51.86.86,0,0,1-.55.21h-4.23a.9.9,0,0,1-.73-.24,1.83,1.83,0,0,1-.26-.37l-3.05-6.82-1.44,6.71a.92.92,0,0,1-.31.51.84.84,0,0,1-.55.21H176.4a.58.58,0,0,1-.47-.21.66.66,0,0,1-.12-.51l3.69-17.28a.89.89,0,0,1,.31-.51.84.84,0,0,1,.55-.21h4.22a.9.9,0,0,1,.73.24,2.17,2.17,0,0,1,.24.37l3,7.41,1.55-7.3a.84.84,0,0,1,.31-.51.82.82,0,0,1,.54-.21Z"/><path class="cls-12" d="M215.32,57.92c-.15.77-.3,1.56-.47,2.38s-.35,1.6-.52,2.33a12.26,12.26,0,0,1-1.26,3.14,7.8,7.8,0,0,1-2,2.26,8.16,8.16,0,0,1-2.86,1.36,14.18,14.18,0,0,1-3.82.46,11.6,11.6,0,0,1-3.33-.46A7.42,7.42,0,0,1,198.36,68a5.48,5.48,0,0,1-1.66-2.26,5.78,5.78,0,0,1-.24-3.14c.13-.73.27-1.51.44-2.33s.35-1.61.55-2.38a11.42,11.42,0,0,1,1.23-3.13,8,8,0,0,1,2-2.3,8.67,8.67,0,0,1,2.87-1.42,13.88,13.88,0,0,1,3.83-.48,11.26,11.26,0,0,1,3.33.48,7.77,7.77,0,0,1,2.69,1.42,5.5,5.5,0,0,1,1.65,2.3A5.86,5.86,0,0,1,215.32,57.92Zm-11.88,4.55a2,2,0,0,0,.21,1.64,1.61,1.61,0,0,0,1.31.52,2.3,2.3,0,0,0,1.52-.52,3.13,3.13,0,0,0,.92-1.64q.56-2.28,1-4.5a1.88,1.88,0,0,0-.23-1.64,1.58,1.58,0,0,0-1.29-.52,2.3,2.3,0,0,0-1.5.52A3,3,0,0,0,204.4,58Q203.85,60.19,203.44,62.47Z"/><path class="cls-12" d="M239.07,50.86a.56.56,0,0,1,.46.21.58.58,0,0,1,.12.51l-.93,4.31a.87.87,0,0,1-.31.5.8.8,0,0,1-.55.22h-4.44L230.8,68.86a.87.87,0,0,1-.31.51.84.84,0,0,1-.55.21H224.6a.57.57,0,0,1-.47-.21.59.59,0,0,1-.12-.51l2.62-12.25h-4.44a.56.56,0,0,1-.47-.22.62.62,0,0,1-.12-.5l.94-4.31a.87.87,0,0,1,.3-.51.86.86,0,0,1,.55-.21Z"/><path class="cls-12" d="M257.6,57.92c-.14.77-.3,1.56-.47,2.38s-.34,1.6-.52,2.33a11.58,11.58,0,0,1-1.26,3.14,7.77,7.77,0,0,1-2,2.26,8.3,8.3,0,0,1-2.87,1.36,14.18,14.18,0,0,1-3.82.46,11.6,11.6,0,0,1-3.33-.46A7.5,7.5,0,0,1,240.64,68,5.48,5.48,0,0,1,239,65.77a6,6,0,0,1-.24-3.14c.13-.73.28-1.51.45-2.33s.35-1.61.54-2.38A11.75,11.75,0,0,1,241,54.79a8,8,0,0,1,2-2.3,8.62,8.62,0,0,1,2.88-1.42,13.75,13.75,0,0,1,3.82-.48,11.26,11.26,0,0,1,3.33.48,7.68,7.68,0,0,1,2.69,1.42,5.61,5.61,0,0,1,1.66,2.3A5.86,5.86,0,0,1,257.6,57.92Zm-11.88,4.55a2,2,0,0,0,.22,1.64,1.58,1.58,0,0,0,1.31.52,2.27,2.27,0,0,0,1.51-.52,3.06,3.06,0,0,0,.92-1.64c.38-1.52.7-3,1-4.5a2,2,0,0,0-.23-1.64,1.61,1.61,0,0,0-1.3-.52,2.3,2.3,0,0,0-1.5.52,3,3,0,0,0-.93,1.64C246.31,59.45,246,61,245.72,62.47Z"/><path class="cls-12" d="M281.35,50.86a.59.59,0,0,1,.47.21.65.65,0,0,1,.12.51L281,55.89a.87.87,0,0,1-.31.5.8.8,0,0,1-.55.22H275.7l-2.62,12.25a.85.85,0,0,1-.3.51.86.86,0,0,1-.55.21h-5.35a.58.58,0,0,1-.47-.21.62.62,0,0,1-.12-.51l2.62-12.25h-4.44a.57.57,0,0,1-.47-.22.62.62,0,0,1-.12-.5l.94-4.31a.89.89,0,0,1,.31-.51.84.84,0,0,1,.54-.21Z"/><path class="cls-12" d="M301,50.86a.59.59,0,0,1,.59.72l-3.69,17.28a.92.92,0,0,1-.31.51.84.84,0,0,1-.55.21h-5.24a.59.59,0,0,1-.47-.21.66.66,0,0,1-.12-.51l1.23-5.78h-4.33l-1.23,5.78a.92.92,0,0,1-.31.51.84.84,0,0,1-.55.21h-5.24a.62.62,0,0,1-.47-.2.64.64,0,0,1-.12-.52l3.69-17.28a.89.89,0,0,1,.31-.51.84.84,0,0,1,.55-.21h5.24a.59.59,0,0,1,.59.72l-1.2,5.62h4.33l1.2-5.62a.89.89,0,0,1,.31-.51.84.84,0,0,1,.55-.21Z"/><path class="cls-12" d="M316.38,64.37a.55.55,0,0,1,.46.21.63.63,0,0,1,.11.51l-.81,3.77a.91.91,0,0,1-.3.51.86.86,0,0,1-.55.21H301.35a.59.59,0,0,1-.47-.21.66.66,0,0,1-.12-.51l3.7-17.28a.83.83,0,0,1,.3-.51.84.84,0,0,1,.55-.21H319a.58.58,0,0,1,.47.21.61.61,0,0,1,.12.51l-.8,3.77a1,1,0,0,1-.34.51.84.84,0,0,1-.55.21h-8l-.37,1.69H317a.59.59,0,0,1,.59.72L316.81,62a.84.84,0,0,1-.32.51.91.91,0,0,1-.56.21h-7.44l-.34,1.69Z"/><path class="cls-12" d="M115.66,106.13c-.15.8-.32,1.63-.49,2.49s-.36,1.66-.55,2.43a12.15,12.15,0,0,1-1.31,3.28,8.33,8.33,0,0,1-2.09,2.36,8.91,8.91,0,0,1-3,1.42,15.38,15.38,0,0,1-4,.47,12.67,12.67,0,0,1-3.48-.47,8,8,0,0,1-2.8-1.42,5.63,5.63,0,0,1-1.73-2.36,6.09,6.09,0,0,1-.26-3.28c.13-.77.29-1.58.47-2.43s.36-1.69.57-2.49a11.61,11.61,0,0,1,1.28-3.26,8.26,8.26,0,0,1,2.11-2.4,9,9,0,0,1,3-1.49,14.55,14.55,0,0,1,4-.5,12,12,0,0,1,3.48.5,7.91,7.91,0,0,1,2.8,1.49,5.75,5.75,0,0,1,1.73,2.4A6,6,0,0,1,115.66,106.13Zm-12.4,4.75a2.1,2.1,0,0,0,.22,1.72,1.69,1.69,0,0,0,1.37.54,2.4,2.4,0,0,0,1.58-.54,3.21,3.21,0,0,0,1-1.72c.39-1.58.73-3.15,1-4.69a2,2,0,0,0-.24-1.72,1.68,1.68,0,0,0-1.35-.54,2.43,2.43,0,0,0-1.57.54,3.18,3.18,0,0,0-1,1.72C103.87,107.73,103.54,109.3,103.26,110.88Z"/><path class="cls-12" d="M134.58,98.76a.61.61,0,0,1,.49.22.64.64,0,0,1,.13.54l-.92,4.24a1,1,0,0,1-.32.53.88.88,0,0,1-.58.22h-8l-.45,2.07h7.43a.55.55,0,0,1,.47.22.65.65,0,0,1,.11.53l-.89,4.22a1,1,0,0,1-.92.75h-7.43l-1.11,5.25a.92.92,0,0,1-.32.53.88.88,0,0,1-.58.22h-5.33a.6.6,0,0,1-.49-.22.61.61,0,0,1-.12-.53l3.85-18a.9.9,0,0,1,.32-.54.93.93,0,0,1,.57-.22Z"/><path class="cls-12" d="M156.86,117.38a.54.54,0,0,1-.12.66.89.89,0,0,1-.6.26h-5.95a1.08,1.08,0,0,1-.68-.18,1,1,0,0,1-.35-.46l-2.38-6.08-1.28,6a.92.92,0,0,1-.32.53.87.87,0,0,1-.57.22h-5.34a.58.58,0,0,1-.48-.22.59.59,0,0,1-.13-.53l3.85-18a1,1,0,0,1,.32-.54.93.93,0,0,1,.58-.22h5.33a.61.61,0,0,1,.61.76l-1.2,5.52,4.39-5.66A1.72,1.72,0,0,1,153,99a1.34,1.34,0,0,1,.76-.2h6.31a.44.44,0,0,1,.48.32.66.66,0,0,1-.14.6l-7.23,9Z"/><path class="cls-12" d="M169.9,111.83l-3.1,5.72a1.75,1.75,0,0,1-.4.46,1.25,1.25,0,0,1-.88.29h-4a1,1,0,0,1-.83-.33.92.92,0,0,1-.23-.73l.92-17.78a.74.74,0,0,1,.27-.49.77.77,0,0,1,.52-.21h5.05a1.09,1.09,0,0,1,.68.17.63.63,0,0,1,.16.59l-.73,7.87,1.87-3.49a5.19,5.19,0,0,1,.36-.5.91.91,0,0,1,.76-.31h2.85c.33,0,.54.1.62.31a2,2,0,0,1,.16.5l.42,3.46L177,99.52a1,1,0,0,1,.42-.59,1.46,1.46,0,0,1,.75-.17h5.34a.44.44,0,0,1,.4.22.57.57,0,0,1,0,.48l-6.06,17.78a1.66,1.66,0,0,1-.54.73,1.47,1.47,0,0,1-1,.33h-4a.83.83,0,0,1-.75-.29,2.18,2.18,0,0,1-.25-.46Z"/><path class="cls-12" d="M203,106.13c-.15.8-.31,1.63-.49,2.49s-.36,1.66-.54,2.43a12.49,12.49,0,0,1-1.32,3.28,8,8,0,0,1-2.09,2.36,8.82,8.82,0,0,1-3,1.42,15.38,15.38,0,0,1-4,.47,12.54,12.54,0,0,1-3.47-.47,8,8,0,0,1-2.81-1.42,5.71,5.71,0,0,1-1.73-2.36,6.09,6.09,0,0,1-.25-3.28c.13-.77.28-1.58.46-2.43s.37-1.69.57-2.49a12.25,12.25,0,0,1,1.28-3.26,8.41,8.41,0,0,1,2.11-2.4,9,9,0,0,1,3-1.49,14.63,14.63,0,0,1,4-.5,11.93,11.93,0,0,1,3.47.5,8,8,0,0,1,2.81,1.49,5.84,5.84,0,0,1,1.73,2.4A6.14,6.14,0,0,1,203,106.13Zm-12.4,4.75a2.06,2.06,0,0,0,.23,1.72,1.65,1.65,0,0,0,1.36.54,2.38,2.38,0,0,0,1.58-.54,3.28,3.28,0,0,0,1-1.72c.39-1.58.72-3.15,1-4.69a2,2,0,0,0-.24-1.72,1.67,1.67,0,0,0-1.35-.54,2.39,2.39,0,0,0-1.56.54,3.13,3.13,0,0,0-1,1.72C191.23,107.73,190.89,109.3,190.61,110.88Z"/><path class="cls-12" d="M214.2,111.83l-3.1,5.72a1.75,1.75,0,0,1-.4.46,1.23,1.23,0,0,1-.88.29h-4A1,1,0,0,1,205,118a.88.88,0,0,1-.22-.73l.92-17.78a.81.81,0,0,1,.78-.7h5.05a1.13,1.13,0,0,1,.69.17.6.6,0,0,1,.15.59l-.72,7.87,1.87-3.49a3.09,3.09,0,0,1,.36-.5.91.91,0,0,1,.75-.31h2.85c.33,0,.54.1.63.31a2.4,2.4,0,0,1,.15.5l.42,3.46,2.62-7.84a1.09,1.09,0,0,1,.42-.59,1.5,1.5,0,0,1,.76-.17h5.33a.43.43,0,0,1,.4.22.58.58,0,0,1,.05.48l-6.06,17.78a1.77,1.77,0,0,1-.55.73,1.47,1.47,0,0,1-1,.33h-4a.85.85,0,0,1-.76-.29,2.18,2.18,0,0,1-.25-.46Z"/><path class="cls-12" d="M242.6,112.58a.59.59,0,0,1,.48.23.53.53,0,0,1,.1.52l-.89,4.22a.92.92,0,0,1-.32.53.88.88,0,0,1-.58.22H227.32a.58.58,0,0,1-.48-.22.59.59,0,0,1-.13-.53l3.85-18a1,1,0,0,1,.32-.54.93.93,0,0,1,.58-.22H237a.61.61,0,0,1,.61.76l-2.79,13.06Z"/><path class="cls-12" d="M260.41,112.86a.55.55,0,0,1,.47.22.65.65,0,0,1,.11.53l-.84,3.94a1,1,0,0,1-.89.75H244.72a.59.59,0,0,1-.49-.22.65.65,0,0,1-.13-.53l3.85-18a.91.91,0,0,1,.33-.54.89.89,0,0,1,.57-.22h14.32a.61.61,0,0,1,.61.76l-.83,3.93a1.1,1.1,0,0,1-.35.53.89.89,0,0,1-.58.23h-8.37l-.39,1.75H261a.62.62,0,0,1,.61.76l-.78,3.63a.87.87,0,0,1-.33.53.92.92,0,0,1-.59.22h-7.76l-.36,1.76Z"/><path class="cls-12" d="M274.92,98.76a11.47,11.47,0,0,1,3.38.5,8.59,8.59,0,0,1,2.82,1.47,6,6,0,0,1,1.8,2.4,5.83,5.83,0,0,1,.27,3.31c-.08.39-.15.76-.21,1.1s-.13.68-.2,1-.14.65-.22,1-.17.69-.27,1.06A13.12,13.12,0,0,1,281,114a8,8,0,0,1-2.08,2.4,8.07,8.07,0,0,1-2.93,1.41,14.67,14.67,0,0,1-3.89.46h-8.74a.59.59,0,0,1-.49-.22.61.61,0,0,1-.12-.53l3.85-18a.85.85,0,0,1,.32-.54.93.93,0,0,1,.57-.22Zm1.18,7.68a1.79,1.79,0,0,0-.38-1.7,2.12,2.12,0,0,0-1.52-.53h-1.68l-1.84,8.65h1.81a2.78,2.78,0,0,0,1.67-.54,3,3,0,0,0,1-1.72c.11-.39.21-.76.28-1.1s.15-.68.23-1,.14-.65.2-1S276,106.83,276.1,106.44Z"/><path class="cls-12" d="M295.16,103.93a2.47,2.47,0,0,0-2.59,2.09c-.21.78-.39,1.57-.55,2.36s-.31,1.59-.46,2.39a2.19,2.19,0,0,0,.25,1.81,1.89,1.89,0,0,0,1.51.56,3.42,3.42,0,0,0,1.82-.46,2.23,2.23,0,0,0,1-1.55H294.8a.55.55,0,0,1-.47-.22.65.65,0,0,1-.12-.53l.65-3.1a1,1,0,0,1,.35-.53.85.85,0,0,1,.57-.23h7.68a.59.59,0,0,1,.48.23.55.55,0,0,1,.1.53l-.75,3.63a9.24,9.24,0,0,1-3.44,5.72,11.94,11.94,0,0,1-7.25,2,13.09,13.09,0,0,1-3.56-.47,8,8,0,0,1-2.84-1.42,5.55,5.55,0,0,1-1.71-2.39,6.29,6.29,0,0,1-.21-3.39c.13-.77.28-1.59.47-2.49s.38-1.74.59-2.54a9.58,9.58,0,0,1,3.4-5.55q2.46-1.85,7-1.85a13.45,13.45,0,0,1,3.73.5,10.05,10.05,0,0,1,2.93,1.36,5.9,5.9,0,0,1,1.83,2,3.44,3.44,0,0,1,.36,2.39.82.82,0,0,1-.75.61h-6.17c-.38,0-.62-.1-.73-.3l-.15-.3a1.59,1.59,0,0,0-.3-.36,1.77,1.77,0,0,0-.51-.31A2.43,2.43,0,0,0,295.16,103.93Z"/><path class="cls-12" d="M320.65,112.86a.54.54,0,0,1,.47.22.65.65,0,0,1,.12.53l-.84,3.94a.92.92,0,0,1-.32.53.87.87,0,0,1-.57.22H305a.6.6,0,0,1-.49-.22.61.61,0,0,1-.12-.53l3.85-18a.9.9,0,0,1,.32-.54.93.93,0,0,1,.57-.22h14.33a.61.61,0,0,1,.48.22.64.64,0,0,1,.13.54l-.84,3.93a1,1,0,0,1-.35.53.86.86,0,0,1-.57.23h-8.38L313.5,106h7.76a.59.59,0,0,1,.49.23.62.62,0,0,1,.13.53l-.78,3.63a1,1,0,0,1-.92.75h-7.76l-.37,1.76Z"/><path class="cls-12" d="M329.64,111.94a.57.57,0,0,1,.48.22.69.69,0,0,1,.11.53l-1,4.86a1,1,0,0,1-.89.75h-4.86a.58.58,0,0,1-.48-.22.59.59,0,0,1-.13-.53l1-4.86a1,1,0,0,1,.92-.75Zm2.79-13.18a.61.61,0,0,1,.49.22.67.67,0,0,1,.13.54l-2.26,10.55a.89.89,0,0,1-.34.53.92.92,0,0,1-.59.22H325a.55.55,0,0,1-.48-.22.65.65,0,0,1-.11-.53l2.26-10.55A1,1,0,0,1,327,99a.93.93,0,0,1,.58-.22Z"/><path class="cls-13" d="M193.76,50.86a.57.57,0,0,1,.47.21.58.58,0,0,1,.12.51l-3.69,17.28a.91.91,0,0,1-.3.51.86.86,0,0,1-.55.21h-4.23a.9.9,0,0,1-.73-.24,1.83,1.83,0,0,1-.26-.37l-3.05-6.82-1.44,6.71a.92.92,0,0,1-.31.51.84.84,0,0,1-.55.21H174.4a.58.58,0,0,1-.47-.21.66.66,0,0,1-.12-.51l3.69-17.28a.89.89,0,0,1,.31-.51.84.84,0,0,1,.55-.21h4.22a.9.9,0,0,1,.73.24,2.17,2.17,0,0,1,.24.37l3,7.41,1.55-7.3a.84.84,0,0,1,.31-.51.82.82,0,0,1,.54-.21Z"/><path class="cls-13" d="M213.32,57.92c-.15.77-.3,1.56-.47,2.38s-.35,1.6-.52,2.33a12.26,12.26,0,0,1-1.26,3.14,7.8,7.8,0,0,1-2,2.26,8.16,8.16,0,0,1-2.86,1.36,14.18,14.18,0,0,1-3.82.46,11.6,11.6,0,0,1-3.33-.46A7.42,7.42,0,0,1,196.36,68a5.48,5.48,0,0,1-1.66-2.26,5.78,5.78,0,0,1-.24-3.14c.13-.73.27-1.51.44-2.33s.35-1.61.55-2.38a11.42,11.42,0,0,1,1.23-3.13,8,8,0,0,1,2-2.3,8.67,8.67,0,0,1,2.87-1.42,13.88,13.88,0,0,1,3.83-.48,11.26,11.26,0,0,1,3.33.48,7.77,7.77,0,0,1,2.69,1.42,5.5,5.5,0,0,1,1.65,2.3A5.86,5.86,0,0,1,213.32,57.92Zm-11.88,4.55a2,2,0,0,0,.21,1.64,1.61,1.61,0,0,0,1.31.52,2.3,2.3,0,0,0,1.52-.52,3.13,3.13,0,0,0,.92-1.64q.56-2.28,1-4.5a1.88,1.88,0,0,0-.23-1.64,1.58,1.58,0,0,0-1.29-.52,2.3,2.3,0,0,0-1.5.52A3,3,0,0,0,202.4,58Q201.85,60.19,201.44,62.47Z"/><path class="cls-13" d="M237.07,50.86a.56.56,0,0,1,.46.21.58.58,0,0,1,.12.51l-.93,4.31a.87.87,0,0,1-.31.5.8.8,0,0,1-.55.22h-4.44L228.8,68.86a.87.87,0,0,1-.31.51.84.84,0,0,1-.55.21H222.6a.57.57,0,0,1-.47-.21.59.59,0,0,1-.12-.51l2.62-12.25h-4.44a.56.56,0,0,1-.47-.22.62.62,0,0,1-.12-.5l.94-4.31a.87.87,0,0,1,.3-.51.86.86,0,0,1,.55-.21Z"/><path class="cls-13" d="M255.6,57.92c-.14.77-.3,1.56-.47,2.38s-.34,1.6-.52,2.33a11.58,11.58,0,0,1-1.26,3.14,7.77,7.77,0,0,1-2,2.26,8.3,8.3,0,0,1-2.87,1.36,14.18,14.18,0,0,1-3.82.46,11.6,11.6,0,0,1-3.33-.46A7.5,7.5,0,0,1,238.64,68,5.48,5.48,0,0,1,237,65.77a6,6,0,0,1-.24-3.14c.13-.73.28-1.51.45-2.33s.35-1.61.54-2.38A11.75,11.75,0,0,1,239,54.79a8,8,0,0,1,2-2.3,8.62,8.62,0,0,1,2.88-1.42,13.75,13.75,0,0,1,3.82-.48,11.26,11.26,0,0,1,3.33.48,7.68,7.68,0,0,1,2.69,1.42,5.61,5.61,0,0,1,1.66,2.3A5.86,5.86,0,0,1,255.6,57.92Zm-11.88,4.55a2,2,0,0,0,.22,1.64,1.58,1.58,0,0,0,1.31.52,2.27,2.27,0,0,0,1.51-.52,3.06,3.06,0,0,0,.92-1.64c.38-1.52.7-3,1-4.5a2,2,0,0,0-.23-1.64,1.61,1.61,0,0,0-1.3-.52,2.3,2.3,0,0,0-1.5.52,3,3,0,0,0-.93,1.64C244.31,59.45,244,61,243.72,62.47Z"/><path class="cls-13" d="M279.35,50.86a.59.59,0,0,1,.47.21.65.65,0,0,1,.12.51L279,55.89a.87.87,0,0,1-.31.5.8.8,0,0,1-.55.22H273.7l-2.62,12.25a.85.85,0,0,1-.3.51.86.86,0,0,1-.55.21h-5.35a.58.58,0,0,1-.47-.21.62.62,0,0,1-.12-.51l2.62-12.25h-4.44a.57.57,0,0,1-.47-.22.62.62,0,0,1-.12-.5l.94-4.31a.89.89,0,0,1,.31-.51.84.84,0,0,1,.54-.21Z"/><path class="cls-13" d="M299,50.86a.59.59,0,0,1,.59.72l-3.69,17.28a.92.92,0,0,1-.31.51.84.84,0,0,1-.55.21h-5.24a.59.59,0,0,1-.47-.21.66.66,0,0,1-.12-.51l1.23-5.78h-4.33l-1.23,5.78a.92.92,0,0,1-.31.51.84.84,0,0,1-.55.21h-5.24a.62.62,0,0,1-.47-.2.64.64,0,0,1-.12-.52l3.69-17.28a.89.89,0,0,1,.31-.51.84.84,0,0,1,.55-.21h5.24a.59.59,0,0,1,.59.72l-1.2,5.62h4.33l1.2-5.62a.89.89,0,0,1,.31-.51.84.84,0,0,1,.55-.21Z"/><path class="cls-13" d="M314.38,64.37a.55.55,0,0,1,.46.21.63.63,0,0,1,.11.51l-.81,3.77a.91.91,0,0,1-.3.51.86.86,0,0,1-.55.21H299.35a.59.59,0,0,1-.47-.21.66.66,0,0,1-.12-.51l3.7-17.28a.83.83,0,0,1,.3-.51.84.84,0,0,1,.55-.21H317a.58.58,0,0,1,.47.21.61.61,0,0,1,.12.51l-.8,3.77a1,1,0,0,1-.34.51.84.84,0,0,1-.55.21h-8l-.37,1.69H315a.59.59,0,0,1,.59.72L314.81,62a.84.84,0,0,1-.32.51.91.91,0,0,1-.56.21h-7.44l-.34,1.69Z"/><path class="cls-1" d="M149.45,70.8H155a2.22,2.22,0,0,1,.86,2.59q-1.77,7.92-3.39,15.87a3.08,3.08,0,0,1-1.79,2.42h-5.28a8,8,0,0,0-1.51-.58c-1.26-.23-1.53-.59-1.27-1.88.14-.67.27-1.36.39-2a14.64,14.64,0,0,1-2.7-.44c-.75-.27-1-.13-1.14.61a17.71,17.71,0,0,0-.38,1.87A2.75,2.75,0,0,1,137,91.68h-5.28l-2.88-1.2v-1.2a5.82,5.82,0,0,0,.26-.77c1.11-5.13,2.23-10.25,3.3-15.39.23-1.1.6-1.86,1.9-1.83.34,0,.68-.32,1-.49h5.52c1.75,1.15,1.67,3.33,2.76,5,.53-.64,1-1.27,1.53-1.86,1-1.21,1.8-2.78,3.77-2.72C149.06,71.19,149.26,70.93,149.45,70.8Z"/><path class="cls-13" d="M113.66,106.13c-.15.8-.32,1.63-.49,2.49s-.36,1.66-.55,2.43a12.15,12.15,0,0,1-1.31,3.28,8.33,8.33,0,0,1-2.09,2.36,8.91,8.91,0,0,1-3,1.42,15.38,15.38,0,0,1-4,.47,12.67,12.67,0,0,1-3.48-.47,8,8,0,0,1-2.8-1.42,5.63,5.63,0,0,1-1.73-2.36,6.09,6.09,0,0,1-.26-3.28c.13-.77.29-1.58.47-2.43s.36-1.69.57-2.49a11.61,11.61,0,0,1,1.28-3.26,8.26,8.26,0,0,1,2.11-2.4,9,9,0,0,1,3-1.49,14.55,14.55,0,0,1,4-.5,12,12,0,0,1,3.48.5,7.91,7.91,0,0,1,2.8,1.49,5.75,5.75,0,0,1,1.73,2.4A6,6,0,0,1,113.66,106.13Zm-12.4,4.75a2.1,2.1,0,0,0,.22,1.72,1.69,1.69,0,0,0,1.37.54,2.4,2.4,0,0,0,1.58-.54,3.21,3.21,0,0,0,1-1.72c.39-1.58.73-3.15,1-4.69a2,2,0,0,0-.24-1.72,1.68,1.68,0,0,0-1.35-.54,2.43,2.43,0,0,0-1.57.54,3.18,3.18,0,0,0-1,1.72C101.87,107.73,101.54,109.3,101.26,110.88Z"/><path class="cls-13" d="M132.58,98.76a.61.61,0,0,1,.49.22.64.64,0,0,1,.13.54l-.92,4.24a1,1,0,0,1-.32.53.88.88,0,0,1-.58.22h-8l-.45,2.07h7.43a.55.55,0,0,1,.47.22.65.65,0,0,1,.11.53l-.89,4.22a1,1,0,0,1-.92.75h-7.43l-1.11,5.25a.92.92,0,0,1-.32.53.88.88,0,0,1-.58.22h-5.33a.6.6,0,0,1-.49-.22.61.61,0,0,1-.12-.53l3.85-18a.9.9,0,0,1,.32-.54.93.93,0,0,1,.57-.22Z"/><path class="cls-13" d="M154.86,117.38a.54.54,0,0,1-.12.66.89.89,0,0,1-.6.26h-5.95a1.08,1.08,0,0,1-.68-.18,1,1,0,0,1-.35-.46l-2.38-6.08-1.28,6a.92.92,0,0,1-.32.53.87.87,0,0,1-.57.22h-5.34a.58.58,0,0,1-.48-.22.59.59,0,0,1-.13-.53l3.85-18a1,1,0,0,1,.32-.54.93.93,0,0,1,.58-.22h5.33a.61.61,0,0,1,.61.76l-1.2,5.52,4.39-5.66A1.72,1.72,0,0,1,151,99a1.34,1.34,0,0,1,.76-.2h6.31a.44.44,0,0,1,.48.32.66.66,0,0,1-.14.6l-7.23,9Z"/><path class="cls-13" d="M167.9,111.83l-3.1,5.72a1.75,1.75,0,0,1-.4.46,1.25,1.25,0,0,1-.88.29h-4a1,1,0,0,1-.83-.33.92.92,0,0,1-.23-.73l.92-17.78a.74.74,0,0,1,.27-.49.77.77,0,0,1,.52-.21h5.05a1.09,1.09,0,0,1,.68.17.63.63,0,0,1,.16.59l-.73,7.87,1.87-3.49a5.19,5.19,0,0,1,.36-.5.91.91,0,0,1,.76-.31h2.85c.33,0,.54.1.62.31a2,2,0,0,1,.16.5l.42,3.46L175,99.52a1,1,0,0,1,.42-.59,1.46,1.46,0,0,1,.75-.17h5.34a.44.44,0,0,1,.4.22.57.57,0,0,1,0,.48l-6.06,17.78a1.66,1.66,0,0,1-.54.73,1.47,1.47,0,0,1-1,.33h-4a.83.83,0,0,1-.75-.29,2.18,2.18,0,0,1-.25-.46Z"/><path class="cls-13" d="M201,106.13c-.15.8-.31,1.63-.49,2.49s-.36,1.66-.54,2.43a12.49,12.49,0,0,1-1.32,3.28,8,8,0,0,1-2.09,2.36,8.82,8.82,0,0,1-3,1.42,15.38,15.38,0,0,1-4,.47,12.54,12.54,0,0,1-3.47-.47,8,8,0,0,1-2.81-1.42,5.71,5.71,0,0,1-1.73-2.36,6.09,6.09,0,0,1-.25-3.28c.13-.77.28-1.58.46-2.43s.37-1.69.57-2.49a12.25,12.25,0,0,1,1.28-3.26,8.41,8.41,0,0,1,2.11-2.4,9,9,0,0,1,3-1.49,14.63,14.63,0,0,1,4-.5,11.93,11.93,0,0,1,3.47.5,8,8,0,0,1,2.81,1.49,5.84,5.84,0,0,1,1.73,2.4A6.14,6.14,0,0,1,201,106.13Zm-12.4,4.75a2.06,2.06,0,0,0,.23,1.72,1.65,1.65,0,0,0,1.36.54,2.38,2.38,0,0,0,1.58-.54,3.28,3.28,0,0,0,1-1.72c.39-1.58.72-3.15,1-4.69a2,2,0,0,0-.24-1.72,1.67,1.67,0,0,0-1.35-.54,2.39,2.39,0,0,0-1.56.54,3.13,3.13,0,0,0-1,1.72C189.23,107.73,188.89,109.3,188.61,110.88Z"/><path class="cls-13" d="M212.2,111.83l-3.1,5.72a1.75,1.75,0,0,1-.4.46,1.23,1.23,0,0,1-.88.29h-4A1,1,0,0,1,203,118a.88.88,0,0,1-.22-.73l.92-17.78a.81.81,0,0,1,.78-.7h5.05a1.13,1.13,0,0,1,.69.17.6.6,0,0,1,.15.59l-.72,7.87,1.87-3.49a3.09,3.09,0,0,1,.36-.5.91.91,0,0,1,.75-.31h2.85c.33,0,.54.1.63.31a2.4,2.4,0,0,1,.15.5l.42,3.46,2.62-7.84a1.09,1.09,0,0,1,.42-.59,1.5,1.5,0,0,1,.76-.17h5.33a.43.43,0,0,1,.4.22.58.58,0,0,1,.05.48l-6.06,17.78a1.77,1.77,0,0,1-.55.73,1.47,1.47,0,0,1-1,.33h-4a.85.85,0,0,1-.76-.29,2.18,2.18,0,0,1-.25-.46Z"/><path class="cls-13" d="M240.6,112.58a.59.59,0,0,1,.48.23.53.53,0,0,1,.1.52l-.89,4.22a.92.92,0,0,1-.32.53.88.88,0,0,1-.58.22H225.32a.58.58,0,0,1-.48-.22.59.59,0,0,1-.13-.53l3.85-18a1,1,0,0,1,.32-.54.93.93,0,0,1,.58-.22H235a.61.61,0,0,1,.61.76l-2.79,13.06Z"/><path class="cls-13" d="M258.41,112.86a.55.55,0,0,1,.47.22.65.65,0,0,1,.11.53l-.84,3.94a1,1,0,0,1-.89.75H242.72a.59.59,0,0,1-.49-.22.65.65,0,0,1-.13-.53l3.85-18a.91.91,0,0,1,.33-.54.89.89,0,0,1,.57-.22h14.32a.61.61,0,0,1,.61.76l-.83,3.93a1.1,1.1,0,0,1-.35.53.89.89,0,0,1-.58.23h-8.37l-.39,1.75H259a.62.62,0,0,1,.61.76l-.78,3.63a.87.87,0,0,1-.33.53.92.92,0,0,1-.59.22h-7.76l-.36,1.76Z"/><path class="cls-13" d="M272.92,98.76a11.47,11.47,0,0,1,3.38.5,8.59,8.59,0,0,1,2.82,1.47,6,6,0,0,1,1.8,2.4,5.83,5.83,0,0,1,.27,3.31c-.08.39-.15.76-.21,1.1s-.13.68-.2,1-.14.65-.22,1-.17.69-.27,1.06A13.12,13.12,0,0,1,279,114a8,8,0,0,1-2.08,2.4,8.07,8.07,0,0,1-2.93,1.41,14.67,14.67,0,0,1-3.89.46h-8.74a.59.59,0,0,1-.49-.22.61.61,0,0,1-.12-.53l3.85-18a.85.85,0,0,1,.32-.54.93.93,0,0,1,.57-.22Zm1.18,7.68a1.79,1.79,0,0,0-.38-1.7,2.12,2.12,0,0,0-1.52-.53h-1.68l-1.84,8.65h1.81a2.78,2.78,0,0,0,1.67-.54,3,3,0,0,0,1-1.72c.11-.39.21-.76.28-1.1s.15-.68.23-1,.14-.65.2-1S274,106.83,274.1,106.44Z"/><path class="cls-13" d="M293.16,103.93a2.47,2.47,0,0,0-2.59,2.09c-.21.78-.39,1.57-.55,2.36s-.31,1.59-.46,2.39a2.19,2.19,0,0,0,.25,1.81,1.89,1.89,0,0,0,1.51.56,3.42,3.42,0,0,0,1.82-.46,2.23,2.23,0,0,0,1-1.55H292.8a.55.55,0,0,1-.47-.22.65.65,0,0,1-.12-.53l.65-3.1a1,1,0,0,1,.35-.53.85.85,0,0,1,.57-.23h7.68a.59.59,0,0,1,.48.23.55.55,0,0,1,.1.53l-.75,3.63a9.24,9.24,0,0,1-3.44,5.72,11.94,11.94,0,0,1-7.25,2,13.09,13.09,0,0,1-3.56-.47,8,8,0,0,1-2.84-1.42,5.55,5.55,0,0,1-1.71-2.39,6.29,6.29,0,0,1-.21-3.39c.13-.77.28-1.59.47-2.49s.38-1.74.59-2.54a9.58,9.58,0,0,1,3.4-5.55q2.46-1.85,7-1.85a13.45,13.45,0,0,1,3.73.5,10.05,10.05,0,0,1,2.93,1.36,5.9,5.9,0,0,1,1.83,2,3.44,3.44,0,0,1,.36,2.39.82.82,0,0,1-.75.61h-6.17c-.38,0-.62-.1-.73-.3l-.15-.3a1.59,1.59,0,0,0-.3-.36,1.77,1.77,0,0,0-.51-.31A2.43,2.43,0,0,0,293.16,103.93Z"/><path class="cls-13" d="M318.65,112.86a.54.54,0,0,1,.47.22.65.65,0,0,1,.12.53l-.84,3.94a.92.92,0,0,1-.32.53.87.87,0,0,1-.57.22H303a.6.6,0,0,1-.49-.22.61.61,0,0,1-.12-.53l3.85-18a.9.9,0,0,1,.32-.54.93.93,0,0,1,.57-.22h14.33a.61.61,0,0,1,.48.22.64.64,0,0,1,.13.54l-.84,3.93a1,1,0,0,1-.35.53.86.86,0,0,1-.57.23h-8.38L311.5,106h7.76a.59.59,0,0,1,.49.23.62.62,0,0,1,.13.53l-.78,3.63a1,1,0,0,1-.92.75h-7.76l-.37,1.76Z"/><path class="cls-13" d="M327.64,111.94a.57.57,0,0,1,.48.22.69.69,0,0,1,.11.53l-1,4.86a1,1,0,0,1-.89.75h-4.86a.58.58,0,0,1-.48-.22.59.59,0,0,1-.13-.53l1-4.86a1,1,0,0,1,.92-.75Zm2.79-13.18a.61.61,0,0,1,.49.22.67.67,0,0,1,.13.54l-2.26,10.55a.89.89,0,0,1-.34.53.92.92,0,0,1-.59.22H323a.55.55,0,0,1-.48-.22.65.65,0,0,1-.11-.53l2.26-10.55A1,1,0,0,1,325,99a.93.93,0,0,1,.58-.22Z"/><path class="cls-12" d="M91.51,80q-.57,2.22-1,4.5a2,2,0,0,0,.21,1.69,1.65,1.65,0,0,0,1.31.47,2.45,2.45,0,0,0,2.3-1.44,1.87,1.87,0,0,1,.47-.62,1.24,1.24,0,0,1,.68-.16H101a.49.49,0,0,1,.48.59,9.05,9.05,0,0,1-1.35,3.12,7.93,7.93,0,0,1-2.24,2.12,9.41,9.41,0,0,1-2.94,1.22,14.69,14.69,0,0,1-3.42.39,13.33,13.33,0,0,1-3.41-.42,7.23,7.23,0,0,1-2.72-1.29,5,5,0,0,1-1.63-2.25,6.42,6.42,0,0,1-.19-3.29c.13-.73.28-1.52.46-2.35s.37-1.64.56-2.41A9.07,9.07,0,0,1,88,74.36a11.19,11.19,0,0,1,6.5-1.75,13.55,13.55,0,0,1,3.21.39,8.24,8.24,0,0,1,2.81,1.22,5.32,5.32,0,0,1,1.82,2.12,4.94,4.94,0,0,1,.26,3.12.68.68,0,0,1-.26.41.72.72,0,0,1-.46.18H96.46a.87.87,0,0,1-.61-.16,1.39,1.39,0,0,1-.22-.62,1.55,1.55,0,0,0-.55-1.15,2,2,0,0,0-1.14-.29,2.46,2.46,0,0,0-1.51.46A2.87,2.87,0,0,0,91.51,80Z"/><path class="cls-12" d="M119.51,90.72a.71.71,0,0,1,0,.29.83.83,0,0,1-.25.42.7.7,0,0,1-.44.17h-5.49a.93.93,0,0,1-.75-.27,1.27,1.27,0,0,1-.26-.45l-1.21-5.11H110l-1.1,5.11a.89.89,0,0,1-.31.51.84.84,0,0,1-.55.21h-5.24a.58.58,0,0,1-.47-.21.65.65,0,0,1-.12-.51l3.69-17.28a.89.89,0,0,1,.31-.51.84.84,0,0,1,.55-.21h7.65a12,12,0,0,1,3.4.44,6.07,6.07,0,0,1,2.39,1.28,4.45,4.45,0,0,1,1.27,2.05,5.68,5.68,0,0,1,0,2.73,7,7,0,0,1-1.47,3.13,9,9,0,0,1-2.55,2.11Zm-8.42-10h2a1.3,1.3,0,0,0,1-.42,2.09,2.09,0,0,0,.52-.94,1.64,1.64,0,0,0,0-1,.83.83,0,0,0-.86-.47h-2Z"/><path class="cls-12" d="M122.08,91.6a.59.59,0,0,1-.59-.72l3.69-17.28a.89.89,0,0,1,.31-.51.84.84,0,0,1,.55-.21h5.45a.59.59,0,0,1,.59.72l-3.69,17.28a.89.89,0,0,1-.31.51.84.84,0,0,1-.55.21Z"/><path class="cls-12" d="M143.61,80l5.24-6.42a4.14,4.14,0,0,1,.43-.43,1.23,1.23,0,0,1,.85-.29h4.23a.59.59,0,0,1,.47.21.65.65,0,0,1,.12.51l-3.69,17.28a.89.89,0,0,1-.31.51.84.84,0,0,1-.55.21h-4.84a.58.58,0,0,1-.47-.21.61.61,0,0,1-.12-.51l1.55-7.33-2.35,2.89c-.14.14-.3.29-.48.44a1,1,0,0,1-.67.23h-1.87a.7.7,0,0,1-.58-.23,1.81,1.81,0,0,1-.25-.44l-1.18-2.89-1.55,7.33a.89.89,0,0,1-.31.51.84.84,0,0,1-.55.21h-4.84a.59.59,0,0,1-.47-.21.65.65,0,0,1-.12-.51L135,73.6a.83.83,0,0,1,.3-.51.84.84,0,0,1,.55-.21h4.23a.9.9,0,0,1,.75.29,2.15,2.15,0,0,1,.26.43Z"/><path class="cls-12" d="M154.76,91.6a.58.58,0,0,1-.47-.21.65.65,0,0,1-.12-.51l3.69-17.28a.89.89,0,0,1,.31-.51.84.84,0,0,1,.55-.21h5.45a.57.57,0,0,1,.47.21.58.58,0,0,1,.12.51l-3.69,17.28a.91.91,0,0,1-.86.72Z"/><path class="cls-12" d="M183.94,72.88a.59.59,0,0,1,.47.21.65.65,0,0,1,.12.51l-3.69,17.28a.89.89,0,0,1-.31.51.84.84,0,0,1-.55.21h-4.23a.91.91,0,0,1-.73-.24,1.59,1.59,0,0,1-.26-.37l-3-6.82-1.45,6.71a.92.92,0,0,1-.85.72h-4.85a.56.56,0,0,1-.46-.21.58.58,0,0,1-.12-.51l3.69-17.28a.83.83,0,0,1,.3-.51.86.86,0,0,1,.55-.21h4.23a.86.86,0,0,1,.72.24,1.68,1.68,0,0,1,.24.37l3,7.41,1.55-7.3a.89.89,0,0,1,.31-.51.84.84,0,0,1,.55-.21Z"/><path class="cls-12" d="M199.26,72.88a.88.88,0,0,1,.75.29,1.63,1.63,0,0,1,.27.59l2.35,17.06a.58.58,0,0,1-.18.58.84.84,0,0,1-.54.2H197.1a.86.86,0,0,1-.71-.23.87.87,0,0,1-.2-.44l-.27-1.76h-5.75l-1,1.76a1.86,1.86,0,0,1-.38.44,1.18,1.18,0,0,1-.79.23h-5.22a.46.46,0,0,1-.43-.24.53.53,0,0,1,0-.54l9.58-17.06a2.15,2.15,0,0,1,.5-.59,1.36,1.36,0,0,1,.89-.29ZM195.65,84l-.45-5-2.57,5Z"/><path class="cls-12" d="M219.32,86.12a.58.58,0,0,1,.47.21.52.52,0,0,1,.09.51l-.85,4a.89.89,0,0,1-.31.51.84.84,0,0,1-.55.21H204.69a.59.59,0,0,1-.47-.21.65.65,0,0,1-.12-.51l3.7-17.28a.83.83,0,0,1,.3-.51.84.84,0,0,1,.55-.21H214a.58.58,0,0,1,.47.21.65.65,0,0,1,.12.51l-2.68,12.52Z"/><path class="cls-12" d="M221.35,91.6a.56.56,0,0,1-.46-.21.58.58,0,0,1-.12-.51l3.69-17.28a.83.83,0,0,1,.3-.51.86.86,0,0,1,.55-.21h5.46a.58.58,0,0,1,.47.21.65.65,0,0,1,.12.51l-3.69,17.28a.89.89,0,0,1-.31.51.84.84,0,0,1-.55.21Z"/><path class="cls-12" d="M247.06,86.12a.56.56,0,0,1,.46.21.54.54,0,0,1,.1.51l-.86,4a.92.92,0,0,1-.85.72H230.63a.56.56,0,0,1-.46-.21.58.58,0,0,1-.12-.51l.83-3.85a1.38,1.38,0,0,1,.26-.6,2.19,2.19,0,0,1,.32-.34l8.88-7.78h-6.63a.5.5,0,0,1-.45-.22.58.58,0,0,1-.11-.5l.85-4a.89.89,0,0,1,.31-.51.84.84,0,0,1,.55-.21h14.66a.59.59,0,0,1,.47.21.65.65,0,0,1,.12.51l-.83,3.8a1.29,1.29,0,0,1-.2.49,2.5,2.5,0,0,1-.34.39l-8.48,7.84Z"/><path class="cls-12" d="M264.6,72.88a.88.88,0,0,1,.75.29,1.63,1.63,0,0,1,.27.59L268,90.82a.58.58,0,0,1-.19.58.83.83,0,0,1-.53.2h-4.82a.85.85,0,0,1-.7-.23.79.79,0,0,1-.2-.44l-.27-1.76h-5.75l-1,1.76a1.93,1.93,0,0,1-.39.44,1.16,1.16,0,0,1-.79.23H248.1a.45.45,0,0,1-.43-.24.53.53,0,0,1,0-.54l9.57-17.06a2.41,2.41,0,0,1,.51-.59,1.35,1.35,0,0,1,.88-.29ZM261,84l-.45-5L258,84Z"/><path class="cls-12" d="M286.69,72.88a.59.59,0,0,1,.59.72l-.94,4.31a.85.85,0,0,1-.3.51.86.86,0,0,1-.55.21h-4.44l-2.62,12.25a.89.89,0,0,1-.31.51.84.84,0,0,1-.55.21h-5.35a.59.59,0,0,1-.47-.21.61.61,0,0,1-.11-.51l2.62-12.25h-4.44a.57.57,0,0,1-.47-.21.59.59,0,0,1-.12-.51l.93-4.31a.89.89,0,0,1,.31-.51.84.84,0,0,1,.55-.21Z"/><path class="cls-12" d="M286.08,91.6a.57.57,0,0,1-.47-.21.58.58,0,0,1-.12-.51l3.69-17.28a.92.92,0,0,1,.85-.72h5.46a.58.58,0,0,1,.47.21.65.65,0,0,1,.12.51l-3.69,17.28a.89.89,0,0,1-.31.51.84.84,0,0,1-.55.21Z"/><path class="cls-12" d="M315,79.94c-.14.77-.3,1.56-.47,2.38s-.34,1.6-.52,2.33a11.58,11.58,0,0,1-1.26,3.14,7.77,7.77,0,0,1-2,2.26,8.33,8.33,0,0,1-2.86,1.36,14.26,14.26,0,0,1-3.83.46,11.65,11.65,0,0,1-3.33-.46,7.5,7.5,0,0,1-2.69-1.36,5.46,5.46,0,0,1-1.65-2.26,5.78,5.78,0,0,1-.24-3.14c.12-.73.27-1.51.44-2.33s.35-1.61.55-2.38a11.11,11.11,0,0,1,1.23-3.13,7.83,7.83,0,0,1,2-2.3,8.57,8.57,0,0,1,2.87-1.42,13.8,13.8,0,0,1,3.82-.48,11.26,11.26,0,0,1,3.33.48,7.68,7.68,0,0,1,2.69,1.42,5.68,5.68,0,0,1,1.66,2.3A5.77,5.77,0,0,1,315,79.94Zm-11.87,4.55a1.92,1.92,0,0,0,.21,1.64,1.58,1.58,0,0,0,1.31.52,2.27,2.27,0,0,0,1.51-.52,3,3,0,0,0,.92-1.64c.38-1.52.7-3,1-4.5a2,2,0,0,0-.23-1.64,1.6,1.6,0,0,0-1.3-.52,2.26,2.26,0,0,0-1.49.52,3,3,0,0,0-.94,1.64Q303.56,82.21,303.17,84.49Z"/><path class="cls-12" d="M335.1,72.88a.58.58,0,0,1,.47.21.65.65,0,0,1,.12.51L332,90.88a.89.89,0,0,1-.31.51.84.84,0,0,1-.55.21h-4.22a.92.92,0,0,1-.74-.24,1.48,1.48,0,0,1-.25-.37l-3.05-6.82-1.45,6.71a.87.87,0,0,1-.3.51.86.86,0,0,1-.55.21h-4.85a.56.56,0,0,1-.46-.21.58.58,0,0,1-.12-.51l3.69-17.28a.92.92,0,0,1,.85-.72h4.23a.86.86,0,0,1,.72.24,1.37,1.37,0,0,1,.24.37l3,7.41,1.55-7.3a.89.89,0,0,1,.31-.51.84.84,0,0,1,.55-.21Z"/><path class="cls-13" d="M89.51,80q-.57,2.22-1,4.5a2,2,0,0,0,.21,1.69,1.65,1.65,0,0,0,1.31.47,2.45,2.45,0,0,0,2.3-1.44,1.87,1.87,0,0,1,.47-.62,1.24,1.24,0,0,1,.68-.16H99a.49.49,0,0,1,.48.59,9.05,9.05,0,0,1-1.35,3.12,7.93,7.93,0,0,1-2.24,2.12,9.41,9.41,0,0,1-2.94,1.22,14.69,14.69,0,0,1-3.42.39,13.33,13.33,0,0,1-3.41-.42,7.23,7.23,0,0,1-2.72-1.29,5,5,0,0,1-1.63-2.25,6.42,6.42,0,0,1-.19-3.29c.13-.73.28-1.52.46-2.35s.37-1.64.56-2.41A9.07,9.07,0,0,1,86,74.36a11.19,11.19,0,0,1,6.5-1.75,13.55,13.55,0,0,1,3.21.39,8.24,8.24,0,0,1,2.81,1.22,5.32,5.32,0,0,1,1.82,2.12,4.94,4.94,0,0,1,.26,3.12.68.68,0,0,1-.26.41.72.72,0,0,1-.46.18H94.46a.87.87,0,0,1-.61-.16,1.39,1.39,0,0,1-.22-.62,1.55,1.55,0,0,0-.55-1.15,2,2,0,0,0-1.14-.29,2.46,2.46,0,0,0-1.51.46A2.87,2.87,0,0,0,89.51,80Z"/><path class="cls-13" d="M117.51,90.72a.71.71,0,0,1,0,.29.83.83,0,0,1-.25.42.7.7,0,0,1-.44.17h-5.49a.93.93,0,0,1-.75-.27,1.27,1.27,0,0,1-.26-.45l-1.21-5.11H108l-1.1,5.11a.89.89,0,0,1-.31.51.84.84,0,0,1-.55.21h-5.24a.58.58,0,0,1-.47-.21.65.65,0,0,1-.12-.51l3.69-17.28a.89.89,0,0,1,.31-.51.84.84,0,0,1,.55-.21h7.65a12,12,0,0,1,3.4.44,6.07,6.07,0,0,1,2.39,1.28,4.45,4.45,0,0,1,1.27,2.05,5.68,5.68,0,0,1,0,2.73,7,7,0,0,1-1.47,3.13,9,9,0,0,1-2.55,2.11Zm-8.42-10h2a1.3,1.3,0,0,0,1-.42,2.09,2.09,0,0,0,.52-.94,1.64,1.64,0,0,0,0-1,.83.83,0,0,0-.86-.47h-2Z"/><path class="cls-13" d="M120.08,91.6a.59.59,0,0,1-.59-.72l3.69-17.28a.89.89,0,0,1,.31-.51.84.84,0,0,1,.55-.21h5.45a.59.59,0,0,1,.59.72l-3.69,17.28a.89.89,0,0,1-.31.51.84.84,0,0,1-.55.21Z"/><path class="cls-13" d="M141.61,80l5.24-6.42a4.14,4.14,0,0,1,.43-.43,1.23,1.23,0,0,1,.85-.29h4.23a.59.59,0,0,1,.47.21.65.65,0,0,1,.12.51l-3.69,17.28a.89.89,0,0,1-.31.51.84.84,0,0,1-.55.21h-4.84a.58.58,0,0,1-.47-.21.61.61,0,0,1-.12-.51l1.55-7.33-2.35,2.89c-.14.14-.3.29-.48.44a1,1,0,0,1-.67.23h-1.87a.7.7,0,0,1-.58-.23,1.81,1.81,0,0,1-.25-.44l-1.18-2.89-1.55,7.33a.89.89,0,0,1-.31.51.84.84,0,0,1-.55.21h-4.84a.59.59,0,0,1-.47-.21.65.65,0,0,1-.12-.51L133,73.6a.83.83,0,0,1,.3-.51.84.84,0,0,1,.55-.21h4.23a.9.9,0,0,1,.75.29,2.15,2.15,0,0,1,.26.43Z"/><path class="cls-13" d="M152.76,91.6a.58.58,0,0,1-.47-.21.65.65,0,0,1-.12-.51l3.69-17.28a.89.89,0,0,1,.31-.51.84.84,0,0,1,.55-.21h5.45a.57.57,0,0,1,.47.21.58.58,0,0,1,.12.51l-3.69,17.28a.91.91,0,0,1-.86.72Z"/><path class="cls-13" d="M181.94,72.88a.59.59,0,0,1,.47.21.65.65,0,0,1,.12.51l-3.69,17.28a.89.89,0,0,1-.31.51.84.84,0,0,1-.55.21h-4.23a.91.91,0,0,1-.73-.24,1.59,1.59,0,0,1-.26-.37l-3-6.82-1.45,6.71a.92.92,0,0,1-.85.72h-4.85a.56.56,0,0,1-.46-.21.58.58,0,0,1-.12-.51l3.69-17.28a.83.83,0,0,1,.3-.51.86.86,0,0,1,.55-.21h4.23a.86.86,0,0,1,.72.24,1.68,1.68,0,0,1,.24.37l3,7.41,1.55-7.3a.89.89,0,0,1,.31-.51.84.84,0,0,1,.55-.21Z"/><path class="cls-13" d="M197.26,72.88a.88.88,0,0,1,.75.29,1.63,1.63,0,0,1,.27.59l2.35,17.06a.58.58,0,0,1-.18.58.84.84,0,0,1-.54.2H195.1a.86.86,0,0,1-.71-.23.87.87,0,0,1-.2-.44l-.27-1.76h-5.75l-1,1.76a1.86,1.86,0,0,1-.38.44,1.18,1.18,0,0,1-.79.23h-5.22a.46.46,0,0,1-.43-.24.53.53,0,0,1,0-.54l9.58-17.06a2.15,2.15,0,0,1,.5-.59,1.36,1.36,0,0,1,.89-.29ZM193.65,84l-.45-5-2.57,5Z"/><path class="cls-13" d="M217.32,86.12a.58.58,0,0,1,.47.21.52.52,0,0,1,.09.51l-.85,4a.89.89,0,0,1-.31.51.84.84,0,0,1-.55.21H202.69a.59.59,0,0,1-.47-.21.65.65,0,0,1-.12-.51l3.7-17.28a.83.83,0,0,1,.3-.51.84.84,0,0,1,.55-.21H212a.58.58,0,0,1,.47.21.65.65,0,0,1,.12.51l-2.68,12.52Z"/><path class="cls-13" d="M219.35,91.6a.56.56,0,0,1-.46-.21.58.58,0,0,1-.12-.51l3.69-17.28a.83.83,0,0,1,.3-.51.86.86,0,0,1,.55-.21h5.46a.58.58,0,0,1,.47.21.65.65,0,0,1,.12.51l-3.69,17.28a.89.89,0,0,1-.31.51.84.84,0,0,1-.55.21Z"/><path class="cls-13" d="M245.06,86.12a.56.56,0,0,1,.46.21.54.54,0,0,1,.1.51l-.86,4a.92.92,0,0,1-.85.72H228.63a.56.56,0,0,1-.46-.21.58.58,0,0,1-.12-.51l.83-3.85a1.38,1.38,0,0,1,.26-.6,2.19,2.19,0,0,1,.32-.34l8.88-7.78h-6.63a.5.5,0,0,1-.45-.22.58.58,0,0,1-.11-.5l.85-4a.89.89,0,0,1,.31-.51.84.84,0,0,1,.55-.21h14.66a.59.59,0,0,1,.47.21.65.65,0,0,1,.12.51l-.83,3.8a1.29,1.29,0,0,1-.2.49,2.5,2.5,0,0,1-.34.39l-8.48,7.84Z"/><path class="cls-13" d="M262.6,72.88a.88.88,0,0,1,.75.29,1.63,1.63,0,0,1,.27.59L266,90.82a.58.58,0,0,1-.19.58.83.83,0,0,1-.53.2h-4.82a.85.85,0,0,1-.7-.23.79.79,0,0,1-.2-.44l-.27-1.76h-5.75l-1,1.76a1.93,1.93,0,0,1-.39.44,1.16,1.16,0,0,1-.79.23H246.1a.45.45,0,0,1-.43-.24.53.53,0,0,1,0-.54l9.57-17.06a2.41,2.41,0,0,1,.51-.59,1.35,1.35,0,0,1,.88-.29ZM259,84l-.45-5L256,84Z"/><path class="cls-13" d="M284.69,72.88a.59.59,0,0,1,.59.72l-.94,4.31a.85.85,0,0,1-.3.51.86.86,0,0,1-.55.21h-4.44l-2.62,12.25a.89.89,0,0,1-.31.51.84.84,0,0,1-.55.21h-5.35a.59.59,0,0,1-.47-.21.61.61,0,0,1-.11-.51l2.62-12.25h-4.44a.57.57,0,0,1-.47-.21.59.59,0,0,1-.12-.51l.93-4.31a.89.89,0,0,1,.31-.51.84.84,0,0,1,.55-.21Z"/><path class="cls-13" d="M284.08,91.6a.57.57,0,0,1-.47-.21.58.58,0,0,1-.12-.51l3.69-17.28a.92.92,0,0,1,.85-.72h5.46a.58.58,0,0,1,.47.21.65.65,0,0,1,.12.51l-3.69,17.28a.89.89,0,0,1-.31.51.84.84,0,0,1-.55.21Z"/><path class="cls-13" d="M313,79.94c-.14.77-.3,1.56-.47,2.38s-.34,1.6-.52,2.33a11.58,11.58,0,0,1-1.26,3.14,7.77,7.77,0,0,1-2,2.26,8.33,8.33,0,0,1-2.86,1.36,14.26,14.26,0,0,1-3.83.46,11.65,11.65,0,0,1-3.33-.46,7.5,7.5,0,0,1-2.69-1.36,5.46,5.46,0,0,1-1.65-2.26,5.78,5.78,0,0,1-.24-3.14c.12-.73.27-1.51.44-2.33s.35-1.61.55-2.38a11.11,11.11,0,0,1,1.23-3.13,7.83,7.83,0,0,1,2-2.3,8.57,8.57,0,0,1,2.87-1.42,13.8,13.8,0,0,1,3.82-.48,11.26,11.26,0,0,1,3.33.48,7.68,7.68,0,0,1,2.69,1.42,5.68,5.68,0,0,1,1.66,2.3A5.77,5.77,0,0,1,313,79.94Zm-11.87,4.55a1.92,1.92,0,0,0,.21,1.64,1.58,1.58,0,0,0,1.31.52,2.27,2.27,0,0,0,1.51-.52,3,3,0,0,0,.92-1.64c.38-1.52.7-3,1-4.5a2,2,0,0,0-.23-1.64,1.6,1.6,0,0,0-1.3-.52,2.26,2.26,0,0,0-1.49.52,3,3,0,0,0-.94,1.64Q301.56,82.21,301.17,84.49Z"/><path class="cls-13" d="M333.1,72.88a.58.58,0,0,1,.47.21.65.65,0,0,1,.12.51L330,90.88a.89.89,0,0,1-.31.51.84.84,0,0,1-.55.21h-4.22a.92.92,0,0,1-.74-.24,1.48,1.48,0,0,1-.25-.37l-3.05-6.82-1.45,6.71a.87.87,0,0,1-.3.51.86.86,0,0,1-.55.21h-4.85a.56.56,0,0,1-.46-.21.58.58,0,0,1-.12-.51l3.69-17.28a.92.92,0,0,1,.85-.72h4.23a.86.86,0,0,1,.72.24,1.37,1.37,0,0,1,.24.37l3,7.41,1.55-7.3a.89.89,0,0,1,.31-.51.84.84,0,0,1,.55-.21Z"/></svg>